<svg width="100" height="100" viewBox="0 0 100 100" fill="none" xmlns="http://www.w3.org/2000/svg">
<path d="M60.6001 44.0429C61.0301 44.1349 61.6501 44.2649 61.6001 44.5354C61.5746 44.7984 61.2186 44.7444 60.7211 44.7154C60.4171 44.6964 60.2856 44.6694 60.1311 44.6499C60.0826 44.6442 60.036 44.6282 59.9942 44.6029C59.9525 44.5776 59.9167 44.5436 59.8893 44.5032C59.8619 44.4628 59.8435 44.4171 59.8353 44.3689C59.8272 44.3208 59.8295 44.2715 59.8421 44.2244C60.0825 43.1853 60.4129 42.1691 60.8296 41.1874C60.8796 41.0934 61.2956 40.2874 61.5761 40.4309C61.9166 40.6244 61.2606 41.4959 60.6001 44.0429Z" fill="#3A307F"/>
<path d="M63.6105 40.5776C64.4295 40.2696 64.9845 41.1851 65.2715 40.9621C65.5165 40.7941 65.188 39.9301 64.116 39.8216C63.0755 39.7166 62.583 40.6306 62.866 40.8291C63.016 40.9366 63.0185 40.8526 63.6105 40.5776Z" fill="#3A307F"/>
<path d="M60.3599 46.3571C60.4053 46.7749 60.5192 47.1823 60.6969 47.5631C60.8092 47.7774 60.9706 47.9621 61.1677 48.1023C61.3649 48.2425 61.5924 48.3342 61.8316 48.37C62.0709 48.4058 62.3152 48.3847 62.5448 48.3083C62.7744 48.232 62.9827 48.1026 63.1529 47.9306C63.4232 47.6187 63.6203 47.2503 63.73 46.8523C63.8396 46.4544 63.8588 46.037 63.7864 45.6306C62.6239 45.8001 61.4999 46.0931 60.3599 46.3571Z" fill="#D4D2E1"/>
<path d="M63.5498 45.424C63.5592 45.377 63.5845 45.3347 63.6215 45.3041C63.6584 45.2735 63.7047 45.2566 63.7527 45.2561C63.8006 45.2556 63.8473 45.2717 63.8848 45.3015C63.9223 45.3314 63.9484 45.3732 63.9588 45.42C64.4758 47.09 63.4998 48.946 61.7798 48.715C60.8558 48.5915 60.3768 47.949 60.1423 47.065C60.0791 46.8473 60.0349 46.6244 60.0103 46.399C60.0013 46.3144 60.0231 46.2295 60.0717 46.1597C60.1202 46.0899 60.1924 46.0399 60.2748 46.019C61.3472 45.7262 62.4429 45.5272 63.5498 45.424ZM63.5738 45.91C62.7838 46.1005 62.8938 46.11 60.7563 46.619C60.7706 46.7079 60.7908 46.7958 60.8168 46.882C60.9708 47.4725 61.2293 47.9355 61.8763 48.024C62.9758 48.1765 63.5238 47.005 63.5743 45.91H63.5738Z" fill="#3A307F"/>
<path d="M39.0283 74.0216C37.4128 73.5311 35.5128 74.2941 35.5128 75.9716C35.4787 75.9928 35.4509 76.0229 35.4325 76.0586C35.4141 76.0944 35.4057 76.1344 35.4081 76.1745C35.4106 76.2146 35.4238 76.2533 35.4465 76.2865C35.4691 76.3197 35.5003 76.3462 35.5368 76.3631C35.9843 76.6514 36.521 76.7679 37.0477 76.6911C37.5745 76.6144 38.0556 76.3496 38.4023 75.9456C38.759 75.5122 39.0434 75.0241 39.2448 74.5001C39.2646 74.4547 39.2747 74.4057 39.2744 74.3562C39.2741 74.3067 39.2634 74.2578 39.243 74.2127C39.2226 74.1676 39.1929 74.1272 39.1559 74.0943C39.1189 74.0614 39.0754 74.0366 39.0283 74.0216Z" fill="#D4D2E1"/>
<path d="M36.684 78.1629C36.6595 78.1293 36.6266 78.1028 36.5886 78.0859C36.5506 78.0691 36.5089 78.0625 36.4675 78.0669C36.4395 78.0548 36.4092 78.049 36.3787 78.0497C36.3481 78.0504 36.3181 78.0577 36.2907 78.0711C36.2632 78.0845 36.239 78.1036 36.2197 78.1272C36.2003 78.1509 36.1863 78.1784 36.1785 78.2079C36.0872 78.4683 35.8969 78.6822 35.649 78.8034C35.4641 78.9131 35.2451 78.9508 35.0341 78.9092C34.8231 78.8677 34.6348 78.7498 34.5052 78.5782C34.3756 78.4066 34.3138 78.1933 34.3315 77.9789C34.3493 77.7646 34.4454 77.5643 34.6015 77.4164C34.6648 77.3653 34.7334 77.321 34.806 77.2844C34.8702 77.2511 34.9222 77.1983 34.9546 77.1337C34.987 77.069 34.9982 76.9958 34.9865 76.9244C34.9125 76.4779 34.219 76.6334 33.807 76.7129C31.9365 77.1009 30.8165 79.6549 32.085 81.3129C32.3491 81.637 32.6823 81.8978 33.0602 82.0763C33.4382 82.2548 33.8513 82.3464 34.2693 82.3444C34.6873 82.3423 35.0995 82.2468 35.4758 82.0647C35.852 81.8825 36.1827 81.6185 36.4435 81.2919C36.8288 80.873 37.062 80.3366 37.1056 79.7691C37.1493 79.2016 37.0008 78.6359 36.684 78.1629Z" fill="#D4D2E1"/>
<path d="M44.8569 31.2559C44.7073 31.1835 44.5789 31.0739 44.4839 30.9374C44.4148 30.8369 44.3758 30.7187 44.3715 30.5967C44.3672 30.4748 44.3977 30.3542 44.4594 30.2489C44.5315 30.1264 44.629 30.0206 44.7452 29.9387C44.8614 29.8568 44.9938 29.8006 45.1334 29.7739C45.1459 29.7739 45.1459 29.7709 45.1459 29.7709V29.7899C46.0111 29.5484 46.917 29.4888 47.8064 29.6149C47.9362 29.6402 48.0573 29.6984 48.158 29.7839C48.2588 29.8694 48.3359 29.9795 48.3818 30.1034C48.4278 30.2274 48.441 30.361 48.4204 30.4916C48.3998 30.6222 48.3459 30.7452 48.2639 30.8489C48.3955 31.012 48.4639 31.217 48.4564 31.4264C48.3734 32.5414 46.6524 32.6699 45.6034 32.3634C45.4816 32.3399 45.3656 32.2926 45.2621 32.2241C45.1586 32.1557 45.0697 32.0675 45.0003 31.9646C44.931 31.8617 44.8826 31.7462 44.858 31.6246C44.8334 31.503 44.833 31.3777 44.8569 31.2559ZM45.2299 30.2009C45.2299 30.2669 45.2344 30.1454 45.0014 30.3804C44.8084 30.6219 45.1614 30.7239 45.4709 30.7264C45.5436 30.73 45.6131 30.7568 45.6693 30.803C45.7255 30.8492 45.7653 30.9122 45.7828 30.9828C45.8004 31.0534 45.7948 31.1277 45.7668 31.1948C45.7388 31.2619 45.6899 31.3183 45.6274 31.3554C45.5429 31.4024 45.4829 31.4384 45.5069 31.4929C45.6639 31.9209 47.6939 31.9389 47.7569 31.3929C47.7569 31.3054 47.6844 31.2329 47.5759 31.1869C47.5123 31.1603 47.458 31.1154 47.4199 31.058C47.3817 31.0006 47.3613 30.9331 47.3613 30.8642C47.3613 30.7952 47.3817 30.7278 47.4199 30.6704C47.458 30.613 47.5123 30.5681 47.5759 30.5414C47.6604 30.5059 47.7329 30.4414 47.7329 30.3694C47.7344 30.1194 45.5429 30.1924 45.2299 30.1999V30.2009Z" fill="#3A307F"/>
<path d="M45.7564 33.3525C45.8015 33.417 45.8542 33.4757 45.9134 33.5275C46.3268 33.6983 46.7874 33.7172 47.2134 33.581C47.3136 33.537 47.4069 33.4787 47.4904 33.408C47.5203 33.4018 47.5487 33.3897 47.5738 33.3723C47.5989 33.3549 47.6203 33.3327 47.6366 33.3068C47.6529 33.281 47.6638 33.2522 47.6687 33.222C47.6736 33.1919 47.6724 33.161 47.665 33.1314C47.6577 33.1017 47.6445 33.0738 47.6262 33.0494C47.6079 33.025 47.5848 33.0045 47.5584 32.9892C47.5319 32.9739 47.5027 32.9641 47.4724 32.9604C47.442 32.9566 47.4113 32.9591 47.3819 32.9675C47.2769 32.9345 47.1669 32.9201 47.0569 32.925C46.7982 32.9658 46.5355 32.9756 46.2744 32.954C46.0839 32.924 46.0394 32.9845 45.9494 32.9845C45.8993 32.9588 45.8412 32.9536 45.7873 32.9699C45.7334 32.9863 45.6879 33.0228 45.6604 33.072C45.6361 33.1219 45.6325 33.1795 45.6505 33.2321C45.6685 33.2847 45.7066 33.328 45.7564 33.3525Z" fill="#3A307F"/>
<path d="M44.2279 29.5096C43.676 29.0615 43.266 28.4627 43.0479 27.7861C42.8463 27.2308 42.7722 26.6374 42.8309 26.0496C42.8811 25.5706 43.0305 25.1074 43.2698 24.6895C43.509 24.2715 43.8327 23.908 44.2203 23.6222C44.6079 23.3364 45.0508 23.1345 45.5208 23.0295C45.9908 22.9244 46.4775 22.9185 46.9499 23.0121C47.7229 23.1975 48.4112 23.6373 48.9043 24.2607C49.3975 24.8842 49.6669 25.6552 49.6694 26.4501C49.6369 27.1022 49.4057 27.7287 49.0069 28.2456C48.7855 28.5626 48.5268 28.8518 48.2364 29.1071C48.1933 29.1463 48.1669 29.2006 48.1629 29.2587C48.1588 29.3168 48.1774 29.3743 48.2147 29.419C48.252 29.4638 48.3051 29.4925 48.363 29.499C48.4209 29.5055 48.4791 29.4894 48.5254 29.4541C49.4979 28.6846 50.2614 27.7126 50.3434 26.4846C50.3583 25.5247 50.0439 24.5886 49.4525 23.8323C48.8612 23.076 48.0286 22.5451 47.0934 22.3281C46.1492 22.1365 45.1677 22.28 44.3178 22.7337C43.4679 23.1875 42.8026 23.9232 42.4365 24.8144C42.0703 25.7055 42.0261 26.6964 42.3114 27.6166C42.5967 28.5369 43.1938 29.3289 43.9999 29.8566C44.0459 29.8829 44.1001 29.8906 44.1516 29.8783C44.2031 29.866 44.2479 29.8345 44.277 29.7902C44.306 29.746 44.3171 29.6923 44.308 29.6402C44.2989 29.5881 44.2703 29.5414 44.2279 29.5096Z" fill="#3A307F"/>
<path d="M46.1778 26.1276L47.7188 24.9671C47.7749 24.9254 47.8421 24.9015 47.9119 24.8983C47.9817 24.8952 48.0508 24.913 48.1104 24.9494C48.1699 24.9859 48.2172 25.0393 48.2462 25.1029C48.2752 25.1664 48.2844 25.2372 48.2728 25.3061C47.8873 27.4136 48.2323 25.7706 47.6108 28.6456C47.6071 28.6749 47.5976 28.7033 47.5828 28.7289C47.5681 28.7545 47.5483 28.7769 47.5247 28.7947C47.5011 28.8126 47.4742 28.8255 47.4455 28.8328C47.4169 28.8401 47.3871 28.8415 47.3578 28.8371C47.3277 28.8342 47.2985 28.8251 47.2721 28.8103C47.2458 28.7955 47.2228 28.7754 47.2046 28.7512C47.1864 28.727 47.1735 28.6993 47.1667 28.6698C47.1598 28.6404 47.1592 28.6098 47.1648 28.5801C47.2114 27.7321 47.3038 26.8871 47.4418 26.0491L46.4188 26.8186C46.3649 26.8615 46.2994 26.8873 46.2307 26.8927C46.162 26.8982 46.0933 26.883 46.0333 26.8491C45.7418 26.6926 45.4553 26.5326 45.1668 26.3726C45.4403 27.9636 45.2843 26.8146 45.5878 28.8871C45.5997 28.9409 45.59 28.9972 45.5609 29.044C45.5317 29.0907 45.4854 29.1241 45.4318 29.1371C45.3774 29.1489 45.3206 29.139 45.2734 29.1096C45.2262 29.0802 45.1922 29.0336 45.1788 28.9796C44.785 27.941 44.5141 26.8598 44.3718 25.7581C44.3638 25.6941 44.3739 25.6292 44.401 25.5706C44.4281 25.5121 44.4711 25.4624 44.5252 25.4272C44.5792 25.3919 44.642 25.3726 44.7065 25.3713C44.7709 25.3701 44.8345 25.387 44.8898 25.4201C45.2583 25.6376 45.5943 25.8176 46.1778 26.1276Z" fill="#EA3934"/>
<path d="M39.003 28.5645C39.4245 28.517 39.8455 28.4745 40.267 28.4055C40.5205 28.3625 41.026 28.2415 41.0015 27.984C40.9175 27.549 39.612 27.7805 39.1715 27.8415C38.874 27.881 37.902 28.01 37.9795 28.373C38.009 28.65 38.7275 28.595 39.003 28.5645Z" fill="#EA3934"/>
<path d="M41.1333 23.712C41.2103 23.758 41.5933 23.857 41.7113 23.6865C41.8668 23.4185 41.4709 23.1095 41.2059 22.9465C40.2789 22.379 39.7903 23.0715 41.1333 23.712Z" fill="#EA3934"/>
<path d="M45.4318 19.9571C45.4818 20.3071 45.5568 21.7471 45.9853 21.6941C46.4138 21.6411 46.1593 20.0786 46.0938 19.5646C46.0573 19.2786 45.9388 18.1021 45.5518 18.1606C45.1648 18.2191 45.3763 19.5561 45.4318 19.9571Z" fill="#EA3934"/>
<path d="M51.5355 22.2611C51.7855 22.0611 52.5355 21.5021 52.2815 21.2136C52.129 21.0096 51.7095 21.2751 51.487 21.4241C51.074 21.7141 49.66 22.6901 49.9825 23.0741C50.2275 23.3641 51.195 22.5301 51.5355 22.2611Z" fill="#EA3934"/>
<path d="M53.7624 26.65C54.0999 26.613 54.9624 26.5255 54.9304 26.1845C54.8874 25.743 53.2584 25.994 52.7274 26.063C52.464 26.0869 52.2025 26.129 51.9449 26.189C51.8014 26.2295 51.2324 26.412 51.2824 26.6445C51.3599 27.008 52.4299 26.805 53.7624 26.65Z" fill="#EA3934"/>
<path d="M58.4215 78.7964C58.5068 78.5309 58.6069 78.2703 58.7215 78.0159C58.9182 77.4268 59.2873 76.9103 59.781 76.5334C60.0178 76.3919 60.2823 76.3032 60.5565 76.2732C60.8308 76.2433 61.1082 76.2729 61.37 76.3599C61.4249 76.3875 61.4885 76.3925 61.5471 76.3738C61.6057 76.3551 61.6546 76.3142 61.6835 76.2599C61.7091 76.205 61.7121 76.1423 61.6918 76.0852C61.6715 76.0281 61.6295 75.9813 61.575 75.9549C59.9 74.7324 57.803 76.8509 58.0115 78.7619C58.0069 78.8163 58.0241 78.8703 58.0593 78.912C58.0945 78.9536 58.1449 78.9796 58.1992 78.9842C58.2536 78.9888 58.3076 78.9716 58.3492 78.9363C58.3909 78.9011 58.4169 78.8508 58.4215 78.7964Z" fill="#3A307F"/>
<path d="M60.6132 79.983C60.6827 79.77 60.9157 79.2275 60.9377 79.1775C61.0793 78.6917 61.3205 78.2408 61.646 77.8534C61.9715 77.466 62.3741 77.1507 62.8282 76.9275C63.0465 76.8281 63.2773 76.759 63.5142 76.722C63.5743 76.7236 63.6326 76.7013 63.6762 76.6599C63.7198 76.6186 63.7451 76.5616 63.7467 76.5015C63.7483 76.4415 63.726 76.3832 63.6846 76.3396C63.6433 76.296 63.5863 76.2706 63.5262 76.269C63.1479 76.2064 62.7598 76.2422 62.3993 76.3729C62.0388 76.5036 61.718 76.7249 61.4677 77.0155C61.0667 77.3862 60.7472 77.8363 60.5296 78.3373C60.312 78.8382 60.201 79.3789 60.2037 79.925C60.1986 79.9525 60.1991 79.9807 60.2051 80.008C60.2112 80.0353 60.2227 80.0611 60.239 80.0838C60.2553 80.1066 60.276 80.1257 60.3 80.1402C60.3239 80.1547 60.3505 80.1642 60.3782 80.1681C60.4059 80.172 60.434 80.1703 60.461 80.163C60.488 80.1558 60.5133 80.1431 60.5353 80.1258C60.5572 80.1085 60.5755 80.0869 60.5889 80.0624C60.6023 80.0379 60.6106 80.0109 60.6132 79.983Z" fill="#3A307F"/>
<path d="M62.9239 80.279C62.9714 80.186 63.1844 79.8525 63.2239 79.7925C63.556 79.1814 63.992 78.6328 64.5124 78.1715C64.9573 77.8404 65.4881 77.6444 66.0414 77.607C66.1011 77.6158 66.1619 77.6013 66.2112 77.5665C66.2604 77.5317 66.2944 77.4792 66.3059 77.42C66.3123 77.3603 66.2961 77.3005 66.2604 77.2523C66.2248 77.204 66.1723 77.1709 66.1134 77.1595C65.9194 77.097 65.7173 77.0633 65.5134 77.0595C64.4459 77.032 62.7309 78.4355 62.5279 80.1505C62.5194 80.1763 62.5161 80.2036 62.5182 80.2308C62.5202 80.258 62.5276 80.2844 62.5399 80.3087C62.5522 80.333 62.5692 80.3546 62.5899 80.3724C62.6106 80.3901 62.6346 80.4035 62.6604 80.412C62.713 80.4284 62.77 80.4237 62.8191 80.3989C62.8683 80.374 62.9059 80.331 62.9239 80.279Z" fill="#3A307F"/>
<path d="M65.4164 81.4746C65.7754 80.908 66.1863 80.376 66.6439 79.8856C66.9031 79.5959 67.2265 79.3709 67.5881 79.2283C67.9498 79.0858 68.3397 79.0297 68.7269 79.0646C69.7709 79.0776 71.8639 79.6216 74.0119 78.8646C74.7908 78.6036 75.4741 78.1162 75.9744 77.4646C76.0099 77.4166 76.0259 77.357 76.0192 77.2977C76.0124 77.2383 75.9833 77.1838 75.9379 77.1451C75.9155 77.1261 75.8895 77.1118 75.8615 77.1031C75.8334 77.0944 75.8039 77.0914 75.7747 77.0944C75.7455 77.0973 75.7171 77.1061 75.6914 77.1202C75.6657 77.1344 75.643 77.1535 75.6249 77.1766C74.9697 77.786 74.1561 78.1985 73.2774 78.3671C69.4374 79.2441 67.1394 76.5471 65.0549 81.2776C65.0419 81.3013 65.0338 81.3274 65.0309 81.3543C65.0281 81.3812 65.0305 81.4083 65.0382 81.4343C65.0458 81.4602 65.0585 81.4844 65.0755 81.5054C65.0924 81.5264 65.1134 81.5439 65.1371 81.5569C65.1609 81.5698 65.1869 81.5779 65.2138 81.5808C65.2407 81.5837 65.2679 81.5812 65.2938 81.5736C65.3197 81.5659 65.3439 81.5533 65.3649 81.5363C65.386 81.5193 65.4034 81.4983 65.4164 81.4746Z" fill="#3A307F"/>
<path d="M65.1029 71.4455C65.5278 71.6645 65.9275 71.9292 66.2949 72.235C66.5374 72.385 66.8449 72.6445 67.0414 72.4605C67.2024 72.2885 66.8664 71.866 66.8249 71.8145C66.4758 71.4507 66.0639 71.1531 65.6089 70.936C65.3164 70.8065 64.7724 70.6995 64.6939 70.936C64.6499 71.0735 64.6934 71.1605 65.1029 71.4455Z" fill="#3A307F"/>
<path d="M67.222 70.2501C68.0145 71.1671 68.311 72.1206 68.667 71.9546C69.178 71.7401 68.217 70.2981 67.776 69.8436C67.5325 69.5936 67.038 69.2676 66.873 69.4671C66.7375 69.6326 67.071 70.1001 67.222 70.2501Z" fill="#3A307F"/>
<path d="M64.5373 65.123C65.4873 65.273 65.4638 65.2045 67.3543 65.0675C68.1055 65.0858 68.8563 65.0211 69.5933 64.8745C69.6494 64.8652 69.6999 64.8353 69.7349 64.7905C69.7699 64.7458 69.7869 64.6895 69.7823 64.6329C69.7778 64.5763 69.7521 64.5234 69.7105 64.4848C69.6688 64.4462 69.6141 64.4246 69.5573 64.4245C68.8106 64.3371 68.0573 64.3193 67.3073 64.3715C66.3709 64.3841 65.4385 64.4974 64.5263 64.7095C64.4716 64.7119 64.4199 64.7351 64.3817 64.7745C64.3436 64.8138 64.322 64.8662 64.3213 64.921C64.3219 64.9485 64.3281 64.9756 64.3393 65.0008C64.3506 65.0259 64.3667 65.0485 64.3868 65.0674C64.407 65.0862 64.4306 65.1008 64.4565 65.1103C64.4823 65.1199 64.5098 65.1242 64.5373 65.123Z" fill="#3A307F"/>
<path d="M56.2671 83.5345C56.2663 84.4316 56.3427 85.327 56.4956 86.211C56.6416 86.6865 56.6371 86.893 56.8806 86.874C56.9402 86.8684 56.9951 86.8395 57.0335 86.7937C57.0719 86.7478 57.0906 86.6886 57.0856 86.629C57.1396 85.926 57.1856 86.5495 57.0131 84.6855C56.9331 83.823 56.9381 82.7315 56.5916 82.7215C56.3501 82.7145 56.2671 83.3965 56.2671 83.5345Z" fill="#3A307F"/>
<path d="M63.7771 43.0897C63.9296 43.0994 64.0811 43.0247 64.1984 42.8822C64.3156 42.7397 64.389 42.541 64.4024 42.3297C64.4158 42.1185 64.368 41.9121 64.2697 41.7559C64.1714 41.5998 64.0305 41.5066 63.878 41.4969C63.8025 41.4921 63.7265 41.508 63.6542 41.5436C63.5819 41.5792 63.5148 41.6339 63.4567 41.7044C63.3987 41.775 63.3508 41.8601 63.3158 41.9549C63.2808 42.0497 63.2593 42.1523 63.2527 42.2569C63.2461 42.3615 63.2544 42.466 63.2771 42.5645C63.2999 42.6629 63.3367 42.7534 63.3854 42.8307C63.4341 42.9081 63.4937 42.9707 63.5609 43.0152C63.6282 43.0596 63.7016 43.0849 63.7771 43.0897Z" fill="#3A307F"/>
<path d="M59.1401 64.1441C59.1401 64.2388 59.1564 64.3325 59.1881 64.42C59.2198 64.5075 59.2662 64.587 59.3247 64.6539C59.3832 64.7209 59.4526 64.774 59.529 64.8102C59.6055 64.8464 59.6874 64.8651 59.7701 64.8651C59.8529 64.8651 59.9348 64.8464 60.0112 64.8102C60.0877 64.774 60.1571 64.7209 60.2156 64.6539C60.2741 64.587 60.3205 64.5075 60.3522 64.42C60.3838 64.3325 60.4001 64.2388 60.4001 64.1441C60.4001 64.0494 60.3838 63.9557 60.3522 63.8682C60.3205 63.7807 60.2741 63.7012 60.2156 63.6343C60.1571 63.5673 60.0877 63.5142 60.0112 63.478C59.9348 63.4417 59.8529 63.4231 59.7701 63.4231C59.6874 63.4231 59.6055 63.4417 59.529 63.478C59.4526 63.5142 59.3832 63.5673 59.3247 63.6343C59.2662 63.7012 59.2198 63.7807 59.1881 63.8682C59.1564 63.9557 59.1401 64.0494 59.1401 64.1441Z" fill="#3A307F"/>
<path d="M58.5742 70.2061C58.5742 70.3973 58.6406 70.5807 58.7587 70.7159C58.8769 70.8511 59.0371 70.9271 59.2042 70.9271C59.3713 70.9271 59.5315 70.8511 59.6497 70.7159C59.7678 70.5807 59.8342 70.3973 59.8342 70.2061C59.8342 70.0149 59.7678 69.8315 59.6497 69.6963C59.5315 69.5611 59.3713 69.4851 59.2042 69.4851C59.0371 69.4851 58.8769 69.5611 58.7587 69.6963C58.6406 69.8315 58.5742 70.0149 58.5742 70.2061Z" fill="#3A307F"/>
<path d="M26.2057 27.3001C26.2531 27.3014 26.2998 27.2876 26.3388 27.2606C26.3778 27.2336 26.4072 27.1949 26.4227 27.1501H26.4002C27.5332 23.4151 30.8817 21.0431 32.1552 17.6501C32.5987 16.4261 32.7447 15.1143 32.5814 13.8227C32.418 12.5312 31.9499 11.2971 31.2157 10.2221C31.187 10.174 31.1466 10.1339 31.0982 10.1056C31.0499 10.0773 30.9952 10.0616 30.9392 10.0601C27.7512 9.93406 13.5392 10.0731 10.5932 10.8071C10.548 10.8186 10.5056 10.8392 10.4684 10.8674C10.4313 10.8956 10.4001 10.931 10.3768 10.9714C10.3535 11.0118 10.3385 11.0565 10.3328 11.1028C10.327 11.1492 10.3306 11.1961 10.3432 11.2411C11.5067 15.5631 9.09672 17.1911 6.64722 20.7091C5.28103 22.5752 4.44486 24.776 4.22722 27.0786C4.21999 27.1667 4.2472 27.2543 4.30314 27.3228C4.35908 27.3913 4.43939 27.4355 4.52722 27.4461C6.69722 27.6531 8.87222 27.4616 11.0642 27.4281C15.1002 27.3636 26.2057 27.3501 26.2057 27.3001ZM30.7322 10.7361C27.1027 10.6126 14.5392 10.8011 11.1087 11.4161C12.1587 15.8161 9.51872 17.7851 7.20872 21.1031C5.99822 22.7843 5.21705 24.7359 4.93322 26.7881C6.95472 26.9461 9.05572 26.7686 11.0487 26.7501C12.7342 26.7346 25.2307 26.8471 26.0487 26.8616C27.6402 21.5216 33.2847 18.9571 31.6952 12.9226C31.4869 12.1487 31.1622 11.4109 30.7322 10.7346V10.7361Z" fill="#EA3934"/>
<path d="M29.3498 54.5115C29.3867 54.5134 29.4234 54.5055 29.4561 54.4885C29.4889 54.4715 29.5165 54.4461 29.5362 54.4148C29.5558 54.3836 29.5668 54.3477 29.568 54.3108C29.5692 54.2739 29.5605 54.2374 29.5428 54.205H29.5303C28.3698 52.038 27.8498 49.261 27.2998 46.826C26.3158 42.471 25.3293 36.395 26.2763 32.015C26.2862 31.9663 26.2853 31.9161 26.2736 31.8678C26.262 31.8195 26.2399 31.7744 26.2089 31.7356C26.1779 31.6967 26.1388 31.6652 26.0943 31.6432C26.0498 31.6211 26.001 31.6091 25.9513 31.608C23.6763 31.5855 14.6013 31.677 12.3358 31.7285C9.3173 31.7975 6.1968 32.01 3.1858 31.757C3.0967 31.7503 3.00843 31.778 2.93908 31.8344C2.86973 31.8907 2.82455 31.9714 2.8128 32.06C1.7728 40.0355 3.3998 47.6195 6.8348 55.0685C6.86371 55.1323 6.91154 55.1858 6.97182 55.2215C7.03209 55.2573 7.1019 55.2737 7.1718 55.2685C14.9023 54.696 29.3498 54.579 29.3498 54.5115ZM25.5313 32.291C23.4123 32.2755 8.6768 32.562 6.8348 32.576C5.7033 32.5845 4.5848 32.563 3.4638 32.482C2.5293 40.122 4.1313 47.4775 7.3523 54.568C13.5198 54.144 22.8403 54.058 28.9863 54.076C27.8258 51.815 27.3743 49.5555 26.7473 46.955C25.6243 42.3 24.7573 36.996 25.5313 32.291Z" fill="#EA3934"/>
<path d="M44.1553 67.45C42.6473 64.86 41.6718 60.944 38.2683 60.137C37.8285 60.036 37.3719 60.0331 36.9308 60.1285C36.2453 60.0615 36.1938 60.0285 32.1043 60.2745C31.2753 60.3285 30.5633 60.3745 30.5633 60.6395C30.5633 60.915 31.1463 60.931 31.7433 60.9525C32.4563 60.976 34.6713 60.8365 35.3743 60.791C33.4383 62.008 32.3743 64.1515 30.0338 61.0645C29.6145 60.4766 29.2326 59.8629 28.8903 59.227C28.8586 59.1696 28.8111 59.1225 28.7534 59.0913C28.6957 59.0601 28.6302 59.0461 28.5648 59.051C23.6018 59.4475 20.6278 60.101 14.8403 60.1255C8.66832 60.15 8.62382 59.914 8.43582 60.2635C8.40523 60.3181 8.39017 60.3801 8.39229 60.4427C8.3944 60.5053 8.41361 60.5661 8.44782 60.6185C9.82582 62.7745 10.9513 64.035 14.0103 64.502C15.6523 64.752 17.6133 64.697 21.8363 64.512C22.2942 64.8324 22.6999 65.2215 23.0393 65.6655C23.3629 66.1659 23.6142 66.7094 23.7858 67.28C23.9318 67.7405 23.9693 67.7165 24.0743 68.0235C24.086 68.0821 24.1205 68.1337 24.1702 68.167C24.2198 68.2003 24.2807 68.2125 24.3393 68.201C24.3983 68.1888 24.4501 68.1541 24.4838 68.1042C24.5175 68.0543 24.5305 67.9933 24.5198 67.934C24.5137 67.6517 24.4816 67.3705 24.4238 67.094C24.2004 66.0675 23.6445 65.1434 22.8423 64.465C23.1973 64.4475 28.5528 64.115 30.8763 63.9625C30.9069 63.9621 30.9371 63.9556 30.965 63.9432C30.993 63.9309 31.0182 63.913 31.0391 63.8907C31.06 63.8684 31.0762 63.842 31.0867 63.8133C31.0971 63.7846 31.1017 63.7541 31.1001 63.7235C31.0985 63.693 31.0907 63.6631 31.0772 63.6356C31.0638 63.6082 31.0449 63.5837 31.0218 63.5637C30.9986 63.5438 30.9717 63.5286 30.9426 63.5193C30.9135 63.51 30.8828 63.5067 30.8523 63.5095C28.5288 63.6095 20.7878 63.9095 19.2348 63.9355C16.5228 63.9955 13.2528 64.27 11.0483 62.666C10.3914 62.136 9.82973 61.4978 9.38732 60.779C12.0788 60.795 14.7763 60.879 17.4653 60.7755C21.1463 60.633 24.7303 60.069 28.3963 59.7625C29.2643 61.3375 30.7078 63.5235 32.4898 63.3315C33.3323 63.24 34.1028 62.621 34.9218 61.959C35.8333 61.2 36.9783 60.5155 38.1358 60.7695C41.1933 61.436 42.2618 65.1865 43.8063 67.6635C43.8192 67.687 43.8368 67.7076 43.858 67.724C43.8791 67.7404 43.9034 67.7524 43.9294 67.7591C43.9553 67.7658 43.9824 67.7671 44.0088 67.763C44.0353 67.7588 44.0607 67.7493 44.0833 67.735C44.1304 67.7066 44.1644 67.6607 44.1779 67.6073C44.1914 67.554 44.1833 67.4974 44.1553 67.45Z" fill="#3A307F"/>
<path d="M85.7622 80.593C85.9787 79.5235 86.3522 78.451 86.5087 77.372C87.0494 73.7816 86.7904 70.1161 85.7502 66.6375C84.0682 61.1375 80.4857 56.9875 74.7947 55.1335C72.2067 54.2875 69.4142 53.9625 66.8087 53.5475C66.8447 53.1825 65.3312 51.8915 64.8267 51.6825C64.7733 51.6582 64.715 51.6467 64.6564 51.649C64.5978 51.6512 64.5405 51.6672 64.4892 51.6955C60.8892 53.6455 60.0017 54.13 59.5097 54.4575C59.4127 53.712 59.4057 53.1805 59.3367 52.4325C59.3373 52.4024 59.3312 52.3726 59.3187 52.3453C59.3062 52.3179 59.2878 52.2937 59.2647 52.2745C59.2433 52.2255 59.2037 52.1867 59.1543 52.1662C59.1048 52.1458 59.0494 52.1454 58.9997 52.165C58.1917 52.4365 56.7087 52.515 56.3097 53.6395C54.6364 53.727 52.9783 54.0034 51.3672 54.4635C47.9132 55.419 43.7067 57.608 42.4582 60.948C42.4388 60.9969 42.4391 61.0514 42.4588 61.1002C42.4786 61.149 42.5163 61.1883 42.5642 61.21C42.6122 61.2317 42.6666 61.2342 42.7163 61.2169C42.766 61.1995 42.8071 61.1638 42.8312 61.117C43.2851 60.2938 43.8708 59.5506 44.5652 58.917C47.6017 55.9095 51.9712 54.847 56.1712 54.1515C55.8853 55.4409 55.672 56.7452 55.5322 58.0585C55.5248 58.1273 55.5376 58.1968 55.569 58.2584C55.6004 58.3201 55.649 58.3714 55.709 58.4059C55.7689 58.4404 55.8376 58.4568 55.9067 58.453C55.9758 58.4492 56.0423 58.4254 56.0982 58.3845C57.0891 57.5829 58.037 56.7293 58.9377 55.8275C57.4302 61.254 56.6842 67.8915 56.3752 73.4705C56.2572 75.8515 56.4037 76.402 56.3632 78.2705C56.3613 78.3307 56.3832 78.3892 56.4241 78.4333C56.465 78.4775 56.5217 78.5038 56.5818 78.5065C56.6419 78.5091 56.7007 78.488 56.7454 78.4477C56.7901 78.4074 56.8172 78.3511 56.8207 78.291C57.1252 74.2285 56.8022 69.1025 59.4132 55.7745C60.1507 56.7515 61.1732 57.933 61.9252 58.8325C61.9565 58.8701 61.9956 58.9007 62.0397 58.922C62.0837 58.9434 62.1319 58.9551 62.1809 58.9564C62.2298 58.9576 62.2785 58.9485 62.3237 58.9294C62.3688 58.9104 62.4094 58.8819 62.4427 58.846C62.9552 58.307 64.1867 56.843 64.5257 56.4295C65.9572 54.613 66.3487 54.1855 66.5457 53.9295C69.4077 54.491 72.0702 54.8865 74.5902 55.7545C80.1227 57.6575 83.4552 61.5385 85.0902 66.846C86.0986 70.2256 86.3494 73.7859 85.8247 77.2735C85.6157 78.695 84.8572 80.7795 84.9337 81.7595C84.9647 82.4445 85.2727 83.3745 84.8972 84.021C84.7232 84.3125 84.5232 84.321 84.3677 84.1925C84.1722 84.008 84.0707 83.572 83.6452 82.4395C83.3565 81.726 83.0061 81.0391 82.5982 80.3865C81.1052 77.9125 78.9682 75.031 76.2537 76.0515C76.2248 76.0603 76.198 76.0748 76.1748 76.0942C76.1516 76.1135 76.1326 76.1373 76.1188 76.1642C76.105 76.191 76.0967 76.2204 76.0945 76.2505C76.0922 76.2806 76.0961 76.3109 76.1058 76.3395C76.1154 76.3681 76.1308 76.3945 76.1508 76.417C76.1709 76.4396 76.1953 76.4579 76.2225 76.4709C76.2498 76.4838 76.2794 76.4912 76.3096 76.4925C76.3398 76.4938 76.3699 76.489 76.3982 76.4785C78.8087 75.599 80.7677 78.5285 82.0442 80.7175C82.8297 82.07 82.8442 82.2635 83.5972 84.248C84.1512 85.422 85.6472 85.137 85.7642 83.389C85.8247 82.4205 85.4112 82.111 85.7622 80.593ZM56.7002 56.972C56.5797 57.077 56.4597 57.1805 56.3502 57.2825C56.466 56.1239 56.6665 54.9753 56.9502 53.846C57.1252 53.2575 58.1247 52.9735 58.8762 52.6655C58.8244 53.4204 58.8325 54.1783 58.9002 54.932C58.1692 55.5955 57.4467 56.308 56.7002 56.972ZM64.0682 55.9275C63.6542 56.414 62.4182 57.8465 62.2022 58.081C61.4792 57.221 60.4592 56.016 59.7942 55.112C60.5812 54.558 62.1547 53.794 63.9477 52.7505C64.7977 52.272 64.6512 52.2865 64.7302 52.32C65.3055 52.6291 65.8327 53.0204 66.2952 53.4815C65.5752 54.3345 65.5422 54.195 64.0682 55.9275Z" fill="#3A307F"/>
<path d="M74.8792 74.0345C75.0598 72.4996 74.8312 70.9442 74.2167 69.526C74.1992 69.5018 74.1868 69.4742 74.1803 69.445C74.1739 69.4158 74.1735 69.3856 74.1791 69.3562C74.1848 69.3268 74.1964 69.2989 74.2133 69.2742C74.2302 69.2495 74.2519 69.2285 74.2772 69.2125C74.3021 69.1962 74.3301 69.185 74.3594 69.1795C74.3887 69.1741 74.4188 69.1746 74.448 69.1809C74.4771 69.1872 74.5047 69.1993 74.5291 69.2164C74.5535 69.2335 74.5743 69.2553 74.5902 69.2805C75.6372 70.6305 75.7802 72.6085 75.5402 74.3085C75.532 74.3599 75.5126 74.4089 75.4835 74.4521C75.4544 74.4953 75.4163 74.5316 75.3717 74.5585C74.4057 75.071 74.1907 76.055 74.3482 77.1475C74.356 77.1737 74.3584 77.2012 74.3553 77.2283C74.3522 77.2554 74.3436 77.2816 74.3301 77.3053C74.3166 77.3291 74.2985 77.3498 74.2767 77.3663C74.255 77.3829 74.2302 77.3948 74.2037 77.4015C74.1774 77.4088 74.15 77.4107 74.123 77.4072C74.096 77.4037 74.0699 77.3948 74.0464 77.3811C74.0228 77.3674 74.0022 77.3492 73.9858 77.3275C73.9694 77.3057 73.9574 77.2809 73.9507 77.2545C73.4632 76.0145 73.6772 74.7935 74.8792 74.0345Z" fill="#3A307F"/>
<path d="M77.6838 74.1501C78.1505 74.1394 78.6164 74.1934 79.0683 74.3106C80.2518 74.6366 80.9488 75.4526 81.1993 75.1816C81.3993 74.9661 80.9398 74.5351 80.7173 74.3491C79.8376 73.6912 78.7426 73.3881 77.6498 73.5001C77.4628 73.5286 76.7898 73.6756 76.8188 73.9501C76.8568 74.1366 76.9878 74.1301 77.6838 74.1501Z" fill="#3A307F"/>
<path d="M10.2419 22.3404C12.2574 22.5649 11.7769 22.4199 14.0824 22.5904C15.3459 22.6829 15.9929 22.9009 17.2364 22.7234C17.2977 22.7222 17.3561 22.697 17.399 22.6531C17.4418 22.6092 17.4657 22.5502 17.4654 22.4889C17.4599 22.4289 17.4321 22.3732 17.3874 22.3327C17.3428 22.2923 17.2846 22.27 17.2244 22.2704C16.4274 22.2239 13.1744 21.5279 10.2299 21.9279C10.1752 21.9303 10.1235 21.9536 10.0854 21.9929C10.0472 22.0322 10.0256 22.0846 10.0249 22.1394C10.0257 22.1669 10.0319 22.194 10.0433 22.2191C10.0547 22.2442 10.0709 22.2668 10.0912 22.2855C10.1114 22.3042 10.1351 22.3187 10.161 22.3281C10.1869 22.3376 10.2144 22.3417 10.2419 22.3404Z" fill="#EA3934"/>
<path d="M9.17047 24.0404C9.73647 24.0604 10.302 24.1009 10.868 24.1284C11.0725 24.1379 20.0775 24.4474 20.258 24.4504C20.836 24.4594 21.414 24.4424 21.992 24.3954C22.0225 24.3958 22.0528 24.39 22.0811 24.3784C22.1093 24.3668 22.135 24.3496 22.1564 24.3278C22.1779 24.306 22.1947 24.2802 22.2059 24.2518C22.2171 24.2233 22.2225 24.193 22.2217 24.1624C22.2209 24.1319 22.2139 24.1018 22.2012 24.074C22.1885 24.0462 22.1703 24.0213 22.1478 24.0007C22.1252 23.9801 22.0987 23.9643 22.0699 23.9542C22.041 23.9441 22.0105 23.9399 21.98 23.9419C21.3895 23.9419 20.8 23.8584 20.2105 23.8024C17.8005 23.5829 12.1425 23.4304 10.6995 23.5024C10.182 23.5274 9.66397 23.5774 9.15847 23.6264C9.12958 23.6245 9.10061 23.6287 9.07342 23.6387C9.04623 23.6486 9.02143 23.6642 9.00059 23.6843C8.97975 23.7044 8.96334 23.7286 8.95241 23.7554C8.94147 23.7823 8.93626 23.811 8.9371 23.84C8.93794 23.8689 8.94481 23.8974 8.95728 23.9235C8.96975 23.9497 8.98753 23.9729 9.0095 23.9918C9.03147 24.0106 9.05713 24.0247 9.08485 24.0331C9.11257 24.0415 9.14173 24.0439 9.17047 24.0404Z" fill="#F8D3D2"/>
<path d="M6.45023 35.4344C8.15823 35.4304 16.0697 35.5734 17.7792 35.4799C18.3087 35.4524 18.8142 35.4029 19.3322 35.3529C19.3923 35.3513 19.4493 35.3259 19.4906 35.2823C19.532 35.2387 19.5543 35.1805 19.5527 35.1204C19.5511 35.0603 19.5257 35.0034 19.4821 34.962C19.4385 34.9207 19.3803 34.8983 19.3202 34.8999C19.2702 34.8999 13.2702 34.7359 10.3027 34.7539C9.00134 34.7313 7.70042 34.8203 6.41423 35.0199C6.36029 35.0266 6.31074 35.053 6.27518 35.0941C6.23962 35.1352 6.22058 35.1881 6.22173 35.2424C6.22681 35.2981 6.25368 35.3495 6.29647 35.3854C6.33926 35.4214 6.39452 35.439 6.45023 35.4344Z" fill="#F8D3D2"/>
<path d="M16.3698 40.2C18.2823 40.1765 17.6473 40.129 19.2108 40.043C22.3748 39.868 20.9833 40.0035 22.3048 39.8305C22.365 39.8288 22.4222 39.804 22.4647 39.7613C22.5072 39.7186 22.5317 39.6613 22.5333 39.601C22.5321 39.5412 22.5075 39.4843 22.4648 39.4424C22.422 39.4005 22.3646 39.377 22.3048 39.377C21.1012 39.2304 19.8843 39.2304 18.6808 39.377C17.8699 39.3933 17.0662 39.5329 16.2973 39.791C16.2455 39.8032 16.2003 39.8347 16.171 39.8791C16.1418 39.9235 16.1306 39.9775 16.1399 40.0299C16.1492 40.0822 16.1782 40.1291 16.2209 40.1607C16.2637 40.1924 16.317 40.2064 16.3698 40.2Z" fill="#F8D3D2"/>
<path d="M16.5002 42.5616C16.8642 42.6686 16.7002 42.6881 17.7527 42.6861C18.1734 42.7405 18.6009 42.6983 19.0027 42.5626C19.061 42.5599 19.116 42.5348 19.1563 42.4925C19.1966 42.4503 19.2191 42.3942 19.2191 42.3358C19.2191 42.2775 19.1966 42.2214 19.1563 42.1791C19.116 42.1369 19.061 42.1118 19.0027 42.1091C18.8339 42.0464 18.6566 42.0097 18.4767 42.0001C17.9393 41.9705 17.4006 41.9752 16.8637 42.0141C16.731 42.0447 16.6018 42.0889 16.4782 42.1461C16.4245 42.1511 16.3748 42.1764 16.339 42.2168C16.3033 42.2572 16.2842 42.3097 16.2857 42.3636C16.2882 42.4182 16.3121 42.4696 16.3523 42.5067C16.3924 42.5438 16.4456 42.5635 16.5002 42.5616Z" fill="#EA3934"/>
<path d="M7.77415 48.532C8.15115 48.5625 8.71315 48.613 9.26715 48.6185C10.3892 48.6295 16.1417 48.3445 16.4172 48.3245C16.8262 48.294 17.2357 48.2485 17.6572 48.2165C17.7173 48.2152 17.7746 48.1908 17.8171 48.1484C17.8597 48.1059 17.8842 48.0486 17.8857 47.9885C17.8827 47.9292 17.8576 47.8731 17.8153 47.8313C17.773 47.7896 17.7165 47.7652 17.6572 47.763C17.1517 47.732 16.6572 47.693 16.1642 47.686C14.9542 47.669 9.29665 47.9615 9.01415 47.986C8.59265 48.0215 8.18365 48.077 7.77415 48.117C7.72161 48.1207 7.67241 48.1441 7.63648 48.1826C7.60055 48.2211 7.58057 48.2718 7.58057 48.3245C7.58057 48.3772 7.60055 48.4279 7.63648 48.4664C7.67241 48.5049 7.72161 48.5284 7.77415 48.532Z" fill="#F8D3D2"/>
<path d="M8.64029 51.1435C9.66379 51.2355 9.18179 51.2325 11.5658 51.0985C12.4594 51.0845 13.3516 51.0234 14.2388 50.9155C14.2695 50.917 14.3001 50.9122 14.3289 50.9014C14.3576 50.8907 14.3839 50.8742 14.4061 50.853C14.4284 50.8318 14.446 50.8063 14.4581 50.7781C14.4702 50.7499 14.4764 50.7195 14.4764 50.6888C14.4764 50.6581 14.4702 50.6277 14.4581 50.5995C14.446 50.5712 14.4284 50.5457 14.4061 50.5245C14.3839 50.5033 14.3576 50.4869 14.3289 50.4761C14.3001 50.4654 14.2695 50.4606 14.2388 50.462C13.9401 50.4088 13.6386 50.3726 13.3358 50.3535C12.7518 50.329 10.6783 50.4155 9.61579 50.5355C9.27922 50.582 8.9454 50.6466 8.61579 50.729C8.56112 50.7328 8.51015 50.758 8.47407 50.7992C8.43798 50.8405 8.41972 50.8944 8.42329 50.949C8.42775 51.003 8.45272 51.0533 8.49308 51.0895C8.53343 51.1256 8.58611 51.145 8.64029 51.1435Z" fill="#EA3934"/>
<path d="M27.5659 66.2641C27.8994 66.2401 28.7329 66.2076 29.0949 66.1836C34.5024 65.8261 34.4004 66.1211 37.1489 65.7211C37.2087 65.7148 37.2639 65.6864 37.304 65.6416C37.344 65.5968 37.3659 65.5387 37.3654 65.4786C37.3593 65.4174 37.3294 65.361 37.282 65.3217C37.2347 65.2824 37.1737 65.2633 37.1124 65.2686C36.3409 65.2686 36.3664 65.2321 35.1024 65.2531C30.6734 65.3271 29.3689 65.3591 27.4939 65.8531C27.4394 65.8626 27.3909 65.8935 27.3592 65.9387C27.3274 65.984 27.3149 66.0401 27.3244 66.0946C27.334 66.1491 27.3648 66.1976 27.4101 66.2294C27.4554 66.2611 27.5114 66.2736 27.5659 66.2641Z" fill="#8580AE"/>
<path d="M29.4199 68.1435C30.3294 68.1468 31.2381 68.0934 32.1409 67.9835C32.9791 67.9682 33.8154 67.8979 34.6444 67.773C34.6751 67.7744 34.7057 67.7696 34.7345 67.7589C34.7633 67.7481 34.7896 67.7317 34.8118 67.7105C34.834 67.6893 34.8517 67.6638 34.8638 67.6356C34.8758 67.6073 34.8821 67.577 34.8821 67.5462C34.8821 67.5155 34.8758 67.4852 34.8638 67.4569C34.8517 67.4287 34.834 67.4032 34.8118 67.382C34.7896 67.3608 34.7633 67.3443 34.7345 67.3336C34.7057 67.3229 34.6751 67.3181 34.6444 67.3195C33.7636 67.182 32.8674 67.1728 31.9839 67.292C31.4944 67.325 30.5304 67.416 30.1299 67.501C29.8685 67.5617 29.6113 67.6392 29.3599 67.733C29.3046 67.7411 29.2547 67.7705 29.2208 67.815C29.187 67.8595 29.1719 67.9155 29.1789 67.971C29.1897 68.0249 29.2206 68.0728 29.2654 68.1048C29.3101 68.1368 29.3654 68.1507 29.4199 68.1435Z" fill="#8580AE"/>
<path d="M14.5402 44.6961C14.0648 42.7822 13.7504 40.8319 13.6002 38.8656C13.5958 38.7794 13.5582 38.6981 13.4953 38.639C13.4324 38.5798 13.349 38.5472 13.2627 38.5481C11.8182 38.5661 7.02666 38.6441 6.06266 38.6736C5.97497 38.6768 5.89167 38.7127 5.82925 38.7744C5.76684 38.8361 5.72987 38.919 5.72566 39.0066C5.68859 41.0722 6.06162 43.1247 6.82316 45.0451C6.96216 45.4046 7.40266 45.2586 8.59316 45.2671C9.12216 45.2671 9.66416 45.2786 10.1932 45.2741C10.3117 45.2741 12.9967 45.1971 13.0467 45.1941C13.4872 45.1787 13.924 45.1075 14.3467 44.9821C14.3794 44.9786 14.4109 44.968 14.4391 44.9511C14.4672 44.9342 14.4914 44.9113 14.5098 44.884C14.5282 44.8568 14.5405 44.8259 14.5457 44.7934C14.551 44.761 14.5491 44.7278 14.5402 44.6961ZM13.9737 44.3961C12.7552 43.6411 11.4882 42.8151 10.3302 41.9521C12.2802 40.0866 12.0302 40.4271 12.9682 39.4221C13.1344 41.1111 13.4713 42.779 13.9737 44.4001V44.3961ZM12.3502 39.2441C11.4474 39.9572 10.5834 40.718 9.76166 41.5231C8.41166 40.4906 8.84466 40.7641 6.83916 39.3521C8.66516 39.3001 10.6417 39.2706 12.3502 39.2441ZM6.42366 39.6941C6.87966 40.1631 6.90516 40.1896 9.26516 42.0156C8.51648 42.7293 7.8658 43.5392 7.33016 44.4241C6.77503 42.9064 6.46842 41.309 6.42216 39.6936L6.42366 39.6941ZM7.88516 44.5976C8.63516 43.7361 9.22666 43.0436 9.82766 42.4476C10.9358 43.3257 12.1374 44.0789 13.4107 44.6936C13.2372 44.6956 9.40616 44.5686 7.88366 44.5971L7.88516 44.5976Z" fill="#F8D3D2"/>
<path d="M29.5999 13.6959C29.5933 13.6116 29.5547 13.533 29.492 13.4763C29.4294 13.4195 29.3474 13.3888 29.2629 13.3904C25.9899 13.3784 15.5334 13.0154 13.8169 13.3404C13.7472 13.3536 13.6828 13.3867 13.6315 13.4356C13.5802 13.4846 13.5442 13.5474 13.5279 13.6164C13.1649 15.6191 12.3543 17.514 11.1564 19.1594C11.1193 19.2104 11.0966 19.2704 11.0908 19.3332C11.085 19.396 11.0963 19.4592 11.1235 19.5161C11.1506 19.573 11.1926 19.6215 11.2451 19.6565C11.2975 19.6915 11.3584 19.7117 11.4214 19.7149C14.1974 19.8904 16.9139 19.8689 19.6679 19.9839C22.9859 20.0839 26.7839 20.5169 27.0594 20.2304C27.9204 19.3825 28.5919 18.3617 29.0298 17.2354C29.4677 16.1091 29.662 14.9028 29.5999 13.6959ZM27.5154 14.0339C23.8724 15.0234 23.6874 14.9959 20.0654 16.2134C16.6999 14.5899 19.1134 15.6999 15.2794 13.9299C18.0424 13.8439 24.3654 13.9909 27.5159 14.0339H27.5154ZM14.1574 14.0339C14.6171 14.2405 15.0624 14.4777 15.4904 14.7439L19.1254 16.5299C15.0354 17.9054 14.4864 17.8869 12.2674 18.7764C13.1728 17.3195 13.8128 15.7137 14.1579 14.0334L14.1574 14.0339ZM19.6924 19.3189C17.7659 19.2294 13.2189 19.1104 12.8654 19.0949C15.3829 18.4139 15.4479 18.4949 20.0154 16.9649C21.2984 17.5884 25.6559 19.6574 26.0264 19.8289C23.8949 19.6924 21.7999 19.4409 19.6924 19.3189ZM26.9324 19.7464C24.9674 18.5564 22.8614 17.5544 20.9699 16.6464C25.5259 15.1369 26.4034 15.1599 28.9634 14.0794C29.026 16.1571 28.3005 18.1815 26.9324 19.7464Z" fill="#F8D3D2"/>
<path d="M75.9866 89.2746C75.9866 89.2746 78.7556 89.2636 79.4056 89.2451C79.6651 89.2381 93.7271 88.5876 97.2831 88.3451C97.3424 88.3403 97.3977 88.3132 97.438 88.2694C97.4782 88.2255 97.5004 88.1681 97.5001 88.1086C97.4962 88.0481 97.4688 87.9916 97.4238 87.9511C97.3787 87.9107 97.3196 87.8895 97.2591 87.8921C90.2401 88.0871 77.6091 88.6951 75.9746 88.8576C75.9188 88.8596 75.8661 88.8836 75.8279 88.9242C75.7896 88.9648 75.7689 89.0188 75.7701 89.0746C75.7741 89.1291 75.7987 89.1801 75.8389 89.2172C75.8791 89.2543 75.9319 89.2748 75.9866 89.2746Z" fill="#3A307F"/>
<path d="M83.1135 85.0275C82.1564 85.7746 81.1419 86.4452 80.0795 87.033C77.323 88.572 74.3955 89.5145 71.2295 89.1565C67.3635 88.7175 63.984 86.3915 61.502 83.4285C61.141 83 60.888 82.6785 60.78 82.5195C60.716 82.4255 60.6289 82.3494 60.527 82.2985C58.617 81.7575 57.9325 81.64 56.9515 81.417C56.8977 81.4046 56.8411 81.4137 56.7938 81.4423C56.7465 81.471 56.7124 81.517 56.6985 81.5705C56.6877 81.6243 56.6979 81.6802 56.727 81.7267C56.7561 81.7732 56.8019 81.8068 56.855 81.8205C57.767 82.0705 58.925 82.4165 60.25 82.8705C61.8321 85.1326 63.9143 86.9994 66.335 88.326C65.994 88.3155 63.47 88.2465 62.4205 88.297C62.278 87.597 61.4205 87.3785 60.7075 87.3945L54.074 87.266C53.724 86.04 49.68 72.0915 49.474 71.4355C49.3055 70.8079 48.9318 70.2546 48.4126 69.8637C47.8934 69.4729 47.2583 69.2669 46.6085 69.2785C46.2585 69.2875 20.135 69.452 19.497 69.448C18.4855 69.4425 17.9625 69.7865 17.691 70.1885C17.5289 70.4874 17.438 70.8198 17.4255 71.1596C17.413 71.4994 17.4793 71.8375 17.619 72.1475C17.619 72.0975 18.264 73.864 24.0045 88.312C22.432 88.253 12.386 88.3525 9.48052 88.649C9.42718 88.6517 9.3769 88.6747 9.34008 88.7134C9.30325 88.752 9.28271 88.8034 9.28271 88.8568C9.28271 88.9102 9.30325 88.9615 9.34008 89.0002C9.3769 89.0389 9.42718 89.0619 9.48052 89.0645C12.608 89.2425 22.2305 88.944 24.186 88.7775C24.3916 89.1197 24.6844 89.401 25.0346 89.5927C25.3847 89.7843 25.7795 89.8793 26.1785 89.868H60.745C61.1694 89.7757 61.576 89.6153 61.949 89.393C62.137 89.2729 62.2842 89.0985 62.371 88.893C63.4145 88.9695 66.7285 89.0795 67.766 88.993C72.0015 90.685 76.46 89.998 80.3925 87.576C81.4485 86.9196 82.4544 86.186 83.402 85.381C83.4451 85.3416 83.4715 85.2873 83.4758 85.229C83.48 85.1708 83.4618 85.1131 83.4249 85.0679C83.388 85.0227 83.3351 84.9933 83.2772 84.9858C83.2193 84.9783 83.1608 84.9932 83.1135 85.0275ZM61.4555 88.8835C60.9205 89.14 63.0555 89.024 26.1815 89.503C25.8022 89.482 25.4358 89.3577 25.122 89.1435C24.4175 88.648 24.988 89.6435 18.236 71.9065C18.224 71.9065 18.224 71.9 18.224 71.9C18.1581 71.7149 18.1135 71.5228 18.091 71.3275C18.0185 70.587 18.3525 70.1095 19.488 70.121C20.3305 70.1285 46.6235 69.978 46.6235 69.978C47.1177 69.9707 47.6004 70.1273 47.996 70.4235C48.3883 70.7349 48.6709 71.1634 48.8025 71.6465C49.007 72.3005 53.4855 87.7075 53.4855 87.7075C53.5046 87.7793 53.5469 87.8427 53.6057 87.8879C53.6646 87.9331 53.7368 87.9576 53.811 87.9575C53.811 87.9575 60.711 88.088 60.721 88.0875C60.9595 88.076 61.7445 88.1175 61.7445 88.5105C61.7565 88.7065 61.6 88.8105 61.4555 88.8835Z" fill="#3A307F"/>
<path d="M69.654 35.1999C69.2973 34.4313 68.7554 33.7632 68.077 33.2554C67.1915 32.7691 66.1979 32.5131 65.1875 32.5109C63.8659 32.4196 62.5402 32.6177 61.303 33.0916C60.0659 33.5654 58.947 34.3036 58.0245 35.2544C55.7305 37.5604 55.093 40.8904 54.244 44.0159C53.577 46.6591 52.5906 49.2113 51.3065 51.6159C51.2801 51.6643 51.2655 51.7182 51.2638 51.7733C51.2622 51.8284 51.2736 51.8831 51.2971 51.9329C51.3205 51.9828 51.3555 52.0264 51.399 52.0602C51.4425 52.094 51.4934 52.117 51.5475 52.1274C54.224 52.7074 57.681 51.9529 60.011 50.3679C60.011 51.6749 60.035 51.9754 60.035 52.6344C60.0314 52.6951 60.0521 52.7547 60.0925 52.8001C60.1328 52.8456 60.1896 52.8731 60.2503 52.8767C60.3109 52.8803 60.3705 52.8596 60.416 52.8192C60.4614 52.7789 60.4889 52.7221 60.4925 52.6614C60.6045 51.6754 60.6305 51.0804 60.657 50.6089C60.7762 50.6509 60.8981 50.6843 61.022 50.7089C61.6305 50.8369 62.656 50.7589 62.575 50.3459C62.5435 50.0244 61.6925 50.1419 61.1665 50.0229C59.555 49.6764 58.8355 48.1699 58.7345 46.5194C58.619 44.1829 59.395 41.9924 59.8785 39.9194C61.495 39.6389 63.269 39.7844 64.9105 39.8444C64.9922 39.8469 65.0722 39.8204 65.1362 39.7696C65.2002 39.7188 65.2443 39.647 65.2605 39.5669C65.452 38.7595 65.8223 38.0053 66.344 37.3599C66.2946 38.2358 66.5734 39.0986 67.126 39.7799C67.0925 40.6203 67.1167 41.4619 67.1985 42.2989C67.1932 42.3481 67.1978 42.3978 67.2119 42.4452C67.226 42.4926 67.2495 42.5367 67.2809 42.5749C67.3122 42.6131 67.3509 42.6447 67.3946 42.6678C67.4384 42.6909 67.4863 42.7051 67.5355 42.7094C67.8855 42.7184 68.282 42.6504 68.655 42.6709C69.97 42.7484 69.637 44.6234 68.198 44.8319C67.528 44.9319 67.3615 44.7539 67.1505 44.9354C67.1145 44.9656 67.0851 45.003 67.0644 45.0452C67.0436 45.0874 67.0319 45.1335 67.03 45.1804C66.9883 46.1367 66.6976 47.0654 66.1866 47.8747C65.6755 48.684 64.962 49.3457 64.1165 49.7944C64.0649 49.8117 64.0198 49.8445 63.9875 49.8884C63.9552 49.9322 63.9372 49.985 63.936 50.0394L63.9 51.3429C63.8956 51.3988 63.9136 51.454 63.95 51.4966C63.9864 51.5392 64.0382 51.5656 64.094 51.5699C64.1499 51.5743 64.2051 51.5563 64.2477 51.5199C64.2903 51.4836 64.3166 51.4318 64.321 51.3759L64.4655 50.2579C65.2723 49.9298 65.9702 49.3808 66.479 48.6739C66.767 48.7029 66.9325 48.7239 68.379 48.7904C69.0045 48.8194 70.04 48.9459 70.7025 48.6359C70.8853 48.5565 71.0445 48.4313 71.1647 48.2723C71.2849 48.1133 71.362 47.926 71.3885 47.7284C71.3907 47.6897 71.3867 47.6509 71.3765 47.6134C71.6725 46.3354 71.5905 45.0734 71.6535 43.7394C71.7825 40.8764 72.7065 35.7289 69.654 35.1999ZM58.7345 37.6899C56.7115 40.6664 55.969 45.2359 55.1845 47.9764C55.028 48.5079 54.8345 49.0124 54.667 49.4989C54.6505 49.5521 54.6139 49.5966 54.5649 49.6231C54.516 49.6495 54.4586 49.6558 54.4051 49.6405C54.3516 49.6252 54.3062 49.5896 54.2786 49.5413C54.2511 49.493 54.2435 49.4358 54.2575 49.3819C54.7278 46.8883 55.3225 44.4197 56.0395 41.9854C56.599 40.2469 57.198 38.7559 58.3895 37.4124C58.4263 37.366 58.4801 37.3361 58.5389 37.3293C58.5977 37.3225 58.6569 37.3394 58.7033 37.3762C58.7497 37.413 58.7796 37.4667 58.7864 37.5255C58.7932 37.5844 58.7763 37.6435 58.7395 37.6899H58.7345ZM61.7445 35.2189C61.3484 35.5578 60.9257 35.8643 60.4805 36.1354C60.4388 36.1709 60.3861 36.1908 60.3313 36.1916C60.2766 36.1925 60.2233 36.1742 60.1805 36.1399C59.8805 35.8349 60.941 35.0399 61.5045 34.8329C61.797 34.7259 61.971 35.0129 61.7445 35.2189Z" fill="#3A307F"/>
</svg>
