<svg width="100" height="100" viewBox="0 0 100 100" fill="none" xmlns="http://www.w3.org/2000/svg">
<path d="M93.4639 84.5814C93.0764 78.0759 86.7304 64.2224 75.7719 63.7859C75.2134 64.9724 73.3824 67.8584 71.6104 69.3624C70.5524 68.7014 68.4139 67.2124 67.2864 65.0189C67.0154 66.0104 64.7019 67.8359 63.1514 68.5294C61.3169 69.3499 60.8074 69.0154 60.2454 66.8239C55.7134 69.6104 48.2264 76.7209 48.4314 84.6739C48.6099 91.6159 56.9814 88.8394 58.2654 87.8344C57.9349 86.6709 57.4129 81.9204 57.1184 78.5024C55.8622 78.7352 54.65 79.1623 53.5254 79.7684C53.3079 79.8854 53.1619 79.5894 53.3599 79.4379C54.5784 78.5054 55.7004 78.2114 57.0624 77.8449C56.9534 76.5224 56.8824 75.4714 56.8804 75.0514C56.8744 73.5474 57.5749 72.5129 59.2674 72.2944C60.9599 72.0759 81.0644 71.9179 82.6909 71.9179C84.3174 71.9179 85.0069 72.6384 85.0709 74.3309C85.0914 74.8764 84.9814 76.3144 84.8029 78.0494C85.6694 78.0659 87.9764 78.6809 88.6474 79.1494C89.0374 79.4204 88.7184 79.6159 88.5089 79.5299C87.3065 79.0456 86.0385 78.7436 84.7469 78.6339C84.3699 82.2104 83.7554 86.7954 83.4414 88.0019C87.4809 89.7119 93.7839 89.9534 93.4639 84.5814Z" fill="#EA3934"/>
<path d="M76.7741 33.6751C76.6191 33.4216 73.6105 33.2686 73.2635 33.1431C72.9165 33.0176 71.6106 29.5396 71.3361 29.5396C71.0616 29.5396 70.3446 32.9546 70.0141 33.1431C69.6836 33.3316 66.4771 33.4736 66.4771 33.6751C66.4771 34.1146 68.8901 35.525 69.0456 36.0585C69.2011 36.592 68.1366 39.5326 68.4171 39.6946C68.6976 39.8566 71.3001 37.9921 71.6306 38.0001C71.9611 38.0081 74.6486 40.2476 74.8371 40.0001C75.0256 39.7526 73.9311 36.2716 74.1161 36.0336C74.3011 35.7956 76.9336 33.9371 76.7741 33.6751Z" fill="#EA3934"/>
<path d="M63.9313 33.6254C63.8748 33.3099 60.9893 33.6254 60.6753 33.4369C60.3613 33.2484 59.6828 30.0829 59.1083 30.2734C58.7343 30.3974 58.5793 33.2484 58.0473 33.5789C57.5153 33.9094 54.8208 33.7974 54.6623 34.1739C54.5038 34.5504 57.2623 35.8964 57.3268 36.3029C57.3913 36.7094 56.3548 39.4029 56.5728 39.7029C56.7908 40.0029 58.9863 37.8089 59.3928 37.8389C59.7993 37.8689 62.2093 39.8454 62.4603 39.4389C62.7113 39.0324 61.6473 36.7114 61.6143 36.3049C61.5813 35.8984 63.9873 33.9384 63.9313 33.6254Z" fill="#EA3934"/>
<path d="M81.4708 36.0999C81.5023 36.3809 80.4063 39.1079 80.7503 39.1809C81.0943 39.2539 83.3948 37.3529 83.7253 37.3559C84.0558 37.3589 86.6048 39.6404 86.9518 39.4219C87.2988 39.2034 85.7288 36.0719 85.8543 35.7859C85.9798 35.4999 88.3598 34.0274 88.3268 33.7759C88.2938 33.5244 85.1963 33.5579 84.9453 33.4024C84.6943 33.2469 83.5038 30.0969 83.1953 30.0969C82.8868 30.0969 82.3818 33.1909 82.1638 33.3469C81.9458 33.5029 78.7823 33.5719 78.8583 33.9719C78.9343 34.3719 81.4393 35.8169 81.4708 36.0999Z" fill="#EA3934"/>
<path d="M53.8458 26.105C59.239 22.4555 64.4053 18.4815 69.3163 14.205C69.0288 15.5935 68.3243 18.2395 68.6913 18.241C69.4648 18.2445 75.2193 9.08353 74.6843 8.88303C74.3533 8.75853 64.0778 13.0475 64.2453 13.547C64.3748 13.9335 67.2453 13.504 68.6548 13.385C63.8931 17.5358 58.8884 21.3993 53.6673 24.955C50.9425 22.4977 48.3484 19.8991 45.8958 17.17C45.8013 17.0692 45.6715 17.0087 45.5335 17.0014C45.3955 16.994 45.26 17.0403 45.1553 17.1305C38.2053 22.8805 31.3718 28.526 24.7498 34.409C24.2773 34.829 24.9363 35.5445 25.4108 35.1295C31.9358 29.4265 38.8283 23.8375 45.4693 18.2295C47.9223 21.1715 50.6838 23.3465 53.2048 25.991C53.2848 26.077 53.3906 26.1347 53.5062 26.1552C53.6219 26.1758 53.7411 26.1582 53.8458 26.105Z" fill="#EA3934"/>
<path d="M97.166 89.927C65.9975 90.085 34.029 90.3085 2.7545 90.317C2.4005 90.317 2.424 90.9365 2.774 90.9415C33.928 91.401 65.968 90.845 97.09 90.6915C97.5795 90.688 97.662 89.9245 97.166 89.927Z" fill="#3A307F"/>
<path d="M72.8136 54.9929C72.6731 55.2504 72.8361 55.4224 73.0881 55.2429C73.1728 55.1822 73.2714 55.1438 73.3748 55.1311C73.4782 55.1185 73.5832 55.132 73.6801 55.1704C74.0106 55.2464 74.0101 55.0089 73.8121 54.8234C73.7406 54.7562 73.6545 54.7064 73.5606 54.678C73.4666 54.6496 73.3674 54.6434 73.2707 54.6598C73.1739 54.6763 73.0823 54.7149 73.003 54.7727C72.9237 54.8305 72.8588 54.9058 72.8136 54.9929Z" fill="#3A307F"/>
<path d="M72.9064 57.5086C71.5869 58.7976 70.1649 58.0516 70.9094 58.9366C71.9699 60.1971 73.3899 59.7866 73.4514 57.6806C73.4679 57.1186 73.2809 57.1426 72.9064 57.5086ZM71.2534 58.7221C71.5832 58.7142 71.9082 58.6408 72.2095 58.5063C72.5107 58.3718 72.7823 58.1789 73.0084 57.9386C72.9584 59.4591 71.8714 59.5151 71.2734 58.7221H71.2534Z" fill="#3A307F"/>
<path d="M69.9115 55.0061C69.8744 54.9182 69.8166 54.8407 69.743 54.78C69.6694 54.7193 69.5822 54.6773 69.4888 54.6577C69.3955 54.638 69.2988 54.6413 69.2069 54.6671C69.1151 54.693 69.0309 54.7407 68.9615 54.8061C68.7615 54.9516 68.747 55.1896 68.998 55.1366C69.1039 55.1083 69.2146 55.1033 69.3226 55.1221C69.4305 55.141 69.533 55.1831 69.623 55.2456C69.862 55.4561 70.0095 55.2501 69.9115 55.0061Z" fill="#3A307F"/>
<path d="M69.4584 53C68.6084 53 67.6994 54.1085 68.1824 54.3455C68.4864 54.4955 68.4239 53.8265 69.5049 53.6215C69.5672 53.5938 69.6195 53.5475 69.6545 53.4889C69.6895 53.4304 69.7055 53.3624 69.7004 53.2944C69.6953 53.2264 69.6693 53.1616 69.626 53.1089C69.5827 53.0562 69.5242 53.0181 69.4584 53Z" fill="#3A307F"/>
<path d="M72.6648 53.671C73.1164 53.5892 73.5823 53.6625 73.9868 53.879C74.2208 54.003 74.4298 53.77 74.1688 53.489C73.9529 53.3053 73.6987 53.172 73.4248 53.0988C73.1509 53.0256 72.8641 53.0144 72.5853 53.066C72.1393 53.178 72.1753 53.7105 72.6648 53.671Z" fill="#3A307F"/>
<path d="M71.1874 57.4194C71.3162 57.3877 71.439 57.3352 71.5509 57.2639C71.8859 57.0494 71.6224 56.8139 71.4509 56.8934C71.3247 56.9522 71.1894 56.9892 71.0509 57.0029C71.0832 56.4345 71.1471 55.8682 71.2424 55.3069C71.2699 55.1419 71.0924 54.9069 70.9119 55.2739C70.73 55.759 70.6187 56.2677 70.5814 56.7844C70.5064 57.2999 70.5419 57.5794 71.1874 57.4194Z" fill="#3A307F"/>
<path d="M31.844 44.3755C33.0225 43.3155 34.865 40.5255 35.6715 38.6005C36.617 38.663 36.508 37.9215 36.141 38.012C34.381 38.446 34.435 35.3265 36.012 35.057C36.693 34.9405 36.819 35.657 36.812 36.1445C36.8075 36.475 37.2355 36.551 37.2485 36.207C37.272 35.5825 37.2055 34.769 36.5245 34.5015C38.8055 27.196 49.4 29.9315 46.005 38.1C44.945 40.65 42.263 45.524 38.865 44.7675C37.543 44.473 36.389 43.396 36.376 42.0105C36.3725 41.65 35.929 41.6505 35.936 42.0105C35.9564 42.7522 36.215 43.4676 36.6734 44.051C37.1318 44.6344 37.7657 45.0548 38.4815 45.25C38.2629 45.9085 38.1177 46.5892 38.0485 47.2795C38.0542 47.3317 38.0783 47.3802 38.1165 47.4163C38.1546 47.4524 38.2044 47.4738 38.2568 47.4766C38.3092 47.4794 38.361 47.4635 38.4028 47.4317C38.4446 47.3999 38.4737 47.3543 38.485 47.303C38.556 46.9725 38.7955 45.8415 38.964 45.353C42.3425 45.8555 44.63 42.0705 45.949 39.479C51.2915 28.979 38.0155 26.2895 36.032 34.438C34.277 34.588 33.553 37.684 35.176 38.4705C34.2404 40.509 33.0156 42.4018 31.5395 44.0905C31.358 44.326 31.614 44.582 31.844 44.3755Z" fill="#3A307F"/>
<path d="M41.6916 37.9231C41.3341 37.7616 40.7591 38.7621 41.2221 38.8731C41.7501 38.9966 42.0151 38.0691 41.6916 37.9231Z" fill="#3A307F"/>
<path d="M40.9344 41.0529C41.1232 41.2897 41.3892 41.4525 41.6859 41.5131C41.9825 41.5736 42.291 41.5279 42.5574 41.3839C43.1674 40.9944 43.4499 40.0614 43.3539 39.1754C43.358 39.1229 43.3416 39.0708 43.3082 39.03C43.2747 38.9892 43.2269 38.9628 43.1746 38.9564C43.1222 38.9499 43.0694 38.9639 43.0271 38.9954C42.9848 39.0269 42.9563 39.0735 42.9474 39.1254C42.8709 39.7229 42.8634 40.4379 42.3789 40.8699C41.8599 41.3329 41.4104 40.8269 41.1059 40.7079C40.9374 40.6169 40.6539 40.7614 40.9344 41.0529Z" fill="#3A307F"/>
<path d="M38.6499 39.2945C36.8169 41.562 38.6329 43.318 40.1344 42.6795C40.1916 42.6566 40.2406 42.6171 40.2751 42.5662C40.3096 42.5152 40.3281 42.455 40.3281 42.3935C40.3281 42.3319 40.3096 42.2717 40.2751 42.2207C40.2406 42.1698 40.1916 42.1303 40.1344 42.1075C39.7257 41.8399 39.4106 41.4517 39.2328 40.9967C39.055 40.5417 39.0234 40.0427 39.1424 39.569C39.2454 39.156 38.9559 38.916 38.6499 39.2945ZM39.7179 42.359C38.7889 42.468 37.8269 41.526 38.6964 39.9625C38.6273 40.4161 38.6863 40.88 38.8668 41.3018C39.0473 41.7237 39.3421 42.0867 39.7179 42.35V42.359Z" fill="#3A307F"/>
<path d="M45.2286 38.4451C45.3476 38.6451 45.5356 38.6006 45.5821 38.3491C45.6068 38.1191 45.5534 37.8875 45.4305 37.6915C45.3076 37.4955 45.1224 37.3466 44.9046 37.2686C44.6546 37.2091 44.4811 37.7081 44.7096 37.8186C44.9543 37.9558 45.1393 38.1791 45.2286 38.4451Z" fill="#3A307F"/>
<path d="M42.3999 36.1081C42.1366 36.0092 41.8528 35.9773 41.5741 36.0153C41.2954 36.0534 41.0306 36.1602 40.8034 36.3261C40.4729 36.6041 40.6679 36.9876 41.1009 36.7926C41.2718 36.7036 41.46 36.653 41.6524 36.6444C41.8448 36.6358 42.0368 36.6693 42.2149 36.7426C42.5934 36.8616 42.7224 36.2866 42.3999 36.1081Z" fill="#3A307F"/>
<path d="M44.4782 39.2155C44.1062 38.968 43.5422 40.079 44.0647 40.184C44.3657 40.244 44.7337 39.3855 44.4782 39.2155Z" fill="#3A307F"/>
<path d="M36.3128 66.8835C36.1683 67.452 35.4003 67.5705 34.9078 67.743C34.7293 67.8055 34.6138 68.352 35.3908 68.2285C35.7368 68.1962 36.0618 68.0482 36.3131 67.8083C36.5645 67.5683 36.7275 67.2506 36.7758 66.9065C36.7903 66.65 36.3858 66.596 36.3128 66.8835Z" fill="#3A307F"/>
<path d="M36.6572 68.883C36.7097 68.5095 36.4187 68.328 36.2107 68.665C35.8607 69.2335 35.7807 69.3975 35.0967 69.565C34.5412 69.703 34.7362 70.147 35.1197 70.147C35.4827 70.1469 35.8344 70.0208 36.1148 69.7903C36.3952 69.5598 36.5869 69.2391 36.6572 68.883Z" fill="#3A307F"/>
<path d="M36.1001 65.5001C34.7716 65.8601 34.1166 65.7251 32.9136 65.5861C32.7186 65.5636 32.2951 65.9861 32.9436 66.2076C33.8616 66.5196 35.6381 66.4506 36.2656 66.0986C36.6001 65.9126 36.4636 65.4026 36.1001 65.5001Z" fill="#3A307F"/>
<path d="M35.9956 70.75C36.1486 70.5255 35.8456 70.2675 35.6651 70.4425C34.2651 71.7925 32.5886 72.2 29.5596 71.92C29.2621 71.8925 29.2291 72.46 29.5236 72.512C31.8231 72.9195 34.5906 72.8145 35.9956 70.75Z" fill="#3A307F"/>
<path d="M30.0683 65.462C29.8133 65.6075 29.9563 66.035 30.4418 65.9975C31.132 65.8462 31.748 65.4594 32.1843 64.9035C33.0343 63.9405 33.3088 62.186 32.9773 60.89C32.8523 60.401 32.4273 60.444 32.4488 60.864C32.5998 63.674 32.1083 64.3 30.0683 65.462Z" fill="#3A307F"/>
<path d="M58.3614 65.5709C57.8259 65.9014 58.1614 66.3319 58.4904 66.2054C58.9334 66.0344 60.1404 65.7839 60.4739 65.9744C61.1694 66.3744 61.2579 67.5219 61.3764 67.8649C61.4539 68.0904 61.8549 68.1724 61.8424 67.7149C61.8179 66.8454 61.3364 65.7314 60.7644 65.4469C60.3757 65.3067 59.963 65.2455 59.5504 65.2668C59.1378 65.2881 58.7336 65.3915 58.3614 65.5709Z" fill="#3A307F"/>
<path d="M61.0819 64.956C61.5319 65.05 62.4854 65.256 62.9729 67.141C63.2049 68.041 63.6409 67.6985 63.4784 66.941C63.0784 65.0795 61.9314 64.433 61.2904 64.441C60.7744 64.442 60.5964 64.855 61.0819 64.956Z" fill="#3A307F"/>
<path d="M63.5581 64.9231C63.9075 65.3268 64.1588 65.806 64.2921 66.3231C64.4351 66.8586 64.8871 66.7596 64.7481 65.9926C64.6036 65.4284 64.3297 64.9055 63.9481 64.4656C63.7391 64.2541 63.4898 64.0867 63.215 63.9731C62.9402 63.8596 62.6454 63.8023 62.3481 63.8046C62.3155 63.7985 62.2821 63.7989 62.2498 63.8057C62.2174 63.8126 62.1867 63.8257 62.1594 63.8444C62.1321 63.8631 62.1087 63.887 62.0906 63.9148C62.0726 63.9425 62.0602 63.9735 62.0541 64.0061C62.048 64.0386 62.0484 64.072 62.0552 64.1044C62.0621 64.1368 62.0752 64.1675 62.0939 64.1948C62.1127 64.2221 62.1366 64.2455 62.1643 64.2635C62.192 64.2816 62.223 64.294 62.2556 64.3001C62.7443 64.3662 63.1999 64.5841 63.5581 64.9231Z" fill="#3A307F"/>
<path d="M54.1702 70.1691C54.125 70.2095 54.0967 70.2655 54.0909 70.3259C54.0852 70.3863 54.1023 70.4466 54.139 70.495C54.1756 70.5433 54.2291 70.576 54.2888 70.5867C54.3486 70.5974 54.4101 70.5852 54.4612 70.5526C55.3732 70.2486 56.8612 68.0296 57.1422 67.2026C57.3682 66.5411 56.8422 66.4816 56.5537 66.9451C55.6622 68.3826 55.2147 69.4356 54.1702 70.1691Z" fill="#3A307F"/>
<path d="M57.2408 64.5631C58.8638 64.0211 61.9088 63.1401 64.2618 63.8026C64.6638 63.8762 65.0415 64.0481 65.361 64.303C65.6806 64.558 65.9321 64.8879 66.0933 65.2636C66.2663 65.6861 66.5433 65.3896 66.5063 65.1136C66.3753 64.1556 65.2858 63.4636 64.4138 63.2296C62.6368 62.7506 59.3883 63.1761 57.0193 64.0656C56.7088 64.1801 56.9633 64.6556 57.2408 64.5631Z" fill="#3A307F"/>
<path d="M68.5891 61.558C68.5579 62.4335 68.4135 63.3012 68.1596 64.1396C68.0466 64.5186 68.4681 64.5351 68.5496 64.3181C68.8972 63.3624 69.0957 62.359 69.1381 61.343C70.5001 62.7645 72.3281 62.887 73.8021 61.548C73.8573 62.29 74.0017 63.0226 74.2321 63.73C74.4196 64.2995 74.9466 64.1715 74.7871 63.667C74.5674 62.9798 74.4048 62.2756 74.3011 61.5616C76.0466 61.5876 79.6201 61.2541 81.5011 60.1466C79.9167 57.4442 78.9841 54.4097 78.7771 51.2841C78.5451 47.6751 75.9606 45.397 74.1491 46.7455C72.1396 43.7455 66.0391 44.6666 64.7546 51.2216C63.8801 55.6841 62.8546 58.4506 61.7266 59.6871C63.8001 60.9261 66.1736 61.5732 68.5891 61.558ZM67.5316 52.7121C67.1632 52.6705 66.7977 52.6066 66.4371 52.5206C66.1626 52.4546 66.2021 52.1276 66.4736 52.1571C69.7003 52.4877 72.9538 52.4565 76.1736 52.064C76.4236 52.035 76.5061 52.2941 76.2531 52.3786C75.9096 52.4892 75.5546 52.5601 75.1951 52.5901C75.4447 54.1906 75.4056 55.8228 75.0796 57.4096C74.9057 58.5902 74.4523 59.7122 73.7571 60.682C71.7256 63.1485 69.0316 61.349 68.1011 58.2655C67.642 56.452 67.4502 54.5811 67.5316 52.7121Z" fill="#3A307F"/>
<path d="M38.3689 88.2776C38.6258 88.3444 38.8938 88.3567 39.1557 88.3136C39.4176 88.2706 39.6675 88.1731 39.8894 88.0276C40.0484 88.8011 40.2209 89.3471 40.3624 89.3991C40.6954 89.5221 44.4224 89.6246 44.7259 89.2871C45.2324 88.7226 45.8529 81.6641 45.6449 81.1616C45.4369 80.6591 39.5884 80.9116 39.2549 81.1616C39.1497 81.5945 39.1317 82.0441 39.2019 82.4841C38.8697 82.3165 38.4974 82.2445 38.1267 82.276C37.7559 82.3075 37.4012 82.4413 37.1019 82.6626C35.4609 83.8806 36.7194 87.8316 38.3689 88.2776ZM37.7079 83.1471C37.9591 83.0089 38.2485 82.9561 38.5323 82.9967C38.8161 83.0372 39.079 83.169 39.2814 83.3721C39.3814 84.5521 39.5524 85.9996 39.7509 87.1801C39.6151 87.3658 39.4234 87.5031 39.2039 87.5721C38.9844 87.6411 38.7486 87.6381 38.5309 87.5636C37.4104 87.1331 36.3689 83.9206 37.6914 83.1471H37.7079Z" fill="#3A307F"/>
<path d="M37.6321 67.7231C39.3451 65.5701 41.0896 61.9991 41.0371 58.4176C41.0311 58.0376 40.5436 58.0246 40.5441 58.4176C40.5526 61.8356 38.6466 65.1801 37.2686 67.4456C37.1331 67.6681 37.4576 67.9426 37.6321 67.7231Z" fill="#3A307F"/>
<path d="M51.8528 71.7826C48.5808 73.5126 42.0363 75.5736 39.6218 71.6826C39.0024 70.5326 38.5567 69.2972 38.2993 68.0166C38.2825 67.955 38.2424 67.9024 38.1875 67.87C38.1325 67.8375 38.0671 67.8278 38.0051 67.8428C37.9431 67.8579 37.8894 67.8965 37.8554 67.9506C37.8215 68.0046 37.8099 68.0697 37.8233 68.1321C38.0878 70.3401 38.9378 72.9146 41.0928 73.9566C43.8798 75.3066 49.3628 74.0736 52.1268 72.3536C52.4933 72.1231 52.2223 71.5866 51.8528 71.7826Z" fill="#3A307F"/>
<path d="M8.69468 68.2091C13.3477 72.0591 21.6947 73.7591 27.5367 73.4551C27.7413 73.4566 27.9406 73.3902 28.1034 73.2664C28.2663 73.1425 28.3835 72.9682 28.4367 72.7706C28.8767 71.4706 29.2232 67.2371 29.0367 65.5611C28.9507 64.7911 28.7592 64.6886 27.9757 64.5431C24.767 64.0326 21.6265 63.1604 18.6142 61.9431C19.9792 58.3801 20.7297 57.2826 22.6072 55.0676C22.7727 54.8726 22.5547 54.5096 22.3072 54.6841C20.6242 55.8841 18.6072 59.5201 18.1072 61.7251C17.6141 61.5171 17.1594 61.2278 16.7622 60.8691C16.5947 60.7156 16.2267 60.8691 16.5207 61.2856C17.7947 63.0926 26.2757 64.9681 28.4207 65.2521C28.6657 67.2951 28.3052 70.4256 27.7367 72.8021C22.0312 73.1331 13.5952 71.4801 9.03018 67.7081C7.08968 66.1051 6.33018 64.7831 6.68318 62.2936C7.65818 55.4311 13.6277 44.9736 21.3172 44.1361C24.2408 43.8126 27.1926 43.8381 30.1102 44.2121C30.3447 47.6831 36.5792 50.5521 39.2502 48.5091C41.0894 49.2215 42.6583 50.4935 43.7357 52.1456C45.8417 55.3516 46.7802 60.7036 47.4152 64.5681C46.9434 64.5291 46.4687 64.5435 46.0002 64.6111C45.8002 64.6611 45.6702 65.0046 45.9372 65.0571C48.5872 65.5776 52.7932 64.5316 55.3487 64.4356C54.4827 65.4486 53.3817 68.6381 54.2892 68.4301C54.3399 68.4187 54.3861 68.3923 54.4217 68.3545C54.4574 68.3166 54.4809 68.2689 54.4892 68.2176C54.5582 67.0144 54.9929 65.861 55.7352 64.9116C56.2237 64.2776 56.1517 63.7146 55.2062 63.7516C52.9652 63.8391 50.6382 64.4951 48.0727 64.5481C47.4282 60.5616 46.6182 55.4311 44.2977 51.8581C42.8832 49.6796 41.9142 49.2731 39.7162 48.0581C39.3032 47.8301 39.0952 47.8241 38.7972 48.0416C36.6472 49.6106 31.0117 47.0661 30.6127 44.0551C30.5732 43.7576 30.5127 43.5581 30.0627 43.4931C27.1491 43.1 24.1967 43.0867 21.2797 43.4536C13.2002 44.4036 7.09318 54.8276 6.07018 62.1201C5.69718 64.7766 6.65768 66.5241 8.69468 68.2091Z" fill="#3A307F"/>
<path d="M34.1052 73.0386C34.2247 72.7081 33.6792 72.5131 33.5332 72.8236C32.5467 74.9186 31.3947 79.5075 31.4937 81.7485C22.7567 81.9935 15.6937 80.1391 7.88467 76.5721C8.10273 74.2384 8.63088 71.9442 9.45517 69.7501C9.48356 69.6819 9.48402 69.6053 9.45645 69.5368C9.42889 69.4683 9.37551 69.4133 9.30782 69.3838C9.24012 69.3543 9.16355 69.3526 9.09459 69.379C9.02563 69.4054 8.96981 69.4579 8.93917 69.5251C8.02531 71.7113 7.47814 74.0333 7.31967 76.3976C7.27417 76.9596 7.46517 77.0421 7.76267 77.2006C14.5732 80.8351 23.5237 82.5611 31.2657 82.3971C32.9952 82.3601 30.9917 81.6206 34.1052 73.0386Z" fill="#3A307F"/>
<path d="M7.55419 77.9175C6.92269 82.2445 7.22369 87.428 7.31969 89.2295H32.1117C31.8207 87.147 31.7812 84.5055 31.6292 82.9485C21.5932 83.127 14.5002 81.3455 7.55419 77.9175Z" fill="#3A307F"/>
<path d="M57.6999 75.3999C57.6999 76.3914 58.6559 88.6209 59.4549 89.0754C60.1169 89.4509 81.8474 89.2439 82.3049 89.0754C82.7624 88.9069 84.2124 76.6524 84.2549 74.7719C84.2974 72.8914 83.2629 72.6429 82.0829 72.6594C80.9029 72.6759 61.2574 72.9899 59.4524 73.1024C57.6474 73.2149 57.6999 74.3999 57.6999 75.3999ZM70.7704 79.5749C72.1419 79.4294 73.6529 80.2359 73.5669 81.8724C73.4809 83.5089 72.5024 84.1694 70.9784 84.3349C69.8249 84.4604 68.2589 83.6739 68.1224 82.4144C67.9484 80.8079 69.1934 79.7434 70.7804 79.5749H70.7704Z" fill="#3A307F"/>
</svg>
