<svg width="94" height="109" viewBox="0 0 94 109" fill="none" xmlns="http://www.w3.org/2000/svg">
<path d="M9.57152 57.7941C9.12555 57.7941 8.69985 57.6319 8.35523 57.3278C7.99034 57.0035 7.74709 56.5372 7.72682 56.0507C7.72682 56.0102 7.72682 55.9493 7.72682 55.9088C7.05786 55.7872 6.40917 55.5642 5.80102 55.2601C5.78075 55.3007 5.74021 55.3412 5.69967 55.3817C5.37532 55.7466 4.90908 55.9696 4.42256 56.0102C3.93604 56.0507 3.44952 55.8885 3.08464 55.5642C2.31432 54.8952 2.23323 53.7195 2.90219 52.9492C2.92247 52.9086 2.96301 52.8883 3.00355 52.8478C2.61839 52.2802 2.31432 51.6721 2.1116 51.0234C2.07106 51.0234 2.01025 51.0234 1.9697 51.0234C1.48319 51.0639 0.99667 50.9017 0.631783 50.5774C0.266895 50.2531 0.0439088 49.7868 0.00336572 49.3003C-0.0574489 48.2664 0.712869 47.3948 1.74672 47.3137C1.78726 47.3137 1.84808 47.3137 1.88862 47.3137C2.01025 46.6447 2.23323 45.996 2.53731 45.3879C2.49676 45.3676 2.45622 45.3271 2.41568 45.3068C1.64536 44.6378 1.56427 43.4621 2.23323 42.6918C2.55758 42.3269 3.02382 42.1039 3.51034 42.0634C3.99686 42.0228 4.48337 42.185 4.84826 42.5093C4.8888 42.5296 4.90907 42.5701 4.94962 42.6107C5.51722 42.2255 6.12536 41.9215 6.77405 41.7187C6.77405 41.6782 6.77405 41.6174 6.77405 41.5768C6.71324 40.543 7.48356 39.6713 8.49713 39.5902C9.00392 39.5497 9.47017 39.7119 9.83505 40.0362C10.1999 40.3605 10.4432 40.8065 10.4635 41.3133C10.4635 41.3539 10.4635 41.4147 10.4635 41.4552C11.1324 41.5768 11.7811 41.7998 12.3893 42.1039C12.4095 42.0634 12.4501 42.0228 12.4906 41.9823C12.815 41.6174 13.2812 41.3944 13.7677 41.3539C14.2745 41.3133 14.7408 41.4755 15.1057 41.7998C15.876 42.4688 15.9571 43.6445 15.2881 44.4149C15.2678 44.4554 15.2273 44.4757 15.1867 44.5162C15.5719 45.0838 15.876 45.692 16.0787 46.3406C16.1192 46.3406 16.18 46.3406 16.2206 46.3406C16.7071 46.3001 17.1936 46.4623 17.5585 46.7866C17.9234 47.111 18.1666 47.5772 18.1869 48.0637C18.2477 49.0976 17.4774 49.9692 16.4638 50.0503C16.4233 50.0503 16.3625 50.0503 16.3219 50.0503C16.2003 50.7193 15.9773 51.368 15.6733 51.9761C15.7138 51.9964 15.7543 52.0369 15.7949 52.0572C16.5652 52.7262 16.6463 53.9019 15.9773 54.6722C15.653 55.0371 15.1867 55.2601 14.7002 55.3007C14.2137 55.3412 13.7272 55.179 13.3623 54.8547C13.3218 54.8344 13.3015 54.7939 13.2609 54.7533C12.6933 55.1385 12.0852 55.4426 11.4365 55.6453C11.4365 55.6858 11.4365 55.7466 11.4365 55.7872C11.4973 56.821 10.727 57.6927 9.71342 57.7738C9.67288 57.7738 9.63234 57.7738 9.5918 57.7738L9.57152 57.7941ZM5.76048 55.0574C5.76048 55.0574 5.78075 55.0574 5.80102 55.0574C6.42944 55.3817 7.11867 55.625 7.8079 55.7466C7.84844 55.7466 7.88899 55.7872 7.88899 55.848C7.88899 55.9291 7.88899 55.9899 7.88899 56.0507C7.90926 56.4967 8.11197 56.9021 8.45659 57.2062C8.80121 57.5103 9.22691 57.6522 9.67288 57.6116C10.5851 57.5508 11.2946 56.7602 11.2338 55.8277C11.2338 55.7669 11.2338 55.7061 11.2135 55.625C11.2135 55.5845 11.2135 55.5439 11.2743 55.5236C11.9636 55.3007 12.592 54.9966 13.1799 54.5912C13.2204 54.5709 13.2609 54.5709 13.3015 54.5912C13.342 54.652 13.4028 54.6925 13.4434 54.7331C13.788 55.0371 14.2137 55.179 14.6597 55.1385C15.1057 55.0979 15.5111 54.9155 15.8152 54.5709C16.4233 53.8817 16.3625 52.8073 15.653 52.1991C15.6124 52.1586 15.5516 52.118 15.4908 52.0775C15.4503 52.0572 15.4503 51.9964 15.4705 51.9559C15.7949 51.3274 16.0179 50.6382 16.1598 49.949C16.1598 49.9084 16.2003 49.8679 16.2611 49.8679C16.3422 49.8679 16.403 49.8679 16.4638 49.8679C17.3761 49.8071 18.0856 49.0165 18.0247 48.084C18.0045 47.638 17.8018 47.2326 17.4571 46.9285C17.1125 46.6244 16.6868 46.4825 16.2409 46.5231C16.18 46.5231 16.1192 46.5231 16.0381 46.5434C15.9976 46.5434 15.9571 46.5434 15.9368 46.4825C15.7138 45.7933 15.4097 45.1649 15.0043 44.577C14.984 44.5365 14.984 44.4959 15.0043 44.4554C15.0651 44.4149 15.1056 44.354 15.1462 44.3135C15.7543 43.6243 15.6935 42.5499 14.984 41.9417C14.6394 41.6377 14.2137 41.4958 13.7677 41.5363C13.3218 41.5768 12.9163 41.7593 12.6123 42.1039C12.5717 42.1444 12.5312 42.2053 12.4906 42.2661C12.4704 42.3066 12.4095 42.3066 12.369 42.2863C11.7406 41.962 11.0513 41.7187 10.3621 41.5971C10.3216 41.5971 10.281 41.5566 10.281 41.4958C10.281 41.4147 10.281 41.3539 10.281 41.293C10.2608 40.8471 10.058 40.4416 9.71342 40.1376C9.36881 39.8335 8.94311 39.6916 8.49713 39.7321C7.58491 39.7929 6.87541 40.5835 6.93623 41.516C6.93623 41.5768 6.93623 41.6377 6.9565 41.7187C6.9565 41.7593 6.9565 41.7998 6.89568 41.8201C6.20645 42.0431 5.57804 42.3472 4.99016 42.7729C4.94962 42.7931 4.90907 42.7931 4.86853 42.7729C4.82799 42.712 4.76717 42.6715 4.72663 42.631C4.38202 42.3269 3.95631 42.185 3.51034 42.2255C3.06437 42.2661 2.65894 42.4485 2.35486 42.7931C1.74672 43.4824 1.80753 44.5568 2.51703 45.1649C2.55758 45.2054 2.61839 45.246 2.67921 45.2865C2.71975 45.3068 2.71975 45.3676 2.69948 45.4082C2.37513 46.0366 2.15215 46.7258 2.01025 47.415C2.01025 47.4556 1.9697 47.4961 1.90889 47.4961C1.8278 47.4961 1.76699 47.4961 1.70617 47.4961C0.773684 47.5569 0.0844512 48.3475 0.145266 49.28C0.165537 49.726 0.368253 50.1314 0.712869 50.4355C1.05748 50.7396 1.48319 50.8815 1.92916 50.8409C1.98998 50.8409 2.05079 50.8409 2.13188 50.8207C2.17242 50.8207 2.21296 50.8207 2.23323 50.8815C2.45622 51.5707 2.76029 52.1991 3.16572 52.787C3.18599 52.8275 3.18599 52.8681 3.16572 52.9086C3.10491 52.9492 3.06437 53.01 3.02382 53.0505C2.41568 53.7398 2.47649 54.8141 3.18599 55.4223C3.53061 55.7264 3.95631 55.8683 4.40229 55.8277C4.84826 55.7872 5.25369 55.6047 5.55776 55.2601C5.5983 55.2196 5.63885 55.1588 5.67939 55.0979C5.67939 55.0777 5.71993 55.0574 5.76048 55.0574ZM9.08501 52.0572C8.27415 52.0572 7.48356 51.7734 6.85514 51.2261C6.16591 50.6382 5.76048 49.8071 5.71993 48.9151C5.59831 47.0501 7.01731 45.4487 8.86202 45.3271C9.75397 45.2663 10.6256 45.5703 11.3149 46.1582C11.9838 46.7461 12.4095 47.5772 12.4501 48.4692C12.5717 50.3341 11.1527 51.9356 9.30799 52.0572C9.22691 52.0572 9.14582 52.0572 9.08501 52.0572ZM9.10528 45.4892C9.02419 45.4892 8.96338 45.4892 8.88229 45.4892C7.11867 45.6109 5.78075 47.1312 5.90238 48.8949C5.96319 49.7463 6.34835 50.5369 6.97677 51.0842C7.62546 51.6518 8.43632 51.9153 9.28772 51.8748C11.0513 51.7531 12.3893 50.2328 12.2676 48.4692C12.2068 47.6178 11.8217 46.8272 11.1932 46.2798C10.6054 45.773 9.8756 45.4892 9.08501 45.4892H9.10528Z" fill="#3A307F"/>
<path d="M84.2317 82.9312H23.4779C22.7481 82.9312 22.2211 82.3433 22.2819 81.6135L29.8432 3.56814C29.9242 2.83836 30.5527 2.25049 31.2824 2.25049H92.0362C92.766 2.25049 93.293 2.83836 93.2119 3.56814L85.6507 81.6135C85.5898 82.3433 84.9412 82.9312 84.2114 82.9312H84.2317Z" fill="#FDFDFD"/>
<path d="M84.2317 83.0526H23.4779C23.0928 83.0526 22.7481 82.9107 22.5049 82.6269C22.2616 82.3431 22.14 81.9985 22.1805 81.6134L29.7418 3.56799C29.8229 2.7774 30.5121 2.14899 31.3027 2.14899H92.0565C92.4416 2.14899 92.7863 2.29089 93.0295 2.57469C93.2728 2.83822 93.3944 3.20311 93.3538 3.58826L85.7926 81.6336C85.7115 82.4242 85.0223 83.0526 84.2317 83.0526ZM31.2824 2.37197C30.6135 2.37197 30.0256 2.9193 29.9648 3.58826L22.4035 81.6336C22.3833 81.958 22.4643 82.2418 22.6671 82.485C22.8698 82.708 23.1536 82.8297 23.4779 82.8297H84.2317C84.9006 82.8297 85.4885 82.2823 85.5493 81.6134L93.1106 3.56799C93.1511 3.24365 93.0498 2.95985 92.8471 2.71659C92.6443 2.4936 92.3605 2.37197 92.0362 2.37197H31.2824Z" fill="#3A307F"/>
<path d="M74.1162 6.79096H48.3308C45.9793 6.79096 44.236 4.88544 44.4792 2.51367L44.7225 0H79.0624L78.8192 2.51367C78.5962 4.88544 76.4879 6.79096 74.1364 6.79096H74.1162Z" fill="#D4D2E1"/>
<path d="M41.2561 39.4888H33.4718C33.4313 39.4888 33.411 39.4888 33.3907 39.4483C33.3705 39.428 33.3502 39.3875 33.3705 39.3672L34.1205 31.5829C34.1205 31.5221 34.1813 31.4816 34.2421 31.4816H41.5804C41.6412 31.4816 41.7021 31.5424 41.7021 31.6032C41.7021 31.664 41.6412 31.7248 41.5804 31.7248H34.3638L33.634 39.2658H41.175L41.7223 33.6912C41.7223 33.6304 41.7831 33.5695 41.844 33.5898C41.9048 33.5898 41.9453 33.6506 41.9453 33.7114L41.398 39.4077C41.398 39.4685 41.3372 39.5091 41.2764 39.5091L41.2561 39.4888Z" fill="#3A307F"/>
<path d="M37.4856 38.1508C37.4451 38.1508 37.4045 38.1305 37.3843 38.0899L34.749 33.8329C34.7084 33.7721 34.749 33.7113 34.7895 33.6707C34.8301 33.6302 34.9111 33.6707 34.9517 33.7113L37.5059 37.8467L43.4252 30.5692C43.4657 30.5287 43.5468 30.5084 43.5874 30.5692C43.6279 30.63 43.6482 30.6908 43.5874 30.7314L37.5667 38.1305C37.5464 38.1508 37.5059 38.171 37.4856 38.171V38.1508Z" fill="#EA3934"/>
<path d="M38.7424 65.3148H30.9581C30.9176 65.3148 30.8973 65.3148 30.8771 65.2743C30.8568 65.254 30.8365 65.2135 30.8568 65.1932L31.6068 57.4089C31.6068 57.3481 31.6676 57.3076 31.7285 57.3076H39.0668C39.1276 57.3076 39.1884 57.3684 39.1884 57.4292C39.1884 57.49 39.1276 57.5508 39.0668 57.5508H31.8501L31.1203 65.0918H38.6613L39.2086 59.5172C39.2086 59.4563 39.2695 59.4158 39.3303 59.4158C39.3911 59.4158 39.4316 59.4766 39.4316 59.5374L38.8843 65.2337C38.8843 65.2945 38.8235 65.3351 38.7627 65.3351L38.7424 65.3148Z" fill="#3A307F"/>
<path d="M34.9922 63.9968C34.9517 63.9968 34.9111 63.9766 34.8909 63.936L32.2556 59.679C32.215 59.6182 32.2556 59.5574 32.2961 59.5168C32.3366 59.4763 32.4177 59.5168 32.4583 59.5574L35.0125 63.6927L40.9318 56.4153C40.9723 56.3747 41.0534 56.3545 41.0939 56.4153C41.1345 56.4761 41.1548 56.5369 41.0939 56.5774L35.0733 63.9766C35.053 63.9968 35.0125 64.0171 34.9922 64.0171V63.9968Z" fill="#EA3934"/>
<path d="M37.4856 78.2884H29.7013C29.6608 78.2884 29.6405 78.2884 29.6202 78.2479C29.6 78.2276 29.5797 78.1871 29.5999 78.1668L30.35 70.3825C30.35 70.3217 30.4108 70.2812 30.4716 70.2812H38.2559C38.2964 70.2812 38.3167 70.2812 38.337 70.3217C38.3572 70.342 38.3775 70.3825 38.3572 70.4028L37.6072 78.1871C37.6072 78.2479 37.5464 78.2884 37.4856 78.2884ZM29.8432 78.0452H37.3842L38.114 70.5042H30.573L29.8432 78.0452Z" fill="#3A307F"/>
<path d="M84.1102 33.1237H72.0284C71.9675 33.1237 71.9067 33.0629 71.9067 33.0021C71.9067 32.9412 71.9675 32.8804 72.0284 32.8804H84.1102C84.171 32.8804 84.2318 32.9412 84.2318 33.0021C84.2318 33.0629 84.171 33.1237 84.1102 33.1237Z" fill="#3A307F"/>
<path d="M69.6972 33.1237H58.0613C58.0005 33.1237 57.9397 33.0629 57.9397 33.0021C57.9397 32.9412 58.0005 32.8804 58.0613 32.8804H69.6972C69.758 32.8804 69.8188 32.9412 69.8188 33.0021C69.8188 33.0629 69.758 33.1237 69.6972 33.1237Z" fill="#3A307F"/>
<path d="M55.7504 33.1237H45.2903C45.2295 33.1237 45.1687 33.0629 45.1687 33.0021C45.1687 32.9412 45.2295 32.8804 45.2903 32.8804H55.7504C55.8113 32.8804 55.8721 32.9412 55.8721 33.0021C55.8721 33.0629 55.8113 33.1237 55.7504 33.1237Z" fill="#3A307F"/>
<path d="M81.5358 35.7183H76.9341C76.8733 35.7183 76.8125 35.6575 76.8125 35.5967C76.8125 35.5358 76.8733 35.475 76.9341 35.475H81.5358C81.5966 35.475 81.6574 35.5358 81.6574 35.5967C81.6574 35.6575 81.5966 35.7183 81.5358 35.7183Z" fill="#3A307F"/>
<path d="M74.603 35.7183H54.6963C54.6355 35.7183 54.5747 35.6575 54.5747 35.5967C54.5747 35.5358 54.6355 35.475 54.6963 35.475H74.603C74.6638 35.475 74.7246 35.5358 74.7246 35.5967C74.7246 35.6575 74.6638 35.7183 74.603 35.7183Z" fill="#3A307F"/>
<path d="M52.3649 35.7183H45.0267C44.9658 35.7183 44.905 35.6575 44.905 35.5967C44.905 35.5358 44.9658 35.475 45.0267 35.475H52.3649C52.4258 35.475 52.4866 35.5358 52.4866 35.5967C52.4866 35.6575 52.4258 35.7183 52.3649 35.7183Z" fill="#3A307F"/>
<path d="M83.6035 38.3129H64.2442C64.1834 38.3129 64.1226 38.2521 64.1226 38.1913C64.1226 38.1305 64.1834 38.0696 64.2442 38.0696H83.6035C83.6643 38.0696 83.7251 38.1305 83.7251 38.1913C83.7251 38.2521 83.6643 38.3129 83.6035 38.3129Z" fill="#3A307F"/>
<path d="M61.9129 38.3129H44.7835C44.7227 38.3129 44.6619 38.2521 44.6619 38.1913C44.6619 38.1305 44.7227 38.0696 44.7835 38.0696H61.9129C61.9737 38.0696 62.0346 38.1305 62.0346 38.1913C62.0346 38.2521 61.9737 38.3129 61.9129 38.3129Z" fill="#3A307F"/>
<path d="M80.4207 71.8015H68.3389C68.2781 71.8015 68.2173 71.7407 68.2173 71.6799C68.2173 71.6191 68.2781 71.5583 68.3389 71.5583H80.4207C80.4816 71.5583 80.5424 71.6191 80.5424 71.6799C80.5424 71.7407 80.4816 71.8015 80.4207 71.8015Z" fill="#3A307F"/>
<path d="M66.0075 71.8015H54.3716C54.3108 71.8015 54.25 71.7407 54.25 71.6799C54.25 71.6191 54.3108 71.5583 54.3716 71.5583H66.0075C66.0683 71.5583 66.1291 71.6191 66.1291 71.6799C66.1291 71.7407 66.0683 71.8015 66.0075 71.8015Z" fill="#3A307F"/>
<path d="M52.061 71.8015H41.6009C41.5401 71.8015 41.4792 71.7407 41.4792 71.6799C41.4792 71.6191 41.5401 71.5583 41.6009 71.5583H52.061C52.1218 71.5583 52.1826 71.6191 52.1826 71.6799C52.1826 71.7407 52.1218 71.8015 52.061 71.8015Z" fill="#3A307F"/>
<path d="M77.8463 74.3964H73.2447C73.1839 74.3964 73.123 74.3356 73.123 74.2748C73.123 74.214 73.1839 74.1531 73.2447 74.1531H77.8463C77.9071 74.1531 77.9679 74.214 77.9679 74.2748C77.9679 74.3356 77.9071 74.3964 77.8463 74.3964Z" fill="#3A307F"/>
<path d="M70.9134 74.3964H60.1897C60.1289 74.3964 60.0681 74.3356 60.0681 74.2748C60.0681 74.214 60.1289 74.1531 60.1897 74.1531H70.9134C70.9742 74.1531 71.035 74.214 71.035 74.2748C71.035 74.3356 70.9742 74.3964 70.9134 74.3964Z" fill="#3A307F"/>
<path d="M54.5137 74.3964H41.3372C41.2764 74.3964 41.2156 74.3356 41.2156 74.2748C41.2156 74.214 41.2764 74.1531 41.3372 74.1531H54.5137C54.5745 74.1531 54.6353 74.214 54.6353 74.2748C54.6353 74.3356 54.5745 74.3964 54.5137 74.3964Z" fill="#3A307F"/>
<path d="M79.914 76.991H60.5547C60.4939 76.991 60.4331 76.9302 60.4331 76.8694C60.4331 76.8086 60.4939 76.7477 60.5547 76.7477H79.914C79.9749 76.7477 80.0357 76.8086 80.0357 76.8694C80.0357 76.9302 79.9749 76.991 79.914 76.991Z" fill="#3A307F"/>
<path d="M58.2235 76.991H41.094C41.0332 76.991 40.9724 76.9302 40.9724 76.8694C40.9724 76.8086 41.0332 76.7477 41.094 76.7477H58.2235C58.2843 76.7477 58.3451 76.8086 58.3451 76.8694C58.3451 76.9302 58.2843 76.991 58.2235 76.991Z" fill="#3A307F"/>
<path d="M81.6573 58.9899H69.5755C69.5147 58.9899 69.4539 58.9291 69.4539 58.8683C69.4539 58.8075 69.5147 58.7466 69.5755 58.7466H81.6573C81.7181 58.7466 81.7789 58.8075 81.7789 58.8683C81.7789 58.9291 81.7181 58.9899 81.6573 58.9899Z" fill="#3A307F"/>
<path d="M67.2443 58.9899H55.6084C55.5476 58.9899 55.4868 58.9291 55.4868 58.8683C55.4868 58.8075 55.5476 58.7466 55.6084 58.7466H67.2443C67.3051 58.7466 67.3659 58.8075 67.3659 58.8683C67.3659 58.9291 67.3051 58.9899 67.2443 58.9899Z" fill="#3A307F"/>
<path d="M53.2973 58.9899H42.8372C42.7764 58.9899 42.7156 58.9291 42.7156 58.8683C42.7156 58.8075 42.7764 58.7466 42.8372 58.7466H53.2973C53.3581 58.7466 53.4189 58.8075 53.4189 58.8683C53.4189 58.9291 53.3581 58.9899 53.2973 58.9899Z" fill="#3A307F"/>
<path d="M81.4142 61.5647H52.2435C52.1826 61.5647 52.1218 61.5039 52.1218 61.443C52.1218 61.3822 52.1826 61.3214 52.2435 61.3214H81.4142C81.475 61.3214 81.5358 61.3822 81.5358 61.443C81.5358 61.5039 81.475 61.5647 81.4142 61.5647Z" fill="#3A307F"/>
<path d="M49.9121 61.5647H42.5738C42.513 61.5647 42.4521 61.5039 42.4521 61.443C42.4521 61.3822 42.513 61.3214 42.5738 61.3214H49.9121C49.9729 61.3214 50.0337 61.3822 50.0337 61.443C50.0337 61.5039 49.9729 61.5647 49.9121 61.5647Z" fill="#3A307F"/>
<path d="M65.582 64.1595H42.3306C42.2698 64.1595 42.209 64.0987 42.209 64.0379C42.209 63.9771 42.2698 63.9163 42.3306 63.9163H65.582C65.6429 63.9163 65.7037 63.9771 65.7037 64.0379C65.7037 64.0987 65.6429 64.1595 65.582 64.1595Z" fill="#3A307F"/>
<path d="M82.853 46.0976H63.4937C63.4329 46.0976 63.3721 46.0368 63.3721 45.9759C63.3721 45.9151 63.4329 45.8543 63.4937 45.8543H82.853C82.9138 45.8543 82.9746 45.9151 82.9746 45.9759C82.9746 46.0368 82.9138 46.0976 82.853 46.0976Z" fill="#3A307F"/>
<path d="M61.1627 46.0976H44.0333C43.9724 46.0976 43.9116 46.0368 43.9116 45.9759C43.9116 45.9151 43.9724 45.8543 44.0333 45.8543H61.1627C61.2235 45.8543 61.2843 45.9151 61.2843 45.9759C61.2843 46.0368 61.2235 46.0976 61.1627 46.0976Z" fill="#3A307F"/>
<path d="M82.6098 48.6922H67.1021C67.0413 48.6922 66.9805 48.6314 66.9805 48.5705C66.9805 48.5097 67.0413 48.4489 67.1021 48.4489H82.6098C82.6706 48.4489 82.7314 48.5097 82.7314 48.5705C82.7314 48.6314 82.6706 48.6922 82.6098 48.6922Z" fill="#3A307F"/>
<path d="M64.7507 48.6922H54.3311C54.2703 48.6922 54.2095 48.6314 54.2095 48.5705C54.2095 48.5097 54.2703 48.4489 54.3311 48.4489H64.7507C64.8115 48.4489 64.8723 48.5097 64.8723 48.5705C64.8723 48.6314 64.8115 48.6922 64.7507 48.6922Z" fill="#3A307F"/>
<path d="M52.0201 48.6922H43.7898C43.729 48.6922 43.6682 48.6314 43.6682 48.5705C43.6682 48.5097 43.729 48.4489 43.7898 48.4489H52.0201C52.0809 48.4489 52.1417 48.5097 52.1417 48.5705C52.1417 48.6314 52.0809 48.6922 52.0201 48.6922Z" fill="#3A307F"/>
<path d="M68.3793 51.2667H59.3382C59.2774 51.2667 59.2166 51.2059 59.2166 51.1451C59.2166 51.0843 59.2774 51.0234 59.3382 51.0234H68.3793C68.4401 51.0234 68.5009 51.0843 68.5009 51.1451C68.5009 51.2059 68.4401 51.2667 68.3793 51.2667Z" fill="#3A307F"/>
<path d="M57.0272 51.2667H43.5264C43.4656 51.2667 43.4048 51.2059 43.4048 51.1451C43.4048 51.0843 43.4656 51.0234 43.5264 51.0234H57.0272C57.0881 51.0234 57.1489 51.0843 57.1489 51.1451C57.1489 51.2059 57.0881 51.2667 57.0272 51.2667Z" fill="#3A307F"/>
<path d="M55.5273 20.839L56.0543 22.1769L57.5139 22.3999C57.7977 22.4405 57.8788 22.8053 57.6558 23.0081L56.48 24.0622L56.5814 25.542C56.6016 25.8258 56.2773 26.0488 56.034 25.9272L54.7772 25.2379L53.3785 25.9272C53.0947 26.0691 52.8109 25.8461 52.892 25.542L53.2974 24.0622L52.3244 23.0081C52.1216 22.8053 52.2838 22.4405 52.5879 22.3999L54.088 22.1769L54.8786 20.839C55.0407 20.5755 55.4056 20.5755 55.5273 20.839Z" fill="#EA3934"/>
<path d="M62.8454 20.8392L63.3724 22.1772L64.832 22.4002C65.1158 22.4407 65.1969 22.8056 64.9739 23.0083L63.7981 24.0624L63.8995 25.5422C63.9198 25.826 63.5954 26.049 63.3522 25.9274L62.0953 25.2382L60.6966 25.9274C60.4128 26.0693 60.129 25.8463 60.2101 25.5422L60.6155 24.0624L59.6425 23.0083C59.4398 22.8056 59.6019 22.4407 59.906 22.4002L61.4061 22.1772L62.1967 20.8392C62.3589 20.5757 62.7237 20.5757 62.8454 20.8392Z" fill="#EA3934"/>
<path d="M70.1432 20.8392L70.6703 22.1772L72.1298 22.4002C72.4136 22.4407 72.4947 22.8056 72.2717 23.0083L71.096 24.0624L71.1973 25.5422C71.2176 25.826 70.8933 26.049 70.65 25.9274L69.3932 25.2382L67.9944 25.9274C67.7106 26.0693 67.4268 25.8463 67.5079 25.5422L67.9134 24.0624L66.9403 23.0083C66.7376 22.8056 66.8998 22.4407 67.2039 22.4002L68.7039 22.1772L69.4945 20.8392C69.6567 20.5757 70.0419 20.5757 70.1432 20.8392Z" fill="#EA3934"/>
<path d="M77.4611 20.8392L77.9882 22.1772L79.4477 22.4002C79.7315 22.4407 79.8126 22.8056 79.5896 23.0083L78.4139 24.0624L78.5152 25.5422C78.5355 25.826 78.2111 26.049 77.9679 25.9274L76.711 25.2382L75.3123 25.9274C75.0285 26.0693 74.7447 25.8463 74.8258 25.5422L75.2312 24.0624L74.2582 23.0083C74.0555 22.8056 74.2177 22.4407 74.5217 22.4002L76.0218 22.1772L76.8124 20.8392C76.9746 20.5757 77.3597 20.5757 77.4611 20.8392Z" fill="#EA3934"/>
<path d="M84.7792 20.8392L85.3063 22.1772L86.7658 22.4002C87.0496 22.4407 87.1307 22.8056 86.9077 23.0083L85.732 24.0624L85.8333 25.5422C85.8536 25.826 85.5293 26.049 85.286 25.9274L84.0292 25.2382L82.6304 25.9274C82.3466 26.0693 82.0628 25.8463 82.1439 25.5422L82.5493 24.0624L81.5763 23.0083C81.3736 22.8056 81.5358 22.4407 81.8398 22.4002L83.3399 22.1772L84.1305 20.8392C84.2927 20.5757 84.6779 20.5757 84.7792 20.8392Z" fill="#EA3934"/>
<path d="M71.3794 12.4063H54.5541C53.8446 12.4063 53.3175 11.8184 53.3783 11.1089C53.4391 10.3994 54.0878 9.81152 54.7973 9.81152H71.6227C72.3322 9.81152 72.8593 10.3994 72.7984 11.1089C72.7376 11.8184 72.0889 12.4063 71.3794 12.4063Z" fill="#D4D2E1"/>
<path d="M79.3258 17.109H54.0877C53.3782 17.109 52.8512 16.5211 52.912 15.8116C52.9728 15.1021 53.6215 14.5142 54.331 14.5142H79.5691C80.2786 14.5142 80.8056 15.1021 80.7448 15.8116C80.684 16.5211 80.0353 17.109 79.3258 17.109Z" fill="#D4D2E1"/>
<path d="M50.4798 17.9C50.0338 22.5016 45.9187 26.2315 41.2968 26.2315C36.6749 26.2315 33.2895 22.5016 33.7355 17.9C34.1815 13.2983 38.2966 9.56836 42.9185 9.56836C47.5404 9.56836 50.9258 13.2983 50.4798 17.9Z" fill="#FDFDFD"/>
<path d="M41.2967 26.3533C39.0263 26.3533 36.9789 25.4816 35.5193 23.8802C34.0598 22.2787 33.3908 20.1502 33.6138 17.9001C34.0598 13.2376 38.2357 9.4671 42.9184 9.4671C47.6011 9.4671 47.2363 10.3388 48.6958 11.9402C50.1554 13.5417 50.8243 15.6702 50.6013 17.9203C50.1554 22.5828 45.9794 26.3533 41.2967 26.3533ZM42.9184 9.69009C38.3573 9.69009 34.303 13.3795 33.857 17.9203C33.6543 20.1097 34.303 22.1773 35.7018 23.718C37.1005 25.2586 39.0871 26.1303 41.2967 26.1303C45.8578 26.1303 49.9121 22.4409 50.3581 17.9001C50.5608 15.7107 49.9121 13.643 48.5134 12.0821C47.1146 10.5415 45.128 9.69009 42.9184 9.69009Z" fill="#3A307F"/>
<mask id="mask0_4171_36377" style="mask-type:luminance" maskUnits="userSpaceOnUse" x="34" y="10" width="16" height="16">
<path d="M49.4256 17.8999C49.0405 21.934 45.4321 25.1977 41.3778 25.1977C37.3235 25.1977 34.3639 21.934 34.749 17.8999C35.1342 13.8659 38.7425 10.6022 42.7968 10.6022C46.8511 10.6022 49.8108 13.8659 49.4256 17.8999Z" fill="white"/>
</mask>
<g mask="url(#mask0_4171_36377)">
<path d="M42.6956 11.6767C40.2225 11.6767 38.4994 14.7986 37.8912 15.8729C37.3642 16.8054 36.3709 18.5893 37.0196 19.5015C37.5466 20.2516 38.6616 19.7245 41.9253 19.684C45.2295 19.6434 46.2634 20.1502 46.9323 19.3799C47.7432 18.4474 47.0945 16.6838 46.7499 15.7716C46.3647 14.7783 45.189 11.6362 42.6956 11.6565V11.6767Z" fill="#3A307F"/>
<path d="M45.8985 21.4273L43.5876 20.88L43.9119 17.596L40.3644 17.5352L40.0198 20.9002L37.6075 21.4476C36.4723 21.7111 35.4992 22.5422 35.0735 23.6369L33.7153 28.3804H48.4527L48.0068 23.6369C47.804 22.5422 46.9932 21.7111 45.8985 21.4476V21.4273Z" fill="#FDFDFD"/>
<path d="M48.4526 28.4616H33.7152C33.6747 28.4616 33.6341 28.4616 33.6138 28.4211C33.5936 28.4008 33.5936 28.3603 33.6138 28.3197L34.972 23.5762C35.418 22.441 36.4113 21.5693 37.5871 21.3058L39.9183 20.7787L40.2426 17.4947C40.2426 17.4339 40.3034 17.3934 40.3643 17.3934L43.9118 17.4542C43.9523 17.4542 43.9726 17.4542 43.9929 17.4947C44.0131 17.515 44.0334 17.5555 44.0131 17.5758L43.7091 20.7787L45.9187 21.3058C47.0539 21.5693 47.9053 22.441 48.108 23.5762L48.5539 28.3197C48.5539 28.3603 48.5539 28.3805 48.5337 28.4008C48.5134 28.4211 48.4729 28.4413 48.4526 28.4413V28.4616ZM33.8774 28.2386H48.331L47.9053 23.637C47.7025 22.6032 46.9322 21.7923 45.8781 21.549L43.5672 21.0017C43.5063 21.0017 43.4658 20.9409 43.4861 20.8801L43.7901 17.7177L40.4656 17.6569L40.1413 20.9206C40.1413 20.9612 40.1007 21.0017 40.0602 21.022L37.6479 21.5693C36.5532 21.8126 35.6004 22.6234 35.195 23.6775L33.8774 28.2589V28.2386Z" fill="#3A307F"/>
<path d="M44.9256 15.63C44.885 14.4137 44.0336 12.8528 42.5741 12.8731C41.1551 12.8731 40.1212 14.3529 39.7766 15.407C39.4725 16.3598 39.6752 17.1504 39.7563 17.3733C39.7766 17.4544 40.4253 19.3397 41.9659 19.3194C43.5674 19.3194 44.5404 17.2517 44.6012 17.0895C44.7026 16.8463 44.9458 16.2989 44.9256 15.63Z" fill="#FDFDFD"/>
<path d="M41.9456 19.4406C40.3239 19.4406 39.6752 17.4945 39.6549 17.4134C39.5333 17.0485 39.3711 16.2782 39.6752 15.366C40.0198 14.3119 41.0739 12.7712 42.5943 12.751C44.216 12.751 45.0269 14.4538 45.0471 15.6295C45.0674 16.3593 44.8039 16.9269 44.7025 17.1499C44.6012 17.3932 43.6078 19.4203 41.9659 19.4406H41.9456ZM42.5943 12.9942C41.2158 12.9942 40.2022 14.4943 39.8982 15.4471C39.6144 16.2985 39.7765 17.008 39.8779 17.3526C39.8779 17.3526 40.486 19.2176 41.9456 19.2176C43.4862 19.2176 44.439 17.1499 44.4795 17.0688C44.5809 16.8458 44.8241 16.3188 44.8039 15.6498C44.7633 14.5349 43.9727 12.9942 42.5943 12.9942Z" fill="#3A307F"/>
<path d="M39.6143 15.1431C41.4792 15.1431 43.3442 15.1431 45.2092 15.1634C45.2092 15.0012 45.27 13.5822 44.1956 12.8321C43.5672 12.4064 42.8577 12.4064 42.6347 12.4267C42.4117 12.4267 41.682 12.4673 40.9522 12.974C39.8575 13.7444 39.6548 14.9607 39.6143 15.1634V15.1431Z" fill="#3A307F"/>
</g>
<path d="M23.1335 45.8948C26.1339 45.8948 28.5662 43.4625 28.5662 40.4621C28.5662 37.4616 26.1339 35.0293 23.1335 35.0293C20.133 35.0293 17.7007 37.4616 17.7007 40.4621C17.7007 43.4625 20.133 45.8948 23.1335 45.8948Z" fill="#3A307F"/>
<path d="M44.1144 74.4979C37.587 76.2209 11.5381 82.7484 7.90947 75.552C6.81481 73.3626 7.92974 70.2408 8.70006 68.1326C11.1326 61.4227 17.0722 58.159 19.5859 53.3547C21.2481 50.1518 21.836 46.7867 21.836 46.7867C21.8968 46.4218 22.4644 43.1784 25.5457 41.6377C27.1471 40.8471 29.377 40.6444 32.5191 41.9012C32.5191 41.9012 35.276 41.1917 37.6883 42.7526C39.4114 43.8676 40.1817 45.6515 40.6683 47.2327C42.9184 54.5304 44.0536 73.3221 44.1347 74.4979H44.1144Z" fill="#3A307F"/>
<path d="M22.0994 45.9758C22.0994 45.9758 22.0791 45.9758 22.0589 45.9758C21.9981 45.9556 21.9778 45.8948 21.9778 45.8339C22.5048 44.3136 24.2077 40.7863 28.566 40.8877C28.6268 40.8877 28.6877 40.9485 28.6877 41.0093C28.6877 41.0701 28.6268 41.131 28.566 41.131C28.5052 41.131 28.4444 41.131 28.3836 41.131C24.4712 41.131 22.8292 44.1109 22.2008 45.915C22.2008 45.9556 22.14 45.9961 22.0994 45.9961V45.9758Z" fill="#FDFDFD"/>
<path d="M62.2574 106.527H38.0735L39.8168 92.4787L53.0541 89.9042L62.2574 106.527Z" fill="#FDFDFD"/>
<path d="M62.2576 106.649H38.0736C38.0331 106.649 38.0128 106.649 37.9925 106.608C37.9723 106.568 37.952 106.547 37.9723 106.507L39.6953 92.4587C39.6953 92.4181 39.7359 92.3776 39.7967 92.3573L53.034 89.7828C53.0746 89.7828 53.1354 89.7828 53.1556 89.8436L62.3792 106.466C62.3995 106.507 62.3792 106.547 62.3792 106.588C62.3589 106.628 62.3184 106.649 62.2778 106.649H62.2576ZM38.2155 106.405H62.0751L52.9935 90.0261L39.9183 92.56L38.2155 106.385V106.405Z" fill="#3A307F"/>
<path d="M44.8037 94.3236L57.0679 94.0601C57.0679 94.0601 51.5743 82.8094 48.1282 76.1603C46.4862 72.998 43.5874 70.6667 40.1209 69.7545C34.4044 68.2544 24.8767 66.5719 15.1059 68.4369C12.9774 68.8423 11.0921 70.0586 9.85555 71.8222C6.55129 76.5049 4.80794 86.0934 2.71997 93.0465L16.2613 93.2898L13.0382 104.561L39.1682 104.419L44.7834 94.3236H44.8037Z" fill="#EA3934"/>
<path d="M52.2837 108.777H9.79463C4.34159 108.777 0.307553 103.709 1.52384 98.3982L2.74014 93.0668C2.74014 93.0668 12.1461 90.8369 18.2884 93.31L17.0113 98.459H36.9382C40.729 98.459 44.4387 99.655 47.4186 101.986C49.4457 103.567 51.3512 105.777 52.2837 108.797V108.777Z" fill="#FDFDFD"/>
<path d="M52.2838 108.899H9.7947C7.1594 108.899 4.70655 107.723 3.06456 105.655C1.42256 103.588 0.814417 100.932 1.40229 98.378L2.61858 93.0466C2.61858 92.9857 2.69967 92.9452 2.76048 92.9655C2.8213 92.9655 2.86184 93.0466 2.84157 93.1074L1.62528 98.4388C1.05768 100.932 1.62528 103.527 3.247 105.534C4.84845 107.541 7.22022 108.696 9.7947 108.696H52.1419C51.3108 106.162 49.7093 103.932 47.3578 102.108C45.8983 100.973 44.236 100.081 42.4521 99.4929C42.3913 99.4929 42.3508 99.4118 42.371 99.351C42.3913 99.2902 42.4521 99.2496 42.5129 99.2699C44.3374 99.8781 45.9996 100.77 47.4795 101.925C49.912 103.831 51.5743 106.142 52.3852 108.777C52.3852 108.818 52.3852 108.858 52.3852 108.879C52.3852 108.899 52.3244 108.919 52.2838 108.919V108.899Z" fill="#3A307F"/>
<path d="M46.9321 107.176C46.8916 107.176 46.851 107.155 46.8307 107.095C45.9591 104.946 44.013 103.202 41.7831 102.574C41.7223 102.574 41.6818 102.493 41.7021 102.432C41.7223 102.371 41.7831 102.331 41.8439 102.351C44.1549 103 46.1415 104.784 47.0537 106.993C47.074 107.054 47.0537 107.115 46.9929 107.135C46.9929 107.135 46.9726 107.135 46.9524 107.135L46.9321 107.176Z" fill="#3A307F"/>
<path d="M42.4115 107.257C42.371 107.257 42.3305 107.236 42.3102 107.196C41.4993 105.392 39.9181 103.952 38.0329 103.324C37.9721 103.324 37.9315 103.243 37.9518 103.182C37.9721 103.121 38.0329 103.081 38.0937 103.101C40.0195 103.75 41.6615 105.25 42.4926 107.115C42.5129 107.175 42.4926 107.236 42.4318 107.277C42.4318 107.277 42.4115 107.277 42.3913 107.277L42.4115 107.257Z" fill="#3A307F"/>
<path d="M19.0385 93.2086C19.0385 93.2086 19.0183 93.2086 18.998 93.2086C18.9372 93.2086 18.8966 93.1275 18.9169 93.0667L21.6941 83.9648C21.836 83.4985 21.9982 82.9918 22.3225 82.5661C22.7077 82.0998 23.255 81.8566 23.7415 81.9782C23.8023 81.9782 23.8429 82.0593 23.8226 82.1201C23.8226 82.1809 23.7415 82.2214 23.6807 82.2012C23.2347 82.0998 22.7482 82.3836 22.4847 82.708C22.1806 83.0931 22.0387 83.5594 21.8968 84.0256L19.1196 93.1275C19.1196 93.1681 19.0588 93.2086 18.998 93.2086H19.0385Z" fill="#3A307F"/>
<path d="M33.5124 86.6609C32.8637 86.6609 32.1947 86.4581 31.5866 86.0527C30.7757 85.5256 30.1676 84.7553 29.6811 84.0661C26.2957 79.2617 25.2011 73.1803 24.228 67.8286C24.228 67.7678 24.2483 67.707 24.3294 67.6867C24.3902 67.6867 24.451 67.707 24.4713 67.7881C25.424 73.1397 26.5187 79.1807 29.8838 83.9445C30.35 84.6134 30.9379 85.3635 31.7285 85.8703C32.5394 86.3973 33.4516 86.5798 34.2219 86.3568C35.7828 85.9108 36.4518 84.0256 36.7558 82.5457C37.6275 78.086 37.1815 73.3019 35.5395 69.0652C35.5193 69.0044 35.5395 68.9435 35.6004 68.9233C35.6612 68.903 35.722 68.9233 35.7422 68.9841C37.4045 73.2614 37.8505 78.086 36.9788 82.6065C36.5531 84.8364 35.6206 86.2149 34.2827 86.6C34.0394 86.6608 33.7962 86.7014 33.5327 86.7014L33.5124 86.6609Z" fill="#3A307F"/>
<path d="M40.7696 95.3979C40.4858 95.3979 40.2019 95.3776 39.9181 95.2965C39.8573 95.2965 39.8168 95.2154 39.8371 95.1546C39.8371 95.0938 39.9181 95.0533 39.979 95.0735C41.398 95.3979 43.04 94.81 44.0941 93.614C45.0266 92.5193 45.5131 90.9381 45.4117 89.2961C45.3104 87.8974 44.8239 86.4379 43.9522 84.9175C43.9116 84.8567 43.9522 84.7959 43.9927 84.7553C44.0535 84.7148 44.1143 84.7553 44.1549 84.7959C45.0468 86.3365 45.5536 87.8366 45.655 89.2759C45.7563 90.9787 45.2698 92.6207 44.2765 93.7559C43.3846 94.7897 42.0669 95.3979 40.7898 95.3979H40.7696Z" fill="#3A307F"/>
<path d="M34.1206 68.4772L33.2084 76.6466L24.5525 67.6258C25.8093 67.2406 26.7824 66.2473 27.1472 64.9905L29.4987 56.6589L36.0464 59.9429L34.1206 68.4772Z" fill="#FDFDFD"/>
<path d="M34.1204 68.5987C34.1204 68.5987 34.1204 68.5987 34.1002 68.5987C34.0394 68.5987 33.9988 68.5176 34.0191 68.4568L35.9246 60.0238L29.5796 56.8412L27.2687 65.0309C26.9038 66.3283 25.9105 67.3621 24.6131 67.7473C24.5523 67.7473 24.4915 67.7473 24.4712 67.6662C24.4712 67.6054 24.4712 67.5446 24.5523 67.5243C25.7686 67.1594 26.7011 66.1864 27.0659 64.9701L29.4174 56.6385C29.4174 56.598 29.458 56.5777 29.4783 56.5574C29.4985 56.5371 29.5391 56.5574 29.5796 56.5574L36.1273 59.8414C36.1679 59.8617 36.2084 59.9225 36.1881 59.963L34.2623 68.4973C34.2623 68.5582 34.2015 68.5784 34.1407 68.5784L34.1204 68.5987Z" fill="#3A307F"/>
<path d="M29.8838 54.6315C29.8838 54.6315 28.3026 51.9557 26.5593 52.4827C23.9037 53.3138 24.0861 58.0371 28.4445 57.8141C28.4445 57.8141 33.6138 64.4226 38.56 62.5779C43.5063 60.7332 39.8776 49.5839 38.9249 47.6581C38.9249 47.6581 32.3366 46.7864 31.8501 50.7596C31.5663 53.0706 32.1137 54.6112 29.8838 54.6112V54.6315Z" fill="#FDFDFD"/>
<path d="M36.776 63.024C35.1542 63.024 33.3906 62.3348 31.5864 60.9969C29.8634 59.7198 28.6268 58.24 28.4038 57.9562C26.0523 58.0575 24.9779 56.7601 24.7549 55.5236C24.5117 54.1248 25.282 52.7869 26.5388 52.4018C28.2214 51.8747 29.7215 54.1248 29.9647 54.5303C31.5459 54.51 31.5865 53.6789 31.6473 52.1788C31.6675 51.7531 31.6878 51.2868 31.7486 50.7598C31.85 49.8881 32.2554 49.1583 32.9649 48.6312C35.0123 47.0501 38.8031 47.5366 38.9653 47.5569C39.0058 47.5569 39.0464 47.5771 39.0464 47.6177C39.8167 49.1583 42.2898 56.5574 40.7492 60.4901C40.3235 61.5848 39.5937 62.3145 38.6207 62.6794C38.0328 62.9024 37.4246 63.0038 36.776 63.0038V63.024ZM28.4444 57.7129C28.4849 57.7129 28.5052 57.7129 28.5254 57.7534C28.566 57.8142 33.6947 64.2606 38.5193 62.4767C39.4315 62.1321 40.1005 61.4429 40.5059 60.409C42.006 56.598 39.6342 49.4218 38.8437 47.7798C38.3369 47.719 34.8907 47.3947 33.0663 48.8137C32.4176 49.3205 32.0527 49.9692 31.9513 50.78C31.8905 51.2868 31.8703 51.7531 31.85 52.1788C31.7689 53.6586 31.7284 54.733 29.8634 54.733C27.9984 54.733 29.7823 54.7127 29.762 54.6722C29.762 54.6519 28.2011 52.0774 26.5591 52.5842C25.2415 52.9896 24.7549 54.3681 24.9374 55.4425C25.1401 56.598 26.174 57.794 28.4038 57.6926L28.4444 57.7129Z" fill="#3A307F"/>
<path d="M28.9714 56.2941C28.9511 56.2941 28.9105 56.2941 28.8903 56.2535C28.2619 55.6656 27.3699 55.4021 26.5388 55.5643C26.478 55.5643 26.4171 55.544 26.3969 55.4629C26.3766 55.3818 26.4171 55.3413 26.478 55.321C27.3902 55.1386 28.3632 55.4224 29.0322 56.0508C29.0727 56.0914 29.0727 56.1724 29.0322 56.213C29.0119 56.2332 28.9714 56.2535 28.9511 56.2535L28.9714 56.2941Z" fill="#3A307F"/>
<path d="M36.3302 56.3143C35.4179 56.3143 34.5463 55.5643 34.303 54.4696C34.1611 53.8818 34.2219 53.2736 34.4855 52.7668C34.749 52.26 35.1544 51.9154 35.6612 51.7938C36.168 51.6722 36.695 51.7938 37.1613 52.1384C37.6073 52.483 37.9316 52.9898 38.0735 53.5777C38.2154 54.1656 38.1546 54.7737 37.8911 55.2805C37.6275 55.7873 37.2221 56.1319 36.7153 56.2535C36.5937 56.2738 36.4721 56.2941 36.3504 56.2941L36.3302 56.3143ZM36.0464 51.9762C35.945 51.9762 35.8234 51.9762 35.722 52.0168C35.276 52.1181 34.9112 52.4222 34.6882 52.8682C34.4652 53.3142 34.4044 53.8615 34.526 54.4088C34.7895 55.5238 35.7423 56.2535 36.6545 56.0305C37.1005 55.9292 37.4654 55.6251 37.6884 55.1791C37.9113 54.7332 37.9722 54.1858 37.8505 53.6385C37.7289 53.0912 37.4248 52.6249 37.0194 52.3209C36.7153 52.0979 36.3707 51.9762 36.0464 51.9762Z" fill="#3A307F"/>
<path d="M41.1549 55.1989C40.7697 55.1989 40.3846 55.057 40.0399 54.7935C39.594 54.4489 39.2696 53.9421 39.1277 53.3542C38.9858 52.7663 39.0466 52.1582 39.3102 51.6514C39.5737 51.1446 39.9791 50.8 40.4859 50.6784C40.9927 50.5568 41.5198 50.6784 41.986 51.023C42.432 51.3676 42.7563 51.8744 42.8982 52.4623C43.0401 53.0501 42.9793 53.6583 42.7158 54.1651C42.4523 54.6719 42.0468 55.0165 41.54 55.1381C41.4184 55.1584 41.2968 55.1787 41.1549 55.1787V55.1989ZM40.8711 50.8608C40.7697 50.8608 40.6481 50.8608 40.5467 50.9014C40.1008 51.0027 39.7359 51.3068 39.5129 51.7528C39.2899 52.1987 39.2291 52.7461 39.3507 53.2934C39.4723 53.8407 39.7764 54.307 40.1818 54.6111C40.5873 54.9151 41.0332 55.0165 41.4792 54.9151C41.9252 54.8138 42.2901 54.5097 42.5131 54.0637C42.7361 53.6177 42.7969 53.0704 42.6752 52.5231C42.5536 51.9758 42.2495 51.5095 41.8441 51.2054C41.54 50.9825 41.1954 50.8608 40.8711 50.8608Z" fill="#3A307F"/>
<path d="M37.952 53.7398C37.9317 53.7398 37.8912 53.7398 37.8709 53.7195C37.8304 53.679 37.8101 53.5979 37.8709 53.5573C38.0939 53.2938 38.6818 52.8681 39.3102 53.233C39.371 53.2735 39.3913 53.3343 39.3507 53.3952C39.3102 53.456 39.2494 53.4762 39.1886 53.4357C38.5804 53.0708 38.0736 53.679 38.0534 53.6992C38.0331 53.7195 37.9925 53.7398 37.9723 53.7398H37.952Z" fill="#3A307F"/>
<path d="M34.4045 54.5507L29.8231 54.2669C29.7623 54.2669 29.7015 54.2061 29.7217 54.1453C29.742 54.0844 29.7826 54.0236 29.8434 54.0439L34.4247 54.3277C34.4856 54.3277 34.5261 54.3885 34.5261 54.4493C34.5261 54.5101 34.4653 54.5507 34.4045 54.5507Z" fill="#3A307F"/>
<path d="M81.3937 109H33.6543C33.0056 109 32.4583 108.473 32.4583 107.804V107.52C32.4583 106.222 33.5124 105.168 34.8097 105.168H84.8196L84.4142 106.668C84.0493 108.047 82.7924 109 81.3734 109H81.3937Z" fill="#3A307F"/>
<path d="M82.7925 107.277H53.2771C52.0203 107.277 51.0878 106.101 51.3919 104.864L56.9666 82.363C57.1895 81.4913 57.9599 80.8832 58.8518 80.8832H88.3671C89.624 80.8832 90.5565 82.0589 90.2524 83.2955L84.6777 105.797C84.4547 106.669 83.6844 107.277 82.7925 107.277Z" fill="#3A307F"/>
<path d="M82.7924 107.338H53.277C52.6689 107.338 52.081 107.054 51.6959 106.567C51.3107 106.081 51.1891 105.452 51.331 104.865L56.9057 82.3632C57.1286 81.4713 57.9192 80.8428 58.8517 80.8428H88.3671C88.9752 80.8428 89.5631 81.1266 89.9482 81.6132C90.3334 82.0997 90.455 82.7281 90.3131 83.316L84.7385 105.817C84.5155 106.709 83.7249 107.338 82.7924 107.338ZM58.8517 80.9442C57.98 80.9442 57.23 81.5321 57.0273 82.3632L51.4526 104.865C51.3107 105.432 51.4526 106.02 51.7972 106.486C52.1621 106.953 52.6892 107.216 53.277 107.216H82.7924C83.6641 107.216 84.4141 106.628 84.6168 105.797L90.1915 83.2957C90.3334 82.7281 90.1915 82.1402 89.8469 81.674C89.5023 81.2077 88.9549 80.9442 88.3671 80.9442H58.8517Z" fill="#3A307F"/>
</svg>
