<svg width="94" height="113" viewBox="0 0 94 113" fill="none" xmlns="http://www.w3.org/2000/svg">
<path d="M51.2788 112.868L44.677 84.3635L15.66 90.2462C10.9365 96.4697 8.25845 105.986 6.77954 112.869H51.2788V112.868Z" fill="#FDFDFD"/>
<path d="M6.7631 113C6.75377 113 6.74367 112.999 6.73435 112.997C6.66052 112.982 6.61389 112.909 6.63021 112.836C8.80543 102.726 11.8068 95.0974 15.5518 90.1632C15.572 90.1369 15.6008 90.119 15.6334 90.112L44.6504 84.2293C44.7227 84.2146 44.7934 84.2604 44.8097 84.3318L51.4458 112.828C51.4629 112.901 51.417 112.974 51.344 112.991C51.2709 113.008 51.1979 112.962 51.1808 112.889L44.5743 84.5219L15.7376 90.3682C12.0314 95.2713 9.05723 102.849 6.89599 112.892C6.882 112.956 6.82605 112.999 6.7631 112.999V113Z" fill="#3A307F"/>
<path d="M40.0182 21.7687C39.7587 20.7077 39.311 19.6769 38.5626 18.8658C37.9036 18.1517 37.0542 17.6433 36.1527 17.2964C34.1562 16.5264 31.6274 15.0144 27.3104 15.5344C23.441 16.0001 20.0961 17.8568 16.1296 22.2647C12.54 26.2527 10.6857 31.2071 7.77609 35.6826C4.59601 40.5749 1.78741 45.9212 0.579732 51.6712C0.0442796 54.2225 -0.303104 56.9756 0.382337 59.5316C0.955092 61.6654 2.2094 63.5585 3.89969 64.975C5.63738 66.4311 7.74422 67.4013 9.94198 67.9284C12.9985 68.6619 16.1389 68.5059 19.2312 68.1147C20.7886 67.9175 22.3398 67.6722 23.8979 67.4828C24.9393 67.3563 25.9745 67.2345 27.0042 67.0272C29.188 66.5871 31.3694 65.9328 33.3441 64.8881C35.1339 63.9411 36.8001 62.6286 37.5446 60.6881C38.2277 58.9083 38.2277 56.9438 37.9666 55.0507C38.0381 54.3475 38.1337 53.6443 38.1982 52.9449C38.3458 51.3514 40.1527 52.0267 40.2708 50.4309C40.5164 47.1049 39.3258 41.5335 39.6234 38.2106C39.9001 35.1237 39.9941 32.0345 40.1814 28.943C40.3252 26.5694 40.5894 24.1081 40.0175 21.7695L40.0182 21.7687Z" fill="#3A307F"/>
<path d="M25.4807 32.0105L18.324 46.4507C18.324 46.4507 25.9897 77.2916 32.1696 76.8942C38.3494 76.4968 37.7339 48.7575 33.1293 46.5927L29.8288 46.089L32.5224 34.8258L25.4807 32.0098V32.0105Z" fill="#FDFDFD"/>
<path d="M31.0505 46.4495C31.0428 46.4495 31.0342 46.4495 31.0257 46.4472L29.804 46.2229C29.7675 46.2159 29.7348 46.1949 29.7146 46.1631C29.6944 46.1321 29.6874 46.0932 29.696 46.0575L32.3895 34.7943C32.4074 34.7214 32.4805 34.6764 32.5535 34.6934C32.6266 34.7105 32.6716 34.7842 32.6545 34.8572L29.9944 45.9815L31.0754 46.1794C31.1492 46.1926 31.1982 46.264 31.185 46.3377C31.1733 46.4029 31.1158 46.4495 31.0513 46.4495H31.0505Z" fill="#3A307F"/>
<path d="M38.6268 29.6153C38.4682 31.3275 37.9934 33.0444 37.0025 34.4509C36.0117 35.8573 34.4574 36.9223 32.7391 37.0783C31.2493 37.2133 29.7448 36.6576 28.5713 35.7316C27.3978 34.8056 26.5352 33.5319 25.922 32.1712C24.3615 32.2752 22.7971 31.2041 22.3347 29.7138C22.0674 28.8538 22.1739 27.8401 22.7777 27.1718C23.3815 26.5035 24.5255 26.3242 25.2071 26.9149C25.5956 27.2518 25.793 27.771 26.1948 28.0908C26.6432 28.4479 27.2859 28.4913 27.8299 28.3136C28.3747 28.1359 28.8348 27.7633 29.2334 27.3535C30.4893 26.0619 31.2501 24.3031 31.3309 22.5046C31.3232 22.6746 32.1058 23.1535 32.2433 23.2474C32.5884 23.4826 32.9544 23.6883 33.3344 23.8614C34.0844 24.2029 34.891 24.4203 35.7117 24.5049C36.1275 24.5476 36.5471 24.5561 36.9645 24.5282C37.2955 24.5064 37.7665 24.3318 38.089 24.4187C38.762 24.5996 38.619 25.8748 38.6485 26.3918C38.7099 27.4652 38.7278 28.5441 38.6291 29.616L38.6268 29.6153Z" fill="#FDFDFD"/>
<path d="M32.2977 37.2327C30.9914 37.2327 29.6259 36.7367 28.4858 35.8371C27.4134 34.9903 26.522 33.8043 25.835 32.3109C24.252 32.3683 22.6713 31.2623 22.2034 29.7534C21.8972 28.7661 22.0775 27.7415 22.6751 27.0802C23.3606 26.3219 24.5846 26.1961 25.2949 26.8116C25.4946 26.9847 25.6446 27.199 25.7892 27.407C25.9415 27.6251 26.0852 27.8308 26.2788 27.9845C26.6596 28.2872 27.237 28.364 27.7864 28.1839C28.2348 28.0372 28.663 27.7431 29.134 27.258C30.3634 25.9936 31.1141 24.258 31.1934 22.4984C31.1965 22.4231 31.2602 22.3657 31.3356 22.3688C31.4048 22.3719 31.4592 22.4262 31.4654 22.493C31.4957 22.5535 31.655 22.7033 32.2239 23.0728C32.2659 23.0999 32.2985 23.1217 32.3187 23.1349C32.6529 23.3631 33.0135 23.5656 33.3896 23.7372C34.1271 24.0733 34.9128 24.2859 35.7242 24.369C36.1353 24.4109 36.5495 24.4187 36.9536 24.3923C37.0608 24.3853 37.1883 24.3597 37.3235 24.3333C37.5986 24.279 37.8831 24.2223 38.1224 24.2875C38.7791 24.4637 38.7783 25.4262 38.7776 26.0626C38.7776 26.1891 38.7776 26.2978 38.7822 26.384C38.8553 27.6639 38.8491 28.6947 38.762 29.6284C38.5809 31.5852 38.0261 33.2346 37.1129 34.5292C36.0335 36.0607 34.403 37.0635 32.7508 37.2133C32.6008 37.2265 32.4501 37.2335 32.2977 37.2335V37.2327ZM25.9213 32.0338C25.9749 32.0338 26.0231 32.0649 26.0456 32.1138C26.7194 33.6071 27.5976 34.7877 28.6553 35.6237C29.8738 36.5854 31.3574 37.0658 32.7267 36.9416C34.3004 36.7988 35.8578 35.8387 36.8914 34.3717C37.7766 33.1158 38.3152 31.5114 38.4916 29.602C38.5771 28.6823 38.5833 27.6639 38.511 26.3979C38.5056 26.304 38.5056 26.1915 38.5056 26.0603C38.5056 25.5069 38.5071 24.6702 38.0517 24.5483C37.873 24.5002 37.6204 24.5506 37.3764 24.5987C37.2326 24.6275 37.0966 24.6539 36.9715 24.6624C36.551 24.6903 36.1221 24.6818 35.6962 24.6383C34.8553 24.5522 34.0416 24.3317 33.2769 23.9832C32.8868 23.8055 32.513 23.5951 32.1656 23.3584C32.147 23.346 32.1159 23.3258 32.0762 23.2994C31.7864 23.1116 31.5812 22.968 31.4429 22.8523C31.2843 24.5584 30.5258 26.2163 29.3306 27.4458C28.827 27.9635 28.3638 28.2794 27.8719 28.4409C27.2362 28.6489 26.5609 28.555 26.1093 28.1956C25.8847 28.0171 25.7231 27.785 25.5669 27.5607C25.4254 27.3581 25.291 27.1664 25.1169 27.0158C24.5247 26.5027 23.4577 26.6199 22.878 27.2611C22.3526 27.8432 22.1902 28.7886 22.4638 29.6711C22.9059 31.0954 24.4222 32.1324 25.9119 32.033C25.915 32.033 25.9182 32.033 25.9213 32.033V32.0338Z" fill="#3A307F"/>
<path d="M25.8636 30.6856C25.7984 30.6856 25.7408 30.6383 25.7292 30.5723C25.6017 29.814 24.9878 29.1643 24.2355 28.9927C24.1625 28.9757 24.1166 28.9035 24.1329 28.8297C24.1493 28.7568 24.2215 28.711 24.2961 28.7273C25.1533 28.9221 25.8535 29.6626 25.9981 30.5273C26.0105 30.601 25.9608 30.6716 25.8862 30.6841C25.8784 30.6856 25.8714 30.6856 25.8636 30.6856Z" fill="#3A307F"/>
<path d="M37.7493 48.6907H15.7212V75.0421H37.7493V48.6907Z" fill="#FDFDFD"/>
<path d="M11.4103 93.51C8.38721 91.9398 6.47622 88.8599 5.0284 85.7847C1.62606 78.5553 -0.0245918 70.5435 0.000276799 62.5589C0.0127111 58.5996 0.126951 52.6486 2.44983 49.436C4.96389 45.9595 17.9966 45.1142 19.0046 45.6707C20.9738 46.7581 34.3392 81.3791 35.1109 80.8932C35.6269 80.5679 30.0859 47.3682 30.0859 45.8989C33.4423 45.9463 39.5577 46.4306 41.9575 47.844C44.5345 49.3622 49.8665 62.6443 51.3423 71.1513C51.7371 73.4286 51.7923 83.0052 49.8657 84.7795C49.2424 85.3539 48.6495 85.8677 48.1327 86.3001C47.1496 87.1228 45.8626 87.4667 44.5905 87.292C37.5923 86.3319 20.6645 91.8001 19.2323 92.9574C17.0757 94.6999 13.8202 94.762 11.4095 93.51H11.4103Z" fill="#EA3934"/>
<path d="M36.6558 70.5201C36.6465 70.5201 36.6372 70.5193 36.6278 70.517C36.554 70.5015 36.5074 70.4293 36.5229 70.3555L38.7168 60.0059L33.9428 57.0673C33.9047 57.044 33.8798 57.0028 33.8783 56.9578C33.876 56.9128 33.8969 56.8701 33.9327 56.8429L37.2651 54.3522L33.0102 46.6594C32.9737 46.5934 32.9978 46.5112 33.0638 46.4747C33.1299 46.4382 33.2123 46.4623 33.2488 46.5282L37.5612 54.3242C37.5938 54.384 37.5783 54.4585 37.5239 54.4989L34.2568 56.9407L38.9422 59.8243C38.9911 59.8545 39.016 59.912 39.0043 59.9679L36.7902 70.4114C36.777 70.4751 36.7203 70.5193 36.6574 70.5193L36.6558 70.5201Z" fill="#3A307F"/>
<path d="M25.7821 71.5332C25.7362 71.5332 25.6919 71.5099 25.6655 71.468L20.1151 62.4309C20.0841 62.3796 20.0895 62.3144 20.1291 62.2694L23.5151 58.4521L17.4837 56.9409C17.4231 56.9254 17.3804 56.8711 17.3804 56.809V47.4878C17.3804 47.4125 17.441 47.3519 17.5164 47.3519C17.5918 47.3519 17.6524 47.4125 17.6524 47.4878V56.7034L23.798 58.2433C23.8439 58.255 23.8812 58.2899 23.8952 58.3349C23.9092 58.38 23.8983 58.4296 23.8672 58.4653L20.3988 62.375L25.8963 71.3259C25.9359 71.3896 25.9157 71.4734 25.8512 71.513C25.8287 71.527 25.8046 71.5332 25.7805 71.5332H25.7821Z" fill="#3A307F"/>
<path d="M17.8405 76.6218C17.783 76.6218 17.7293 76.5853 17.7107 76.5271C16.5792 72.9869 14.3806 64.1951 13.6462 59.011C13.6353 58.9364 13.6874 58.8681 13.762 58.8573C13.8366 58.8464 13.9058 58.8984 13.9159 58.9729C14.648 64.1439 16.8411 72.9132 17.9702 76.4448C17.9928 76.5162 17.9539 76.5931 17.8816 76.6156C17.8677 76.6202 17.8537 76.6218 17.8405 76.6218Z" fill="#3A307F"/>
<path d="M43.8467 69.5214C43.8319 69.5214 43.8164 69.5191 43.8016 69.5137C43.7309 69.4888 43.6936 69.4112 43.7184 69.3406C45.0442 65.559 44.0036 63.0581 41.896 60.2491C41.851 60.1894 41.8634 60.104 41.9232 60.059C41.9831 60.0139 42.0686 60.0264 42.1136 60.0861C44.2757 62.9665 45.3411 65.5349 43.9749 69.4306C43.9555 69.4865 43.9026 69.5214 43.8467 69.5214Z" fill="#3A307F"/>
<path d="M19.4546 90.4803C19.5719 90.8622 19.7398 91.2946 20.1206 91.4195C20.4213 91.5181 20.7866 91.4506 21.0322 91.2503C26.2981 86.9681 30.4978 84.2103 36.7351 81.5364C37.5278 81.1964 36.2751 84.6465 40.7872 81.5659C41.499 81.08 40.9037 79.6293 40.0528 79.4872C40.7569 79.3887 41.3576 78.7825 41.447 78.0792C41.5371 77.3768 41.1081 76.6394 40.4507 76.3685C41.1322 76.4958 41.7664 75.8182 41.7998 75.1282C41.8324 74.4382 41.4229 73.7986 40.9286 73.3142C42.8155 74.227 45.4601 76.887 46.9554 75.094C47.3556 73.2778 46.0811 72.3106 44.6667 71.0975C43.2523 69.8843 41.4089 69.2827 39.5741 68.9389C35.4956 68.1744 31.2477 68.5547 27.261 69.7058C23.753 70.7187 20.4136 72.3099 17.3159 74.2278C16.5543 74.699 16.3001 74.8006 16.2885 75.6762C16.2761 76.6146 16.5519 77.6469 16.6988 78.5729C17.0042 80.5002 17.3749 82.4173 17.8094 84.3198C18.2826 86.3922 18.8313 88.4475 19.4546 90.4803Z" fill="#FDFDFD"/>
<path d="M36.8473 81.6026C36.7898 81.6026 36.7362 81.5653 36.7175 81.5079C36.695 81.4365 36.7346 81.3596 36.8061 81.3371L38.6098 80.7635C38.6813 80.741 38.7583 80.7806 38.7808 80.852C38.8034 80.9234 38.7637 81.0002 38.6922 81.0228L36.8885 81.5964C36.8745 81.601 36.8605 81.6026 36.8473 81.6026Z" fill="#3A307F"/>
<path d="M29.6144 69.1525C29.5569 69.1525 29.5032 69.1153 29.4846 69.0578C29.4621 68.9864 29.5017 68.9096 29.5732 68.8871C30.2136 68.6837 32.2652 68.3073 33.5032 68.3073C33.5786 68.3073 33.6392 68.3678 33.6392 68.4431C33.6392 68.5184 33.5786 68.5789 33.5032 68.5789C32.2901 68.5789 30.2819 68.9468 29.6556 69.1463C29.6416 69.151 29.6276 69.1525 29.6144 69.1525Z" fill="#3A307F"/>
<path d="M9.83363 78.8833C9.794 78.8833 9.75514 78.8663 9.72794 78.8337C9.68054 78.7754 9.68909 78.6901 9.74659 78.6419C11.555 77.1625 13.5453 75.9106 15.663 74.9186C15.7314 74.8868 15.8122 74.9163 15.8441 74.9838C15.8759 75.0521 15.8464 75.1328 15.7788 75.1646C13.6813 76.1465 11.7104 77.3869 9.9199 78.8515C9.89503 78.8725 9.86394 78.8826 9.83363 78.8826V78.8833Z" fill="#3A307F"/>
<path d="M42.4332 83.2364C42.4619 84.4224 42.8016 85.6922 43.7411 86.4211C44.9488 87.3587 46.6803 87.0925 48.1514 86.671C55.1348 84.67 61.4328 80.8108 65.0535 74.533C65.2027 74.2738 66.5316 71.1 65.9876 70.3843C65.4755 69.7106 64.2049 70.9905 63.3749 71.1644C59.779 71.9165 56.2306 72.8937 52.7568 74.0883C50.9717 74.7023 49.2052 75.3729 47.4636 76.0994C46.1316 76.6551 44.9985 76.8049 44.1087 78.008C43.0013 79.5053 42.3889 81.3743 42.434 83.2364H42.4332Z" fill="#FDFDFD"/>
<path d="M48.1514 86.8071C48.0923 86.8071 48.0379 86.7682 48.0208 86.7085C47.9998 86.6363 48.0418 86.561 48.114 86.54C55.8396 84.3264 61.6566 80.1505 64.9361 74.465C65.1498 74.0939 66.3404 71.0723 65.8796 70.4661C65.8337 70.4063 65.8461 70.3209 65.906 70.2759C65.9658 70.2301 66.0513 70.2425 66.0964 70.3023C66.7088 71.108 65.285 74.4044 65.1716 74.6016C61.8563 80.35 55.9842 84.5685 48.1887 86.8024C48.1762 86.8063 48.1638 86.8078 48.1514 86.8078V86.8071Z" fill="#3A307F"/>
<path d="M69.7101 64.3131H56.8717C56.5981 64.3131 56.3394 64.4381 56.1707 64.6531L45.8215 77.7745C45.3614 78.3574 45.7787 79.2127 46.5225 79.2127H58.9164C59.1837 79.2127 59.4371 79.0932 59.6065 78.8875L70.4002 65.7661C70.8774 65.1855 70.4632 64.3139 69.7101 64.3139V64.3131Z" fill="#3A307F"/>
<path d="M64.2524 66.0023C64.0977 65.861 63.8786 65.7228 63.6936 65.8222C63.5327 65.9083 63.5032 66.121 63.4931 66.3026C63.3905 68.0793 63.2887 69.856 63.1861 71.6319C63.2079 70.0431 62.7937 68.3999 61.7609 67.189C61.5067 66.891 61.0575 66.61 60.7568 66.8615C60.5757 67.0129 60.5617 67.2814 60.5726 67.5174C60.6612 69.5114 61.4624 71.5729 60.7583 73.442C60.6332 72.2536 60.3496 71.0824 59.9175 69.9678C59.7403 69.5114 59.5211 69.0418 59.1209 68.7577C58.7207 68.4736 58.0904 68.4566 57.7912 68.8446C57.4734 69.2568 57.67 69.8444 57.8448 70.3341C58.3515 71.7538 58.566 73.2759 58.472 74.7793C58.2777 73.605 58.0352 72.3375 57.1563 71.5318C56.8983 71.2958 56.5804 71.1057 56.2315 71.077C55.8825 71.0482 55.5041 71.212 55.3533 71.5271C55.187 71.8733 55.3246 72.28 55.4357 72.6472C55.8647 74.0637 55.8546 75.6037 55.4388 77.0217C55.1264 78.0851 53.7897 79.5172 55.2041 80.3469C55.6898 80.6318 56.289 80.6543 56.8462 80.5743C58.4222 80.3492 59.7916 79.4008 61.0233 78.3964C62.2808 77.3703 63.4752 76.244 64.393 74.9066C65.3109 73.5693 65.9427 72.0037 65.9885 70.3846C66.0351 68.7655 65.4507 67.0967 64.2524 66.0023Z" fill="#FDFDFD"/>
<path d="M30.2483 44.2897L26.8227 47.1546L19.422 43.2543L16.4424 47.1546L24.5651 54.1278L26.8227 50.4689L30.2483 53.198L31.5547 48.1225L30.2483 44.2897Z" fill="#FDFDFD"/>
<path d="M24.5651 54.2638C24.5325 54.2638 24.5014 54.2521 24.4765 54.2312L22.4761 52.5143C22.4194 52.4654 22.4124 52.3792 22.4614 52.3225C22.5103 52.2659 22.5966 52.2589 22.6533 52.3078L24.5325 53.9207L26.7069 50.3968C26.7271 50.3634 26.7613 50.3409 26.7994 50.334C26.8383 50.327 26.8771 50.3371 26.9074 50.3619L30.1675 52.9606L30.6268 51.1753C30.6455 51.1024 30.7201 51.0589 30.7924 51.0775C30.8654 51.0962 30.9089 51.1707 30.8903 51.2429L30.3781 53.2314C30.3665 53.2765 30.3331 53.3122 30.2896 53.3261C30.246 53.3409 30.1979 53.3323 30.1613 53.3036L26.8569 50.67L24.6794 54.1986C24.6584 54.2327 24.6234 54.2552 24.5845 54.2614C24.5775 54.2622 24.5706 54.263 24.5636 54.263L24.5651 54.2638Z" fill="#3A307F"/>
<path d="M26.8233 47.2903C26.8016 47.2903 26.7798 47.2849 26.7596 47.2748L19.4607 43.4281L17.8054 45.5952C17.7603 45.6549 17.674 45.6666 17.615 45.6208C17.5551 45.575 17.5435 45.4896 17.5893 45.4298L19.3146 43.1711C19.355 43.1184 19.4273 43.1021 19.4863 43.1331L26.8062 46.9915L30.1612 44.1848C30.1954 44.1561 30.242 44.146 30.2855 44.1584C30.329 44.1709 30.3632 44.2035 30.378 44.2454L30.9321 45.8707C30.9562 45.9421 30.9181 46.019 30.8474 46.043C30.7759 46.0671 30.699 46.029 30.6749 45.9584L30.1845 44.5209L26.9119 47.2585C26.8871 47.2795 26.856 47.2903 26.8241 47.2903H26.8233Z" fill="#3A307F"/>
<path d="M62.7757 61.7687C62.7469 61.7687 62.7158 61.7555 62.7158 61.5941V20.5463C62.7158 20.3849 62.7469 20.3717 62.7757 20.3717H70.5828C70.6116 20.3717 70.6427 20.3849 70.6427 20.5463V35.1557C70.6427 35.3171 70.6116 35.3303 70.5828 35.3303C70.5541 35.3303 70.523 35.3171 70.523 35.1557V20.721H62.8363V61.5941C62.8363 61.7555 62.8052 61.7687 62.7764 61.7687H62.7757Z" fill="#3A307F"/>
<path d="M70.5821 20.4106C70.5938 20.4106 70.6031 20.4712 70.6031 20.5465V35.1558C70.6031 35.2311 70.5938 35.2916 70.5821 35.2916C70.5705 35.2916 70.5611 35.2311 70.5611 35.1558V20.6823H62.7967V61.5942C62.7967 61.6695 62.7874 61.73 62.7757 61.73C62.764 61.73 62.7547 61.6695 62.7547 61.5942V20.5465C62.7547 20.4712 62.764 20.4106 62.7757 20.4106H70.5821ZM70.5821 20.333H62.7757C62.6848 20.333 62.677 20.4432 62.677 20.5465V61.5942C62.677 61.6974 62.6848 61.8076 62.7757 61.8076C62.8666 61.8076 62.8744 61.6974 62.8744 61.5942V20.7599H70.4834V35.1558C70.4834 35.259 70.4912 35.3692 70.5821 35.3692C70.673 35.3692 70.6808 35.259 70.6808 35.1558V20.5465C70.6808 20.4432 70.673 20.333 70.5821 20.333Z" fill="#3A307F"/>
<path d="M74.77 0.13562H50.0623C48.0915 0.13562 46.4937 1.73145 46.4937 3.69986V27.2889C46.4937 31.0572 48.6075 34.5082 51.9679 36.2235L62.8541 41.781L73.0665 36.2732C76.315 34.5213 78.3395 31.1317 78.3395 27.4441V3.70063C78.3395 1.73223 76.7416 0.136396 74.7708 0.136396L74.77 0.13562Z" fill="#FDFDFD"/>
<path d="M62.8534 41.917C62.8324 41.917 62.8106 41.9124 62.7912 41.9023L51.905 36.3448C48.4824 34.5976 46.3569 31.1281 46.3569 27.2898V3.70084C46.3569 1.66026 48.0192 0 50.0624 0H74.7701C76.8132 0 78.4755 1.66026 78.4755 3.70084V27.4451C78.4755 31.1871 76.4277 34.6155 73.1311 36.3937L62.9186 41.9015C62.8984 41.9124 62.8759 41.9178 62.8541 41.9178L62.8534 41.917ZM50.0631 0.271664C48.17 0.271664 46.6305 1.81006 46.6305 3.70007V27.2891C46.6305 31.0248 48.6992 34.402 52.0301 36.1026L62.8526 41.6275L73.0021 36.1539C76.2101 34.4238 78.2035 31.0862 78.2035 27.4451V3.70084C78.2035 1.81006 76.664 0.272441 74.7709 0.272441H50.0631V0.271664Z" fill="#3A307F"/>
<path d="M53.3652 33.4941C51.0206 32.2972 49.5642 29.9198 49.5642 27.2901V3.70107C49.5642 3.4263 49.788 3.20276 50.0631 3.20276H74.7709C75.046 3.20276 75.2698 3.4263 75.2698 3.70107V27.4453C75.2698 30.009 73.8671 32.3578 71.6079 33.5764L62.8145 38.3189L53.3652 33.4949V33.4941Z" fill="#D4D2E1"/>
<path d="M56.7156 13.4479H54.1907V14.1845H54.6142V22.981H56.2921V14.1845H56.7156V13.4479Z" fill="#FDFDFD"/>
<path d="M56.2921 23.117H54.6142C54.5388 23.117 54.4782 23.0565 54.4782 22.9812V14.3205H54.1907C54.1153 14.3205 54.0547 14.26 54.0547 14.1847V13.4481C54.0547 13.3728 54.1153 13.3123 54.1907 13.3123H56.7156C56.791 13.3123 56.8516 13.3728 56.8516 13.4481V14.1847C56.8516 14.26 56.791 14.3205 56.7156 14.3205H56.4281V22.9812C56.4281 23.0565 56.3675 23.117 56.2921 23.117ZM54.751 22.8453H56.1561V14.1847C56.1561 14.1094 56.2167 14.0489 56.2921 14.0489H56.5796V13.5839H54.3267V14.0489H54.6142C54.6896 14.0489 54.7502 14.1094 54.7502 14.1847V22.8453H54.751Z" fill="#3A307F"/>
<path d="M57.4694 24.3876V23.2908H56.8749V22.6986H54.0313V23.2908H53.4368V24.3876H57.4694Z" fill="#FDFDFD"/>
<path d="M57.4694 24.5233C57.394 24.5233 57.3334 24.4627 57.3334 24.3874V23.4273H56.8749C56.7995 23.4273 56.7389 23.3667 56.7389 23.2915V22.8343H54.1673V23.2915C54.1673 23.3667 54.1067 23.4273 54.0313 23.4273H53.5728V24.3874C53.5728 24.4627 53.5122 24.5233 53.4368 24.5233C53.3614 24.5233 53.3008 24.4627 53.3008 24.3874V23.2915C53.3008 23.2162 53.3614 23.1556 53.4368 23.1556H53.8953V22.6985C53.8953 22.6232 53.9559 22.5626 54.0313 22.5626H56.8749C56.9503 22.5626 57.0109 22.6232 57.0109 22.6985V23.1556H57.4694C57.5448 23.1556 57.6054 23.2162 57.6054 23.2915V24.3874C57.6054 24.4627 57.5448 24.5233 57.4694 24.5233Z" fill="#3A307F"/>
<path d="M63.6949 13.4478H61.1699V14.1844H61.5935V22.9808H63.2713V14.1844H63.6949V13.4478Z" fill="#FDFDFD"/>
<path d="M63.2713 23.1169H61.5935C61.5181 23.1169 61.4575 23.0563 61.4575 22.9811V14.3204H61.1699C61.0946 14.3204 61.0339 14.2599 61.0339 14.1846V13.448C61.0339 13.3727 61.0946 13.3121 61.1699 13.3121H63.6949C63.7703 13.3121 63.8309 13.3727 63.8309 13.448V14.1846C63.8309 14.2599 63.7703 14.3204 63.6949 14.3204H63.4073V22.9811C63.4073 23.0563 63.3467 23.1169 63.2713 23.1169ZM61.7295 22.8452H63.1346V14.1846C63.1346 14.1093 63.1952 14.0487 63.2706 14.0487H63.5581V13.5838H61.3052V14.0487H61.5927C61.6681 14.0487 61.7287 14.1093 61.7287 14.1846V22.8452H61.7295Z" fill="#3A307F"/>
<path d="M64.4489 24.3875V23.2907H63.8543V22.6985H61.0108V23.2907H60.4163V24.3875H64.4489Z" fill="#FDFDFD"/>
<path d="M64.4489 24.5231C64.3735 24.5231 64.3129 24.4626 64.3129 24.3873V23.4272H63.8544C63.779 23.4272 63.7184 23.3666 63.7184 23.2913V22.8342H61.1468V23.2913C61.1468 23.3666 61.0862 23.4272 61.0108 23.4272H60.5523V24.3873C60.5523 24.4626 60.4917 24.5231 60.4163 24.5231C60.3409 24.5231 60.2803 24.4626 60.2803 24.3873V23.2913C60.2803 23.216 60.3409 23.1555 60.4163 23.1555H60.8748V22.6983C60.8748 22.623 60.9354 22.5625 61.0108 22.5625H63.8551C63.9305 22.5625 63.9911 22.623 63.9911 22.6983V23.1555H64.4497C64.525 23.1555 64.5857 23.216 64.5857 23.2913V24.3873C64.5857 24.4626 64.525 24.5231 64.4497 24.5231H64.4489Z" fill="#3A307F"/>
<path d="M70.6746 13.4482H68.1489V14.1848H68.5732V22.8967H70.2503V14.1848H70.6746V13.4482Z" fill="#FDFDFD"/>
<path d="M70.2503 23.0333H68.5725C68.4971 23.0333 68.4365 22.9727 68.4365 22.8974V14.3214H68.1489C68.0736 14.3214 68.0129 14.2608 68.0129 14.1855V13.4489C68.0129 13.3737 68.0736 13.3131 68.1489 13.3131H70.6739C70.7493 13.3131 70.8099 13.3737 70.8099 13.4489V14.1855C70.8099 14.2608 70.7493 14.3214 70.6739 14.3214H70.3863V22.8974C70.3863 22.9727 70.3257 23.0333 70.2503 23.0333ZM68.7093 22.7608H70.1143V14.1848C70.1143 14.1095 70.175 14.0489 70.2503 14.0489H70.5379V13.584H68.2849V14.0489H68.5725C68.6479 14.0489 68.7085 14.1095 68.7085 14.1848V22.7608H68.7093Z" fill="#3A307F"/>
<path d="M71.4276 24.3877V23.291H70.8338V22.6987H67.9895V23.291H67.3958V24.3877H71.4276Z" fill="#FDFDFD"/>
<path d="M71.4276 24.5234C71.3522 24.5234 71.2916 24.4628 71.2916 24.3876V23.4274H70.8331C70.7577 23.4274 70.6971 23.3669 70.6971 23.2916V22.8344H68.1255V23.2916C68.1255 23.3669 68.0649 23.4274 67.9895 23.4274H67.531V24.3876C67.531 24.4628 67.4704 24.5234 67.395 24.5234C67.3197 24.5234 67.259 24.4628 67.259 24.3876V23.2916C67.259 23.2163 67.3197 23.1557 67.395 23.1557H67.8535V22.6986C67.8535 22.6233 67.9142 22.5627 67.9895 22.5627H70.8339C70.9093 22.5627 70.9699 22.6233 70.9699 22.6986V23.1557H71.4284C71.5038 23.1557 71.5644 23.2163 71.5644 23.2916V24.3876C71.5644 24.4628 71.5038 24.5234 71.4284 24.5234H71.4276Z" fill="#3A307F"/>
<path d="M72.3518 12.7892H52.5144C52.439 12.7892 52.3784 12.7287 52.3784 12.6534C52.3784 12.5781 52.439 12.5176 52.5144 12.5176H72.3518C72.4272 12.5176 72.4878 12.5781 72.4878 12.6534C72.4878 12.7287 72.4272 12.7892 72.3518 12.7892Z" fill="#3A307F"/>
<path d="M72.351 24.3876H52.5137V25.423H72.351V24.3876Z" fill="#FDFDFD"/>
<path d="M72.3518 25.5582C72.2764 25.5582 72.2158 25.4976 72.2158 25.4224V24.5235H52.6504V25.4224C52.6504 25.4976 52.5898 25.5582 52.5144 25.5582C52.439 25.5582 52.3784 25.4976 52.3784 25.4224V24.3869C52.3784 24.3116 52.439 24.2511 52.5144 24.2511H72.3518C72.4272 24.2511 72.4878 24.3116 72.4878 24.3869V25.4224C72.4878 25.4976 72.4272 25.5582 72.3518 25.5582Z" fill="#3A307F"/>
<path d="M69.5539 25.4225H73.4265V26.4579H51.4387V25.4225H55.7822H69.5539Z" fill="#FDFDFD"/>
<path d="M73.4265 26.5936H51.4387C51.3634 26.5936 51.3027 26.5331 51.3027 26.4578V25.4223C51.3027 25.347 51.3634 25.2865 51.4387 25.2865H55.7822C55.8576 25.2865 55.9182 25.347 55.9182 25.4223C55.9182 25.4976 55.8576 25.5582 55.7822 25.5582H51.5747V26.3212H73.2897V25.5582H69.5532C69.4778 25.5582 69.4172 25.4976 69.4172 25.4223C69.4172 25.347 69.4778 25.2865 69.5532 25.2865H73.4257C73.5011 25.2865 73.5617 25.347 73.5617 25.4223V26.4578C73.5617 26.5331 73.5011 26.5936 73.4257 26.5936H73.4265Z" fill="#3A307F"/>
<path d="M62.4321 8.17175L52.5134 11.6537H72.3516L62.4321 8.17175Z" fill="#FDFDFD"/>
<path d="M72.3516 11.7894H52.5142C52.4482 11.7894 52.3914 11.7412 52.3798 11.676C52.3681 11.6108 52.4062 11.5472 52.4684 11.5247L62.3871 8.04272C62.4166 8.03263 62.4485 8.03263 62.4772 8.04272L72.3959 11.5247C72.4581 11.5464 72.4961 11.6108 72.4845 11.676C72.4736 11.7412 72.4169 11.7894 72.35 11.7894H72.3516ZM53.3116 11.5177H71.5535L62.4321 8.31594L53.3108 11.5177H53.3116Z" fill="#3A307F"/>
<path d="M85.8641 57.8482C90.0202 53.6973 90.0202 46.9673 85.8641 42.8164C81.7081 38.6655 74.9698 38.6655 70.8138 42.8164C66.6577 46.9673 66.6577 53.6973 70.8138 57.8482C74.9698 61.9991 81.7081 61.9991 85.8641 57.8482Z" fill="#EA3934"/>
<path d="M77.6796 54.7435C77.5817 54.7435 77.4876 54.707 77.4154 54.6403L73.7309 51.2289C73.5732 51.083 73.5638 50.8377 73.7099 50.6802C73.856 50.5226 74.1024 50.5141 74.2594 50.6592L77.6314 53.7818L83.0605 46.7573C83.1919 46.5874 83.4359 46.5563 83.6061 46.6875C83.7763 46.8187 83.8074 47.0624 83.676 47.2324L77.9873 54.5929C77.9205 54.6791 77.8203 54.7334 77.7115 54.7427C77.7006 54.7435 77.6897 54.7443 77.6796 54.7443V54.7435Z" fill="#FDFDFD"/>
</svg>
