<svg width="101" height="100" viewBox="0 0 101 100" fill="none" xmlns="http://www.w3.org/2000/svg">
<path d="M62.7235 60.4175C63.1735 59.5895 63.0665 59.2115 64.1975 55.888C64.7475 54.269 65.3375 52.6525 66.013 51.08C66.093 50.894 65.8255 50.73 65.7345 50.9175C64.6279 53.155 63.6835 55.4691 62.9085 57.842C62.5873 58.6289 62.3734 59.4555 62.2725 60.2995C62.2748 60.3515 62.2937 60.4015 62.3264 60.442C62.3592 60.4825 62.404 60.5115 62.4545 60.5247C62.5049 60.5379 62.5582 60.5346 62.6066 60.5153C62.655 60.496 62.696 60.4617 62.7235 60.4175Z" fill="#EA3934"/>
<path d="M60.877 56.6195C59.0015 57.0555 58.507 57.247 56.2335 56.7665C56.0495 56.7275 55.914 56.9885 56.1025 57.085C57.527 57.815 59.661 57.885 61.045 57.013C61.0888 56.9856 61.1214 56.9435 61.1369 56.8943C61.1524 56.845 61.1498 56.7918 61.1295 56.7443C61.1092 56.6968 61.0726 56.6581 61.0263 56.6352C60.98 56.6123 60.927 56.6067 60.877 56.6195Z" fill="#EA3934"/>
<path d="M68.8769 43.996C68.8546 43.9628 68.8204 43.9393 68.7814 43.9303C68.7423 43.9213 68.7013 43.9276 68.6667 43.9478C68.6321 43.968 68.6065 44.0006 68.5952 44.039C68.5838 44.0774 68.5874 44.1187 68.6054 44.1545C69.0758 45.1266 69.7492 45.9864 70.5803 46.676C71.4113 47.3656 72.3806 47.8689 73.4228 48.1519C74.4649 48.4349 75.5557 48.4911 76.6214 48.3166C77.6871 48.1422 78.7029 47.7411 79.6004 47.1405C80.5404 46.5315 81.8139 45.4905 82.2234 44.3405C82.5369 44.6405 84.3804 46.367 84.3949 46.372C81.7724 49.672 78.2849 52.2845 73.9324 52.5055C69.7619 52.7175 64.7324 50.6485 63.3609 46.3865C63.3477 46.3526 63.3224 46.3248 63.2899 46.3084C63.2574 46.2921 63.22 46.2884 63.185 46.298C63.1499 46.3077 63.1196 46.33 63.1 46.3606C63.0804 46.3913 63.0729 46.4281 63.0789 46.464C64.1194 52.042 73.3684 55.8605 80.7189 50.8705C82.4163 49.8168 83.8017 48.3291 84.7319 46.561C85.1269 45.74 82.1549 43.476 81.9084 43.7285C81.4719 44.1755 81.1914 44.766 80.7744 45.238C80.1296 45.9696 79.3461 46.5659 78.4692 46.9925C77.5923 47.419 76.6395 47.6673 75.6659 47.723C72.9259 47.85 70.3349 46.262 68.8769 43.996Z" fill="#EA3934"/>
<path d="M83.0106 43.2575C82.6991 42.4495 83.1296 41.8685 83.5571 41.2315C83.5754 41.1961 83.5833 41.1562 83.5797 41.1165C83.5761 41.0768 83.5613 41.039 83.5369 41.0074C83.5125 40.9759 83.4796 40.952 83.4421 40.9385C83.4045 40.9251 83.364 40.9226 83.3251 40.9315C82.3426 41.278 82.2686 42.6115 82.6696 43.4025C82.7621 43.5835 83.0861 43.454 83.0106 43.2575Z" fill="#EA3934"/>
<path d="M84.0501 41.3465C84.4871 40.9465 84.8009 41.0777 84.9916 41.74C84.9591 41.937 85.1236 42.212 85.3631 42.1125C85.7216 41.9625 86.1601 42.339 85.7211 42.6885C85.4711 42.8885 85.7431 43.306 86.0291 43.213C86.4741 43.322 86.5791 43.5385 86.3556 43.8685C86.1026 44.2405 85.6666 44.3505 85.3211 44.5715C85.2648 44.6055 85.2226 44.6586 85.2022 44.7211C85.1819 44.7836 85.1846 44.8513 85.21 44.912C85.2354 44.9726 85.2818 45.022 85.3406 45.0513C85.3995 45.0806 85.4669 45.0878 85.5306 45.0715C86.2741 44.955 87.1201 44.361 87.1151 43.528C87.114 43.3373 87.0574 43.1509 86.9521 42.9919C86.8467 42.8328 86.6973 42.7079 86.5221 42.6325C86.5593 42.4904 86.5627 42.3415 86.5321 42.1978C86.5015 42.054 86.4378 41.9194 86.3459 41.8047C86.254 41.69 86.1366 41.5984 86.003 41.5372C85.8695 41.4759 85.7234 41.4468 85.5766 41.452C85.5393 41.2576 85.4438 41.079 85.3026 40.9402C85.1614 40.8014 84.9812 40.7089 84.7862 40.675C84.5911 40.6411 84.3903 40.6675 84.2106 40.7506C84.0308 40.8336 83.8807 40.9695 83.7801 41.14C83.6681 41.3035 83.9151 41.487 84.0501 41.3465Z" fill="#EA3934"/>
<path d="M56.1535 42.4825C56.0415 42.66 56.312 42.8106 56.4315 42.6451C57.3805 41.3466 58.6307 40.298 60.0746 39.5896C61.5116 38.8726 62.9745 38.7291 64.519 38.4446C64.5591 38.4318 64.5954 38.4094 64.6246 38.3792C64.6539 38.349 64.6752 38.3121 64.6866 38.2716C64.6981 38.2312 64.6993 38.1886 64.6902 38.1475C64.6811 38.1065 64.662 38.0684 64.6345 38.0366C65.159 37.2261 66.7475 39.1496 67.087 39.5316C67.6939 40.222 68.1891 41.0031 68.5545 41.8466C68.6355 42.0306 68.877 41.9121 68.894 41.7546C68.9304 41.2318 68.7886 40.7122 68.4916 40.2806C68.6606 40.0489 68.7998 39.7969 68.906 39.5306C69.1649 39.7254 69.4667 39.8554 69.7861 39.9098C70.1055 39.9641 70.4333 39.9413 70.742 39.8431C71.2814 39.6508 71.7572 39.3133 72.117 38.8679C72.4768 38.4224 72.7066 37.8863 72.781 37.3186C73.2875 37.6321 73.781 36.9986 73.892 36.6236C74.047 35.9319 74.1061 35.2223 74.0675 34.5146C74.0675 34.2521 74.0675 33.9901 74.056 33.7341C75.006 33.5141 75.6671 32.5541 75.7061 31.2751C75.7251 30.6561 75.6375 30.0051 75.029 29.7016C74.229 29.3016 73.574 30.0206 72.81 29.8326C71.8925 29.6071 71.6656 28.1676 70.7331 28.0296C70.1876 27.9491 69.7575 28.3461 69.2905 28.5371C68.7725 28.7486 68.2621 28.5606 67.7536 28.7651C65.6631 29.6056 65.4346 34.0111 66.6976 35.6071C66.2657 36.1471 65.8822 36.7242 65.5515 37.3316C64.7745 36.9631 64.1721 37.3706 64.1016 37.9216C61.7026 37.7351 58.1345 39.3385 56.1535 42.4825ZM67.2 35.8501C67.65 35.7831 68.6296 34.5121 68.6296 34.5121C68.6296 34.5121 68.42 33.5241 68.826 33.2086C68.9721 33.0886 69.1524 33.0181 69.341 33.0071C69.5297 32.996 69.717 33.045 69.876 33.1471C70.0065 33.2441 70.1121 33.3896 70.2696 33.4091C70.6771 33.4591 70.625 32.8226 71.029 32.7181C71.749 32.5326 71.9791 33.6041 73.4261 33.7766C73.4261 33.9826 73.3436 36.2001 73.3226 36.2956C73.3226 36.5766 73.1366 36.6891 72.7536 36.6456C72.5036 36.6021 72.3601 36.5956 72.3076 36.6916C71.8656 37.5096 71.8961 38.4151 71.0131 38.9786C70.8095 39.1182 70.578 39.2118 70.3346 39.2528C70.0912 39.2937 69.8418 39.2811 69.6038 39.2158C69.3658 39.1505 69.1449 39.0341 68.9565 38.8746C68.7681 38.7151 68.6168 38.5165 68.5131 38.2926C68.4631 38.1621 68.2305 38.1616 68.251 38.3281C68.2859 38.6265 68.3925 38.9121 68.5616 39.1606C68.4035 39.3682 68.2796 39.5998 68.1946 39.8466C68.1671 39.8101 67.0601 38.1246 65.9206 37.5401C66.1911 37.2501 67.024 36.1001 67.2 35.8501Z" fill="#EA3934"/>
<path d="M71.7 34.585C71.4937 34.7459 71.3473 34.9712 71.284 35.225C71.2668 35.2918 71.2742 35.3625 71.3046 35.4243C71.3351 35.4862 71.3867 35.535 71.4501 35.5621C71.5135 35.5892 71.5845 35.5927 71.6502 35.5719C71.716 35.5512 71.7721 35.5076 71.8085 35.449C71.9453 35.2477 72.0177 35.0095 72.016 34.766C72.012 34.627 71.838 34.479 71.7 34.585Z" fill="#EA3934"/>
<path d="M70.7556 34.1031C70.989 34.0898 71.2189 34.0806 71.4496 34.0475C71.5576 34.0477 71.6647 34.0264 71.7644 33.9849C71.8642 33.9434 71.9548 33.8826 72.0308 33.8058C72.0576 33.7638 72.0667 33.7129 72.0563 33.6641C72.046 33.6153 72.0169 33.5726 71.9753 33.545C71.7835 33.4612 71.567 33.4532 71.3695 33.5225C71.149 33.5708 70.9313 33.6306 70.7172 33.7019C70.5124 33.7657 70.509 34.117 70.7556 34.1031Z" fill="#EA3934"/>
<path d="M70.8259 38.3014C70.8639 38.309 70.9032 38.308 70.9409 38.2986C70.9785 38.2892 71.0136 38.2715 71.0436 38.2469C71.0737 38.2222 71.0978 38.1912 71.1144 38.1561C71.131 38.121 71.1396 38.0827 71.1396 38.0439C70.9847 37.5856 70.6758 37.1952 70.2654 36.9391C70.2239 36.9298 70.1805 36.9372 70.1444 36.9596C70.1084 36.9821 70.0826 37.0179 70.0728 37.0593C70.1642 37.5512 70.432 37.9929 70.8259 38.3014Z" fill="#EA3934"/>
<path d="M45.1699 43.529C45.8259 43.02 46.3404 42.3515 47.0494 41.882C47.8378 41.3443 48.7312 40.9798 49.6707 40.8127C50.6102 40.6456 51.5745 40.6796 52.4999 40.9125C53.3969 41.137 54.1284 41.659 54.9914 41.9625C55.2414 42.049 55.3554 41.732 55.2239 41.569C54.6044 40.8025 53.4124 40.419 52.4829 40.214C51.4988 39.9962 50.4808 39.9792 49.4899 40.164C47.2399 40.585 45.4364 42.1295 44.9734 43.164C44.3494 42.7217 43.8983 42.0764 43.6974 41.3385C44.5044 40.4215 44.8854 39.341 46.9144 38.076C49.2049 36.6475 53.1939 35.5635 56.9729 35.941C58.9208 36.1915 60.8211 36.7279 62.6124 37.533C62.7724 37.5985 62.8589 37.3495 62.7249 37.264C57.8004 34.114 50.3749 34.9995 46.4094 37.5735C45.1534 38.3895 43.5594 39.7125 43.1544 41.2205C42.9964 41.8 44.7814 44.2035 45.1699 43.529Z" fill="#EA3934"/>
<path d="M40.9775 43.2955C41.9275 43.3735 42.2515 43.7955 42.697 43.9025C42.7501 43.9152 42.8057 43.9123 42.8572 43.8941C42.9086 43.8759 42.9537 43.8432 42.9869 43.8C43.0202 43.7567 43.0402 43.7048 43.0446 43.6504C43.049 43.596 43.0375 43.5415 43.0115 43.4935C42.9441 43.3804 42.8548 43.2818 42.749 43.2035C42.9743 42.9725 43.1667 42.7118 43.321 42.4285C43.3309 42.3875 43.3286 42.3445 43.3146 42.3048C43.3005 42.2651 43.2752 42.2303 43.2418 42.2046C43.2083 42.1789 43.1682 42.1635 43.1262 42.1602C43.0841 42.1569 43.0421 42.1659 43.005 42.186C42.8252 42.3002 42.6718 42.4514 42.555 42.6295C42.4615 42.7435 42.37 42.859 42.282 42.977C41.8383 42.8691 41.3759 42.8619 40.929 42.956C40.7325 42.9965 40.7925 43.2805 40.9775 43.2955Z" fill="#EA3934"/>
<path d="M44.1645 46.6355C44.3233 46.2291 44.3494 45.7829 44.2391 45.3608C44.1288 44.9386 43.8878 44.5622 43.5505 44.2855C43.477 44.2305 43.379 44.3065 43.3775 44.3855C43.3665 44.8945 43.6245 45.365 43.6275 45.871C43.6424 46.0334 43.6152 46.1969 43.5486 46.3458C43.4819 46.4947 43.3781 46.6239 43.247 46.721C43.0477 46.7993 42.8386 46.8498 42.6255 46.871C42.5808 46.883 42.5401 46.9066 42.5075 46.9394C42.4749 46.9722 42.4514 47.013 42.4396 47.0577C42.4278 47.1025 42.428 47.1495 42.4402 47.1942C42.4524 47.2388 42.4761 47.2794 42.509 47.312C43.0865 47.8055 43.9175 47.226 44.1645 46.6355Z" fill="#EA3934"/>
<path d="M41.7614 47.1655C41.8107 46.928 41.9116 46.7043 42.0569 46.51C42.1909 46.326 42.4394 46.2045 42.5314 45.9855C42.5513 45.9489 42.5615 45.9077 42.561 45.866C42.5605 45.8243 42.5493 45.7835 42.5286 45.7473C42.5078 45.7111 42.4782 45.6808 42.4424 45.6593C42.4067 45.6379 42.3661 45.6259 42.3244 45.6245C41.9244 45.5845 41.2989 46.2465 41.3644 47.105C41.3809 47.3255 41.7154 47.404 41.7614 47.1655Z" fill="#EA3934"/>
<path d="M41.859 44.8414C41.059 44.4849 40.2865 45.4534 40.059 46.1019C39.9675 46.3644 40.372 46.5324 40.509 46.2919C40.9625 45.4919 41.5455 45.4964 41.8955 45.1354C41.9154 45.1151 41.9304 45.0905 41.9395 45.0635C41.9486 45.0366 41.9515 45.0079 41.948 44.9797C41.9445 44.9514 41.9347 44.9243 41.9193 44.9004C41.9039 44.8765 41.8833 44.8563 41.859 44.8414Z" fill="#EA3934"/>
<path d="M39.2675 45.3804C39.2581 45.4244 39.2642 45.4703 39.2848 45.5103C39.3055 45.5503 39.3394 45.5818 39.3808 45.5995C39.4221 45.6173 39.4683 45.6201 39.5115 45.6075C39.5547 45.5949 39.5922 45.5676 39.6175 45.5304C40.126 44.7044 40.747 44.7174 41.0825 44.3869C41.1097 44.3589 41.1291 44.3242 41.1389 44.2864C41.1487 44.2486 41.1486 44.2089 41.1385 44.1712C41.1284 44.1334 41.1088 44.099 41.0815 44.071C41.0541 44.0431 41.02 44.0228 40.9825 44.0119C40.482 43.8314 39.514 44.3804 39.2675 45.3804Z" fill="#EA3934"/>
<path d="M38.1815 44.2646C38.4715 44.1676 38.634 43.8856 38.938 43.8146C39.1027 43.7769 39.2735 43.7755 39.4387 43.8107C39.604 43.8458 39.7595 43.9166 39.8945 44.0181C40.11 44.1781 40.2945 43.8516 40.1565 43.6756C40.0148 43.4724 39.8179 43.3139 39.5891 43.2189C39.3603 43.1238 39.109 43.0961 38.865 43.1391C38.448 43.2106 37.8325 43.5326 37.8735 44.0311C37.874 44.0683 37.883 44.105 37.8998 44.1383C37.9166 44.1715 37.9408 44.2005 37.9705 44.223C38.0002 44.2456 38.0346 44.261 38.0712 44.2682C38.1078 44.2754 38.1455 44.2741 38.1815 44.2646Z" fill="#EA3934"/>
<path d="M43.2999 49.341C43.7499 49.6335 44.2374 48.991 44.2999 48.607C44.3704 48.187 44.0954 47.58 43.5929 47.6245C43.5605 47.6255 43.5289 47.6348 43.5011 47.6515C43.4733 47.6682 43.4503 47.6917 43.4341 47.7198C43.418 47.7479 43.4093 47.7797 43.4089 47.8121C43.4085 47.8445 43.4165 47.8765 43.4319 47.905C43.5249 48.0855 43.6819 48.2775 43.6364 48.498C43.5864 48.742 43.2994 48.7605 43.2009 48.974C43.1679 49.0363 43.1597 49.1089 43.1781 49.177C43.1964 49.2451 43.24 49.3038 43.2999 49.341Z" fill="#EA3934"/>
<path d="M66.1935 42.9349C66.603 42.9404 67.484 43.2139 67.95 43.1379C67.9509 43.2253 67.9759 43.3106 68.0221 43.3847C68.0683 43.4588 68.134 43.5187 68.212 43.5579C68.3864 43.6383 68.5798 43.6684 68.7704 43.645C68.9609 43.6216 69.1412 43.5456 69.291 43.4254C69.4408 43.3053 69.5541 43.1458 69.6183 42.9648C69.6826 42.7839 69.6951 42.5886 69.6545 42.4009C69.51 41.8919 68.5045 41.8334 68.069 42.6134C67.3975 41.8044 65.626 41.1519 64.729 41.1314C60.7975 41.0414 59.6625 42.6989 56.956 43.8314C54.2495 44.9639 53.153 43.3159 52.8 43.1559C52.013 42.7989 48.891 43.1899 48.686 43.4744C48.4545 43.7959 49.1985 46.6114 49.718 46.9994C49.893 47.1304 53.452 47.9894 55.2105 47.8454C60.408 47.4204 61.039 44.5534 64.3575 43.2544C64.9431 43.0301 65.5666 42.9215 66.1935 42.9349Z" fill="#EA3934"/>
<path d="M79.9705 92.6555C77.9615 94.1445 76.116 91.319 74.2655 90.966C72.4455 90.619 71.222 92.549 71.3655 94.1725C70.1155 94.3835 56.6395 94.1225 53.538 94.1255C50.4365 94.1285 41.5575 94.2205 40.4235 93.6285C39.3345 93.06 39.0095 91.7445 37.9465 91.1565C36.9045 90.58 35.6845 90.8865 34.576 91.025C33.2486 91.1892 31.9083 90.8434 30.826 90.0575C29.299 88.953 28.6695 87.12 27.36 85.815C26.8723 85.2607 26.1855 84.9213 25.449 84.8705C24.4575 84.8705 23.8395 85.5835 23.239 86.274C21.356 88.439 18.709 86.893 17.356 84.9795C16.2215 83.3745 15.256 81.3295 13.2265 80.7185C12.7227 80.5604 12.1872 80.5323 11.6697 80.6367C11.1521 80.7411 10.6694 80.9746 10.2663 81.3156C9.86323 81.6566 9.55292 82.094 9.36422 82.5871C9.17552 83.0802 9.11456 83.613 9.187 84.136C8.28486 83.9368 7.34185 84.0487 6.51138 84.4535C5.6809 84.8583 5.01183 85.5321 4.613 86.3655C4.3387 86.948 4.25204 87.6013 4.36498 88.2351C4.47792 88.869 4.7849 89.4521 5.2435 89.904C4.76413 89.9768 4.31381 90.1793 3.94134 90.4898C3.56886 90.8002 3.28843 91.2066 3.13041 91.665C2.9724 92.1234 2.94282 92.6163 3.0449 93.0903C3.14698 93.5642 3.37681 94.0013 3.7095 94.354C3.994 94.6845 4.4645 94.204 4.1855 93.8765C3.89325 93.5375 3.7224 93.1106 3.69998 92.6636C3.67757 92.2166 3.80486 91.7748 4.06173 91.4082C4.3186 91.0417 4.69037 90.7712 5.11822 90.6397C5.54607 90.5081 6.00556 90.523 6.424 90.682C6.7855 90.811 7.044 90.2105 6.6865 90.0575C5.27 89.453 4.5595 88.0075 5.2725 86.5665C5.66212 85.814 6.31802 85.2335 7.11234 84.9383C7.90665 84.643 8.78245 84.6542 9.569 84.9695C9.62724 84.9847 9.68844 84.9844 9.74654 84.9687C9.80463 84.9529 9.85759 84.9222 9.90015 84.8796C9.94271 84.8371 9.9734 84.7841 9.98916 84.726C10.0049 84.6679 10.0052 84.6067 9.99 84.5485C9.112 82.0265 12.0375 79.9755 14.459 82.2165C15.8215 83.4775 16.4825 85.308 17.8125 86.6005C19.1735 87.923 21.5515 88.678 23.1565 87.339C23.8935 86.724 24.4455 85.462 25.5685 85.5635C27.4865 85.7365 28.3685 89.4515 31.004 90.9925C31.9852 91.5737 33.1221 91.8373 34.259 91.747C35.4635 91.6445 37.009 91.0915 38.0045 92.047C38.716 92.73 38.938 93.7315 40.3285 94.3355C41.311 94.7625 49.397 94.8095 52.362 94.808C55.725 94.808 70.426 95.103 71.8355 94.7695C71.9213 94.7433 71.9938 94.6852 72.038 94.6072C72.0822 94.5291 72.0947 94.437 72.073 94.35C71.9387 93.7852 72.0143 93.1908 72.2858 92.6776C72.5572 92.1644 73.006 91.7673 73.5485 91.5605C74.4325 91.2815 75.2935 91.955 75.989 92.413C77.209 93.216 78.867 94.013 80.1855 92.9375C80.346 92.809 80.137 92.532 79.9705 92.6555Z" fill="#EA3934"/>
<path d="M61.356 60.4545C59.2575 60.8717 57.1114 60.997 54.9785 60.827C52.897 60.65 49.6645 59.956 49.031 59.068C49.566 57.3635 49.936 55.594 50.513 53.892C51.613 50.646 52.186 49.817 52.5955 48.498C52.6068 48.4513 52.6011 48.4021 52.5794 48.3591C52.5578 48.3162 52.5215 48.2824 52.4772 48.2638C52.4329 48.2451 52.3834 48.2429 52.3375 48.2574C52.2917 48.2719 52.2525 48.3023 52.227 48.343C50.0005 51.8105 48.9915 58.535 47.8155 60.647C46.9513 62.2028 45.9557 63.6819 44.8395 65.068C43.253 66.837 41.375 68.104 39.463 69.468C37.599 69.4965 33.2395 70.222 27.5 67.8365C27.21 67.4795 25.096 66.525 24.531 66.7035C24.124 66.8345 22.039 69.326 21.4135 70.332C21.1885 70.6925 19.8925 72.878 20.0325 73.318C20.0597 73.3838 20.1069 73.4395 20.1673 73.4771C20.2277 73.5148 20.2985 73.5326 20.3695 73.528C20.493 73.528 22.6035 72.594 23.9735 71.9835C23.6697 71.632 23.4464 71.2184 23.319 70.7715C23.3045 70.614 23.4935 70.5395 23.614 70.602C23.9837 70.9211 24.2851 71.3115 24.5 71.75C24.511 71.745 24.5435 71.7295 24.9615 71.55C24.704 71.19 24.255 70.5 24.3315 70.2445C24.3456 70.1958 24.375 70.1529 24.4153 70.1222C24.4557 70.0915 24.5048 70.0746 24.5555 70.074C24.937 70.12 25.309 70.908 25.5055 71.313C25.6055 71.2695 25.703 71.225 25.8 71.1805C25.6732 70.7632 25.5833 70.3356 25.5315 69.9025C25.5476 69.8458 25.5854 69.7977 25.6366 69.7685C25.6879 69.7393 25.7485 69.7314 25.8055 69.7465C26.1015 69.825 26.3185 70.465 26.387 70.8965C26.4879 70.8473 26.5835 70.788 26.6725 70.7195C28.0253 71.8575 29.5532 72.7693 31.197 73.4195C39.5515 76.975 48.8365 74.6555 54.2635 69.1035C54.488 68.871 54.152 68.5445 53.9135 68.7535C47.2305 74.533 39.344 75.799 32.1635 73.094C30.3424 72.3445 28.5966 71.4237 26.9495 70.344C27.2505 69.7087 27.5176 69.0577 27.7495 68.394C31.071 69.8745 36.428 70.9595 39.8775 69.814C39.984 69.7775 43.921 67.1075 45.3855 65.467C46.1874 64.5709 46.9081 63.6052 47.539 62.5815C48.1499 61.6984 48.6377 60.7362 48.989 59.7215C51.2315 61.3265 55.624 61.635 58.3645 61.446C59.335 61.378 60.594 61.329 61.469 60.857C61.5088 60.832 61.5395 60.7948 61.5564 60.7509C61.5733 60.707 61.5755 60.6588 61.5628 60.6136C61.5501 60.5683 61.5231 60.5284 61.4858 60.4997C61.4486 60.471 61.403 60.4552 61.356 60.4545Z" fill="#EA3934"/>
<path d="M88.45 86.371C88.2895 86.2283 88.0795 86.1543 87.865 86.165C86.2143 86.1732 84.5768 86.4606 83.022 87.015C71.6065 73.4795 63.7865 62.585 62.666 61.232C62.5595 61.101 62.3495 61.269 62.4365 61.408C63.8365 63.678 68.951 70.476 70.108 71.9965C73.9955 77.102 78.258 82.419 82.408 87.255C82.2965 87.305 79.932 88.9755 79.7995 89.137C79.1515 88.3756 78.4375 87.6729 77.666 87.037C75.271 84.828 56.316 67.316 53.7415 65.279C53.5915 65.1595 53.3875 65.347 53.525 65.4955C55.384 67.481 64.006 75.415 76.8595 87.2115C77.719 88.0005 78.564 88.9545 79.5765 89.5525C79.3895 90.3295 80.3595 91.9025 81.637 91.871C82.1995 91.8565 88.4565 87.15 88.526 86.952C88.5657 86.8571 88.5796 86.7533 88.5662 86.6513C88.5529 86.5493 88.5128 86.4526 88.45 86.371ZM84.429 88.389C84.418 88.4249 84.3981 88.4573 84.3711 88.4833C84.3441 88.5093 84.3109 88.528 84.2747 88.5376C84.2384 88.5472 84.2003 88.5474 84.164 88.5382C84.1277 88.529 84.0943 88.5107 84.067 88.485C83.8832 88.0945 83.7641 87.6767 83.7145 87.248C83.7017 87.1947 83.7102 87.1385 83.7381 87.0913C83.766 87.0441 83.8111 87.0096 83.8639 86.995C83.9168 86.9804 83.9732 86.9869 84.0213 87.0131C84.0695 87.0393 84.1056 87.0832 84.122 87.1355C84.2929 87.5336 84.3972 87.9571 84.4305 88.389H84.429ZM85.2695 88.006C85.2619 88.0321 85.2485 88.0562 85.2303 88.0765C85.2121 88.0967 85.1896 88.1126 85.1644 88.123C85.1393 88.1333 85.1121 88.1379 85.0849 88.1364C85.0578 88.1348 85.0313 88.1272 85.0075 88.114C84.8567 87.9758 84.7398 87.8046 84.6661 87.6138C84.5924 87.423 84.5637 87.2177 84.5825 87.014C84.5705 86.728 84.9825 86.7005 85.057 86.9495C85.2272 87.2742 85.3015 87.6407 85.271 88.006H85.2695ZM86.198 87.676C86.1893 87.7076 86.1736 87.7368 86.152 87.7614C86.1304 87.786 86.1034 87.8054 86.0732 87.818C86.043 87.8306 86.0103 87.8362 85.9776 87.8343C85.9449 87.8324 85.913 87.8231 85.8845 87.807C85.6166 87.5745 85.4416 87.2532 85.3915 86.902C85.3701 86.8392 85.3734 86.7706 85.4006 86.71C85.4277 86.6495 85.4769 86.6015 85.538 86.5757C85.5992 86.5499 85.6678 86.5482 85.7302 86.571C85.7925 86.5938 85.8439 86.6394 85.874 86.6985C86.0983 86.9737 86.2142 87.3213 86.2 87.676H86.198Z" fill="#EA3934"/>
<path d="M47.1376 52.65C43.1055 49.841 39.42 46.5645 36.1581 42.889C35.4786 42.1245 34.6681 41.2745 33.6456 41.323C32.6566 41.3705 24.8901 50.0125 25.4911 51.123C26.0921 52.2335 27.9131 53.8835 28.5111 54.3975C30.4571 56.067 38.6996 63.201 39.4611 63.5275C39.783 63.7007 40.1577 63.7484 40.5127 63.6612C40.8676 63.574 41.1776 63.3582 41.3826 63.0555C41.9426 62.339 49.4391 54.2525 47.1376 52.65ZM37.5651 48.5085C36.8216 47.904 34.0456 44.713 33.6151 44.649C32.8596 44.5375 32.0651 45.815 31.6336 46.3395C31.0276 47.07 30.4191 47.8095 29.8696 48.5845C29.7516 48.75 29.4801 48.599 29.5916 48.422C30.2416 47.395 30.8951 46.3905 31.6416 45.428C32.1046 44.8235 32.6451 43.9605 33.4856 43.9055C34.3856 43.8465 35.0111 44.7995 35.5356 45.3805C36.4076 46.2649 37.2124 47.2132 37.9431 48.2175C38.1081 48.4625 37.7606 48.6685 37.5651 48.5085Z" fill="#EA3934"/>
<path d="M63.517 15.6109C63.7004 15.4331 63.8403 15.2154 63.9258 14.9747C64.0114 14.734 64.0403 14.4769 64.0104 14.2232C63.9804 13.9695 63.8924 13.7262 63.7532 13.512C63.614 13.2979 63.4273 13.1187 63.2075 12.9884C62.443 12.5149 61.634 12.6424 60.7865 12.6789C60.131 12.7069 55.8325 12.7634 54.547 13.4789C54.203 13.7008 53.9601 14.0491 53.8707 14.4486C53.7814 14.8481 53.8528 15.2667 54.0695 15.6139C49.439 16.0914 44.9174 17.3219 40.6835 19.2569C35.758 21.5913 31.3796 24.9373 27.8335 29.0769C19.9955 37.9854 15.823 49.3499 19.0595 60.9619C19.4825 62.486 20.0581 63.9634 20.7775 65.3719C21.658 67.0919 24.6235 65.8969 23.942 64.0384C21.8625 58.3699 20.9635 54.2539 22.0205 48.2814C23.39 40.5499 27.8195 33.8454 33.5285 28.4539C38.774 23.4999 45.4395 20.3634 53.2105 19.3724C60.14 18.4889 67.1475 19.5114 71.492 21.1534C80.1625 24.4294 87.2535 31.6459 90.242 37.5909C93.418 43.9029 94.13 48.9214 94.2865 51.2819C94.371 52.5514 94.4175 57.1319 92.1135 66.1819C91.4635 68.7319 90.373 70.8079 89.126 73.1734C87.984 75.323 86.704 77.3963 85.294 79.3804C84.6045 80.2564 83.9545 81.1594 83.2245 82.0034C82.559 82.7724 83.406 84.0649 84.3615 83.4774C88.837 80.7274 91.9615 76.0309 94.015 71.2809C96.3053 66.1344 97.6436 60.6154 97.965 54.9914C98.7945 36.9669 85.109 17.9259 63.517 15.6109Z" fill="#3A307F"/>
<path d="M72.5054 86.57C69.6504 86.7485 67.8784 88.412 61.5129 88.9755C49.8274 90.0095 37.1719 85.8845 28.6079 76.434C27.8952 75.746 27.2877 74.9569 26.8049 74.092C26.4674 73.379 25.4779 73.912 25.6049 74.597C26.0379 76.9085 27.3484 78.9265 28.8694 80.6795C33.9999 86.59 40.3554 89.8555 47.9819 91.6155C55.9624 93.457 63.7584 92.999 70.2159 90.902C71.4515 90.5842 72.6036 90.0025 73.5929 89.197C74.5629 88.3295 73.8224 86.488 72.5054 86.57Z" fill="#3A307F"/>
<path d="M36.8716 30.85C36.0941 30.261 35.0801 29.427 34.0661 29.4385C33.8887 29.4425 33.7146 29.4865 33.5565 29.5673C33.3985 29.648 33.2608 29.7633 33.1535 29.9046C33.0463 30.0459 32.9723 30.2097 32.937 30.3835C32.9018 30.5574 32.9063 30.737 32.9501 30.909C33.1015 31.432 33.3826 31.9084 33.7671 32.294C34.763 33.4719 35.8776 34.5443 37.0931 35.494C37.4143 35.6787 37.7872 35.753 38.1547 35.7057C38.5223 35.6584 38.8641 35.492 39.1281 35.232C39.3942 34.9712 39.5649 34.6285 39.6125 34.259C39.6601 33.8895 39.5819 33.5147 39.3906 33.195C38.6624 32.3015 37.8148 31.5125 36.8716 30.85Z" fill="#3A307F"/>
<path d="M58.084 28.8855C58.1704 29.095 58.3007 29.2835 58.4662 29.4383C58.6316 29.5932 58.8283 29.7108 59.043 29.7833C59.2577 29.8557 59.4855 29.8813 59.7109 29.8583C59.9364 29.8353 60.1543 29.7643 60.35 29.65C61.63 28.874 61.185 26.428 60.7945 24.988C60.4945 23.888 59.564 20.988 57.941 22.3545C57.338 22.8625 57.384 23.7385 57.441 24.4545C57.634 27.054 57.735 28.1085 58.084 28.8855Z" fill="#3A307F"/>
<path d="M83.889 57.236C84.9065 57.165 89.827 57.2615 90.168 57.194C91.321 56.967 91.5725 55.1405 90.504 54.625C90.159 54.4585 84.6955 54.5485 83.5795 54.945C83.3105 55.0237 83.0785 55.1959 82.9253 55.4306C82.7721 55.6653 82.7078 55.947 82.744 56.225C82.7793 56.5038 82.9151 56.7603 83.1258 56.9464C83.3366 57.1325 83.6079 57.2354 83.889 57.236Z" fill="#3A307F"/>
<path d="M85.3001 71.6C85.9821 71.313 86.5816 70.643 86.3046 69.83C85.8981 68.6365 81.6711 67.554 80.6931 67.5555C79.4431 67.558 79.3556 69.2055 80.4136 69.616C81.1236 69.8935 84.3221 72.011 85.3001 71.6Z" fill="#3A307F"/>
<path d="M56.7266 82.543C56.6891 83.673 56.5501 85.1645 57.1596 86.1545C57.7236 87.0715 59.3396 87.2665 59.8476 86.1545C60.3926 84.962 60.1016 83.6245 59.9186 82.367C59.7661 81.317 59.6251 80.1125 59.0571 79.1935C58.6821 78.586 57.6071 78.454 57.2671 79.1935C56.8679 80.2634 56.6842 81.4018 56.7266 82.543Z" fill="#3A307F"/>
<path d="M40.6421 81.5765C41.2351 81.0175 44.2496 78.7685 44.2141 77.751C44.2154 77.5544 44.1645 77.361 44.0667 77.1905C43.9688 77.02 43.8275 76.8786 43.6571 76.7805C41.6816 75.921 39.8506 78.34 38.7666 79.702C38.5246 79.9521 38.3907 80.2872 38.3936 80.6352C38.3965 80.9831 38.5361 81.316 38.7822 81.5619C39.0283 81.8079 39.3612 81.9473 39.7091 81.95C40.0571 81.9527 40.3922 81.8186 40.6421 81.5765Z" fill="#3A307F"/>
<path d="M28.692 56.9395C29.592 56.523 29.1985 55.3045 28.442 55.0225C27.0376 54.8515 25.6203 54.812 24.2085 54.9045C23.9029 54.9889 23.6386 55.1821 23.4655 55.4478C23.2924 55.7135 23.2223 56.0333 23.2685 56.347C23.3134 56.6588 23.4677 56.9444 23.7039 57.1529C23.94 57.3613 24.2426 57.4791 24.5575 57.485C25.9484 57.4183 27.3314 57.2358 28.692 56.9395Z" fill="#3A307F"/>
<path d="M52.9575 11.0001C55.252 12.4501 60.47 11.4136 63.626 11.1131C65.798 10.9061 66.1175 7.94306 65.8635 7.17856C65.6361 6.37604 65.1118 5.69014 64.397 5.26006C63.5855 4.83306 58.936 5.26006 58.2165 5.29806C56.4955 5.39306 54.505 5.19406 52.9575 6.03656C50.9965 7.10006 51.1945 9.88356 52.9575 11.0001Z" fill="#3A307F"/>
</svg>
